<svg width="40" height="40" viewBox="0 0 40 40" fill="none" xmlns="http://www.w3.org/2000/svg">
<g clip-path="url(#clip0_1044_383)">
<path d="M39.4138 35.1538H23.855L21.7673 33.2764C21.5265 33.06 21.156 33.0795 20.9393 33.3206C20.723 33.5611 20.7428 33.9319 20.9833 34.1483L22.1017 35.1538H3.97736L7.90405 31.1395C8.17169 30.8661 8.54462 30.7089 8.92731 30.7089H16.6095C16.9635 30.7089 17.3035 30.8392 17.5668 31.076L18.8577 32.2369C19.0985 32.453 19.469 32.4338 19.6857 32.1927C19.902 31.9522 19.8822 31.5814 19.6414 31.3651L18.3508 30.2045C17.872 29.7739 17.2537 29.5367 16.6095 29.5367H13.718L13.7119 29.5151C13.2144 27.7444 11.7114 26.4478 9.93134 26.1743V15.3354H10.6271C11.2653 15.3354 11.7847 14.8163 11.7847 14.1779V13.0688C12.4084 13.0127 12.8992 12.4875 12.8992 11.8494V9.26025C12.8992 8.58459 12.3495 8.03497 11.6739 8.03497H10.7288L11.0455 6.25153C11.1179 5.8432 11.0068 5.42664 10.7404 5.10895C10.4739 4.79095 10.083 4.60876 9.66827 4.60876H8.66486V4.33624C8.66486 4.01245 8.4024 3.75 8.07861 3.75C7.75482 3.75 7.49237 4.01245 7.49237 4.33624V4.60876H6.48865C6.07483 4.60876 5.68451 4.79034 5.41809 5.10712C5.15167 5.4245 5.03967 5.84015 5.11108 6.24878L5.42419 8.03497H4.48334C3.80768 8.03497 3.25806 8.58459 3.25806 9.26025V11.8494C3.25806 12.4875 3.74847 13.0127 4.37225 13.0688V14.1782C4.37225 14.8163 4.89136 15.3357 5.52979 15.3357H6.22589V18.1812C6.22589 18.5049 6.48834 18.7674 6.81213 18.7674C7.13593 18.7674 7.39838 18.5049 7.39838 18.1812V15.3357H8.75916V26.1203H7.39838V20.8963C7.39838 20.5725 7.13593 20.3101 6.81213 20.3101C6.48834 20.3101 6.22589 20.5725 6.22589 20.8963V26.1203H5.37415C2.84271 26.1203 0.783386 28.1796 0.783386 30.7111V35.1541H0.586243C0.262451 35.1541 0 35.4163 0 35.7401C0 36.0638 0.262451 36.3263 0.586243 36.3263H39.4138C39.7375 36.3263 40 36.0638 40 35.7401C40 35.4163 39.7375 35.1538 39.4138 35.1538ZM6.26556 6.04675C6.25 5.95612 6.29028 5.89203 6.31561 5.86182C6.34094 5.8316 6.39709 5.78094 6.48865 5.78094H8.0777H8.07831H8.07922H9.66797C9.76013 5.78094 9.81628 5.83191 9.84161 5.86212C9.86694 5.89233 9.90692 5.95642 9.89105 6.04675L9.53796 8.03497H6.61438L6.26556 6.04675ZM4.43054 9.26025C4.43054 9.23126 4.45404 9.20746 4.48334 9.20746H11.6736C11.7029 9.20746 11.7267 9.23126 11.7267 9.26025V11.8494C11.7267 11.8787 11.7029 11.9022 11.6736 11.9022H4.48334C4.45404 11.9022 4.43054 11.8787 4.43054 11.8494V9.26025ZM5.54443 13.0746H10.6122V14.1632H5.54443V13.0746ZM1.95557 30.7108C1.95557 28.826 3.48907 27.2925 5.37415 27.2925H9.23035C10.6793 27.2925 11.9757 28.201 12.485 29.5367H8.92731C8.2312 29.5367 7.5528 29.8221 7.06573 30.3198L2.33765 35.1538H1.95557V30.7108Z" fill="black"/>
<path d="M10.7196 10.555C10.7196 10.8788 10.4572 11.1412 10.1334 11.1412C9.80957 11.1412 9.54712 10.8788 9.54712 10.555C9.54712 10.2312 9.80957 9.96875 10.1334 9.96875C10.4572 9.96875 10.7196 10.2312 10.7196 10.555Z" fill="black"/>
<path d="M8.71179 10.555C8.71179 10.8788 8.44934 11.1412 8.12555 11.1412C7.80176 11.1412 7.53931 10.8788 7.53931 10.555C7.53931 10.2312 7.80176 9.96875 8.12555 9.96875C8.44934 9.96875 8.71179 10.2312 8.71179 10.555Z" fill="black"/>
<path d="M6.6098 10.555C6.6098 10.8788 6.34735 11.1412 6.02356 11.1412C5.70007 11.1412 5.43762 10.8788 5.43762 10.555C5.43762 10.2312 5.70007 9.96875 6.02356 9.96875C6.34735 9.96875 6.6098 10.2312 6.6098 10.555Z" fill="black"/>
<path d="M15.6762 21.1754L14.8657 21.4583C14.2709 21.6579 13.8717 22.213 13.8717 22.8413C13.8717 22.9762 13.8907 23.1108 13.9279 23.242C14.1061 23.867 14.6826 24.3013 15.3335 24.3013H15.3451L21.1966 24.2457C21.4645 24.2439 21.7318 24.2052 21.9885 24.1316L25.9292 23.022L26.0388 23.4047C26.1261 23.7102 26.3272 23.9632 26.6049 24.1173C26.784 24.2168 26.9809 24.2674 27.1805 24.2674C27.29 24.2674 27.4008 24.2522 27.5091 24.221L30.043 23.4962C30.6735 23.3159 31.0397 22.6564 30.8594 22.0259L30.7556 21.6633L37.9648 19.6333C38.7027 19.4221 39.2141 18.791 39.2669 18.0253C39.3204 17.2594 38.901 16.5632 38.1988 16.2523L36.596 15.5421C35.2658 14.9522 33.7726 14.8811 32.3919 15.3422C32.3895 15.3429 32.3868 15.3438 32.3843 15.3447L28.6349 16.653C28.3294 16.7598 28.168 17.0939 28.2745 17.3997C28.3813 17.7052 28.7155 17.8667 29.0213 17.7598L32.7667 16.4528C33.6456 16.1604 34.581 16.1381 35.4623 16.3798L34.9203 16.5294C34.6084 16.6154 34.4253 16.938 34.5114 17.2502C34.5831 17.5102 34.819 17.6805 35.076 17.6805C35.1275 17.6805 35.18 17.6738 35.2322 17.6591L37.2342 17.1071L37.724 17.3241C38.099 17.4904 38.1048 17.8407 38.0975 17.9442C38.0905 18.0473 38.0365 18.3934 37.6446 18.5054L30.3494 20.5598C30.0598 20.1893 29.5642 20.0102 29.0851 20.1472L26.5512 20.872C26.246 20.9596 25.9927 21.1607 25.8386 21.4384C25.7635 21.5739 25.7165 21.7198 25.6979 21.8693L21.6681 23.004C21.5112 23.0488 21.3498 23.0723 21.1871 23.0736L15.3351 23.1288C15.3341 23.1288 15.3335 23.1288 15.3326 23.1288C15.2041 23.1288 15.0903 23.0437 15.0555 22.921C15.0482 22.895 15.0442 22.8676 15.0442 22.8413C15.0442 22.7174 15.1227 22.6082 15.2398 22.5691C15.2426 22.5682 15.2453 22.5673 15.2484 22.5664L26.2289 18.7343C26.5344 18.6278 26.6958 18.2933 26.589 17.9878C26.4825 17.6823 26.1484 17.5209 25.8426 17.6277L20.0036 19.6651L16.6302 16.7067C16.1188 16.2559 15.4217 16.0991 14.7665 16.2865L13.8354 16.5529C13.6264 16.6127 13.4549 16.7699 13.3767 16.9728C13.2989 17.176 13.3212 17.4074 13.4363 17.592L15.6762 21.1754ZM26.8637 22.0073C26.867 22.0012 26.871 22 26.8738 21.9993L29.4076 21.2746C29.4092 21.2739 29.4107 21.2736 29.4122 21.2736C29.4195 21.2736 29.4262 21.2785 29.4284 21.2858L29.7323 22.3482C29.7348 22.357 29.7296 22.3662 29.7207 22.3689L27.1869 23.0937C27.1844 23.0946 27.1802 23.0958 27.174 23.0922C27.1679 23.0888 27.1667 23.0845 27.1658 23.0821L26.8622 22.0201C26.8612 22.0177 26.86 22.0134 26.8637 22.0073ZM15.0891 17.4138C15.3586 17.3363 15.6451 17.4013 15.8566 17.5871L18.732 20.1091L16.8112 20.7793L14.7653 17.5062L15.0891 17.4138Z" fill="black"/>
<path d="M32.135 18.7391C32.4432 18.6402 32.6129 18.31 32.5137 18.0018C32.4149 17.6935 32.0847 17.5239 31.7764 17.623C31.4682 17.7219 31.2985 18.0521 31.3977 18.3604C31.4966 18.6686 31.8268 18.8383 32.135 18.7391Z" fill="black"/>
<path d="M30.2781 19.3353C30.5863 19.2364 30.756 18.9065 30.6571 18.598C30.5579 18.2897 30.228 18.1201 29.9198 18.2192C29.6115 18.3181 29.4419 18.6483 29.5407 18.9565C29.6396 19.2648 29.9698 19.4344 30.2781 19.3353Z" fill="black"/>
<path d="M28.421 19.9321C28.7292 19.8329 28.8989 19.503 28.8 19.1948C28.7008 18.8866 28.3709 18.7169 28.0627 18.8158C27.7545 18.915 27.5848 19.2448 27.6837 19.5531C27.7826 19.8613 28.1128 20.031 28.421 19.9321Z" fill="black"/>
<path d="M26.2058 19.412C25.8976 19.5108 25.7279 19.841 25.8268 20.1493C25.9259 20.4575 26.2558 20.6272 26.5641 20.5283C26.8723 20.4291 27.042 20.0992 26.9431 19.791C26.8439 19.4828 26.514 19.3131 26.2058 19.412Z" fill="black"/>
<path d="M24.3487 20.0082C24.0405 20.107 23.8708 20.4372 23.9697 20.7455C24.0689 21.0537 24.3988 21.2234 24.707 21.1245C25.0152 21.0253 25.1849 20.6954 25.086 20.3872C24.9872 20.079 24.657 19.9093 24.3487 20.0082Z" fill="black"/>
<path d="M22.4918 20.6043C22.1836 20.7035 22.0139 21.0334 22.1128 21.3417C22.212 21.6499 22.5418 21.8196 22.8501 21.7207C23.1583 21.6215 23.328 21.2916 23.2291 20.9834C23.1302 20.6751 22.8 20.5055 22.4918 20.6043Z" fill="black"/>
<path d="M9.77747 31.5303H9.21198C8.88818 31.5303 8.62573 31.7927 8.62573 32.1165C8.62573 32.4403 8.88818 32.7028 9.21198 32.7028H9.77747C10.1013 32.7028 10.3637 32.4403 10.3637 32.1165C10.3637 31.7927 10.1013 31.5303 9.77747 31.5303Z" fill="black"/>
<path d="M11.9934 31.5303H11.4276C11.1041 31.5303 10.8417 31.7927 10.8417 32.1165C10.8417 32.4403 11.1041 32.7028 11.4276 32.7028H11.9934C12.3169 32.7028 12.5793 32.4403 12.5793 32.1165C12.5793 31.7927 12.3169 31.5303 11.9934 31.5303Z" fill="black"/>
<path d="M14.209 31.5303H13.6435C13.3197 31.5303 13.0573 31.7927 13.0573 32.1165C13.0573 32.4403 13.3197 32.7028 13.6435 32.7028H14.209C14.5328 32.7028 14.7952 32.4403 14.7952 32.1165C14.7952 31.7927 14.5328 31.5303 14.209 31.5303Z" fill="black"/>
<path d="M16.4246 31.5303H15.8591C15.5353 31.5303 15.2728 31.7927 15.2728 32.1165C15.2728 32.4403 15.5353 32.7028 15.8591 32.7028H16.4246C16.7484 32.7028 17.0108 32.4403 17.0108 32.1165C17.0108 31.7927 16.7484 31.5303 16.4246 31.5303Z" fill="black"/>
<path d="M9.77747 33.3647H9.21198C8.88818 33.3647 8.62573 33.6272 8.62573 33.9507C8.62573 34.2745 8.88818 34.5369 9.21198 34.5369H9.77747C10.1013 34.5369 10.3637 34.2745 10.3637 33.9507C10.3637 33.6272 10.1013 33.3647 9.77747 33.3647Z" fill="black"/>
<path d="M7.37756 33.3647H6.81207C6.48828 33.3647 6.22583 33.6272 6.22583 33.9507C6.22583 34.2745 6.48828 34.5369 6.81207 34.5369H7.37756C7.70135 34.5369 7.96381 34.2745 7.96381 33.9507C7.96381 33.6272 7.70135 33.3647 7.37756 33.3647Z" fill="black"/>
<path d="M18.3249 33.3647C18.0011 33.3647 17.7386 33.6272 17.7386 33.9507C17.7386 34.2745 18.0011 34.5369 18.3249 34.5369H18.8907C19.2142 34.5369 19.4766 34.2745 19.4766 33.9507C19.4766 33.6272 19.2142 33.3647 18.8907 33.3647H18.3249Z" fill="black"/>
<path d="M11.9934 33.3647H11.4276C11.1041 33.3647 10.8417 33.6272 10.8417 33.9507C10.8417 34.2745 11.1041 34.5369 11.4276 34.5369H11.9934C12.3169 34.5369 12.5793 34.2745 12.5793 33.9507C12.5793 33.6272 12.3169 33.3647 11.9934 33.3647Z" fill="black"/>
<path d="M14.209 33.3647H13.6435C13.3197 33.3647 13.0573 33.6272 13.0573 33.9507C13.0573 34.2745 13.3197 34.5369 13.6435 34.5369H14.209C14.5328 34.5369 14.7952 34.2745 14.7952 33.9507C14.7952 33.6272 14.5328 33.3647 14.209 33.3647Z" fill="black"/>
<path d="M16.4246 33.3647H15.8591C15.5353 33.3647 15.2728 33.6272 15.2728 33.9507C15.2728 34.2745 15.5353 34.5369 15.8591 34.5369H16.4246C16.7484 34.5369 17.0108 34.2745 17.0108 33.9507C17.0108 33.6272 16.7484 33.3647 16.4246 33.3647Z" fill="black"/>
</g>
<defs>
<clipPath id="clip0_1044_383">
<rect width="40" height="40" fill="white"/>
</clipPath>
</defs>
</svg>
