<svg width="40" height="47" viewBox="0 0 40 47" fill="none" xmlns="http://www.w3.org/2000/svg">
<g clip-path="url(#clip0_1044_235)">
<path d="M37.4152 31.3206C37.0914 31.3206 36.8292 31.6289 36.8292 32.009V42.9852H24.7516V29.9554C24.7516 29.0694 24.1382 28.3486 23.3844 28.3486H16.6156C15.8618 28.3486 15.2484 29.0697 15.2484 29.9554V42.9852H3.17078V32.009C3.17078 31.6289 2.90863 31.3206 2.58484 31.3206C2.26105 31.3206 1.9989 31.6289 1.9989 32.009V43.3065C1.9989 43.8885 2.40204 44.3622 2.89734 44.3622H37.1027C37.598 44.3622 38.0011 43.8885 38.0011 43.3065V32.009C38.0011 31.6289 37.739 31.3206 37.4152 31.3206ZM16.4203 42.9852V29.9554C16.4203 29.8289 16.5079 29.7256 16.6156 29.7256H23.3844C23.4921 29.7256 23.5797 29.8289 23.5797 29.9554V42.9852H16.4203Z" fill="black"/>
<path d="M34.6317 40.2652C35.3195 40.2652 35.8792 39.6076 35.8792 38.7993V31.2863C35.8792 30.4781 35.3195 29.8208 34.6317 29.8208H27.3804C26.6925 29.8208 26.1328 30.4781 26.1328 31.2863V38.7993C26.1328 39.6076 26.6925 40.2652 27.3804 40.2652H34.6317ZM27.3047 38.7993V31.2863C27.3047 31.2376 27.3386 31.1978 27.3804 31.1978H34.6317C34.6735 31.1978 34.7073 31.2376 34.7073 31.2863V38.7993C34.7073 38.8484 34.6735 38.8883 34.6317 38.8883H27.3804C27.3386 38.8883 27.3047 38.8484 27.3047 38.7993Z" fill="black"/>
<path d="M12.6196 40.2652C13.3075 40.2652 13.8672 39.6076 13.8672 38.7993V31.2863C13.8672 30.4781 13.3075 29.8208 12.6196 29.8208H5.36835C4.68048 29.8208 4.12079 30.4781 4.12079 31.2863V38.7993C4.12079 39.6076 4.68048 40.2652 5.36835 40.2652H12.6196ZM5.29266 38.7993V31.2863C5.29266 31.2376 5.32654 31.1978 5.36835 31.1978H12.6196C12.6614 31.1978 12.6953 31.2376 12.6953 31.2863V38.7993C12.6953 38.8484 12.6614 38.8883 12.6196 38.8883H5.36835C5.32654 38.8883 5.29266 38.8484 5.29266 38.7993Z" fill="black"/>
<path d="M38.2782 12.8121C38.2782 12.0767 38.7875 11.4786 39.4141 11.4786C39.7379 11.4786 40 11.1702 40 10.7901V9.10546C40 8.72536 39.7379 8.41698 39.4141 8.41698H29.7415C29.4177 8.41698 29.1556 8.72536 29.1556 9.10546C29.1556 9.48592 29.4177 9.79394 29.7415 9.79394H38.8281V10.1902C38.0258 10.4376 37.3926 11.1813 37.1817 12.1236H27.9639V6.01198C27.9639 4.16492 26.6849 2.66211 25.1129 2.66211H14.8874C13.3151 2.66211 12.0364 4.16492 12.0364 6.01198V8.41698H0.585938C0.262146 8.41698 0 8.72536 0 9.10546V10.7901C0 11.1702 0.262146 11.4786 0.585938 11.4786C1.21246 11.4786 1.7218 12.0767 1.7218 12.8121C1.7218 13.0606 1.8338 13.2783 2.00165 13.3995V18.1019H0.947266C0.45166 18.1019 0.048523 18.5756 0.048523 19.1576V22.9065C0.048523 23.4885 0.45166 23.9622 0.947266 23.9622H2.00165V29.2603C2.00165 29.6404 2.26379 29.9487 2.58759 29.9487C2.91138 29.9487 3.17352 29.6404 3.17352 29.2603V23.9622H36.875V29.2613C36.875 29.6414 37.1371 29.9498 37.4609 29.9498C37.7844 29.9498 38.0469 29.6414 38.0469 29.2613V23.9622H39.1013C39.5969 23.9622 40 23.4885 40 22.9065V19.1576C40 18.5756 39.5969 18.1019 39.1013 18.1019H38.0469V13.3604C38.1873 13.2345 38.2782 13.0359 38.2782 12.8121ZM13.208 6.01198C13.208 4.92404 13.9615 4.03906 14.8871 4.03906H25.1126C26.0385 4.03906 26.7917 4.92404 26.7917 6.01198V13.5239C26.7917 14.6118 26.0385 15.4968 25.1126 15.4968H14.8874C13.9615 15.4968 13.2083 14.6118 13.2083 13.5239V6.01198H13.208ZM38.8281 22.5853H1.2204V19.4789H38.8281V22.5853ZM3.17352 18.1019V13.5006H10.2789C10.6027 13.5006 10.8649 13.1926 10.8649 12.8121C10.8649 12.432 10.6027 12.1236 10.2789 12.1236H2.8183C2.60742 11.1813 1.97418 10.4376 1.17188 10.1902V9.79394H12.0361V13.5243C12.0361 15.3713 13.3151 16.8741 14.8871 16.8741H25.1126C26.6849 16.8741 27.9636 15.3713 27.9636 13.5243V13.501H36.8747V18.1019H3.17352Z" fill="black"/>
<path d="M17.7344 35.667H17.2656C16.9418 35.667 16.6797 35.9754 16.6797 36.3555C16.6797 36.7356 16.9418 37.0439 17.2656 37.0439H17.7344C18.0582 37.0439 18.3203 36.7356 18.3203 36.3555C18.3203 35.9754 18.0582 35.667 17.7344 35.667Z" fill="black"/>
<path d="M15.8029 6.78711H16.521L17.2577 10.9251C17.4005 11.7269 18.0103 12.3093 18.7076 12.3093H22.1869C22.7994 12.3093 23.3563 11.8567 23.5727 11.1837L24.7217 7.6097C24.8309 7.2694 24.7913 6.88787 24.6155 6.58917C24.4397 6.29012 24.1498 6.11154 23.8406 6.11154H18.9197C18.5962 6.11154 18.3337 6.41956 18.3337 6.80002C18.3337 7.18011 18.5962 7.48849 18.9197 7.48849H23.508L22.4765 10.6971C22.4313 10.8376 22.3151 10.9323 22.1872 10.9323H18.7076C18.562 10.9323 18.4348 10.8104 18.4048 10.6433L17.6651 6.48913C17.5537 5.86376 17.0786 5.41016 16.5347 5.41016H15.8032C15.4794 5.41016 15.2173 5.71818 15.2173 6.09863C15.2173 6.47873 15.4794 6.78711 15.8029 6.78711Z" fill="black"/>
<path d="M18.8086 12.8867H18.6523C18.3286 12.8867 18.0664 13.1947 18.0664 13.5752C18.0664 13.9553 18.3286 14.2637 18.6523 14.2637H18.8086C19.1324 14.2637 19.3945 13.9553 19.3945 13.5752C19.3945 13.1947 19.1324 12.8867 18.8086 12.8867Z" fill="black"/>
<path d="M21.3477 12.8867H21.1914C20.8676 12.8867 20.6055 13.1947 20.6055 13.5752C20.6055 13.9553 20.8676 14.2637 21.1914 14.2637H21.3477C21.6714 14.2637 21.9336 13.9553 21.9336 13.5752C21.9336 13.1947 21.6714 12.8867 21.3477 12.8867Z" fill="black"/>
</g>
<defs>
<clipPath id="clip0_1044_235">
<rect width="40" height="47" fill="white"/>
</clipPath>
</defs>
</svg>
