<svg width="40" height="40" viewBox="0 0 40 40" fill="none" xmlns="http://www.w3.org/2000/svg">
<g clip-path="url(#clip0_1044_261)">
<path d="M39.4141 36.6361H38.7475V20.2728H39.4141C39.6124 20.2728 39.7973 20.1724 39.9054 20.0061C40.0135 19.8398 40.0301 19.6301 39.9495 19.4488L37.4445 13.8125C37.3505 13.601 37.1406 13.4646 36.9091 13.4646H24.6265L20.586 9.42393V6.49502H24.3838C24.7074 6.49502 24.9698 6.23268 24.9698 5.90908V2.77783C24.9698 2.45424 24.7074 2.19189 24.3838 2.19189H20C19.6764 2.19189 19.4141 2.45424 19.4141 2.77783V9.424L15.3735 13.4646H3.09095C2.85939 13.4646 2.64955 13.601 2.55549 13.8125L0.0504858 19.4488C-0.0300611 19.6301 -0.0134205 19.8398 0.0946264 20.0061C0.202673 20.1724 0.387595 20.2728 0.585955 20.2728H1.25252V36.6362H0.585955C0.262361 36.6362 1.70491e-05 36.8985 1.70491e-05 37.2221C1.70491e-05 37.5457 0.262361 37.8081 0.585955 37.8081H39.4141C39.7377 37.8081 40 37.5457 40 37.2221C40 36.8985 39.7377 36.6361 39.4141 36.6361ZM23.7979 5.32314H20.586V3.36377H23.7979V5.32314ZM3.47174 14.6364H14.2016L9.73713 19.1009H1.4876L3.47174 14.6364ZM2.42439 20.2728H9.97978C10.1352 20.2728 10.2842 20.211 10.3941 20.1011L20 10.4953L29.6059 20.1011C29.7157 20.211 29.8648 20.2728 30.0202 20.2728H34.404C34.7276 20.2728 34.9899 20.0104 34.9899 19.6868C34.9899 19.3632 34.7276 19.1009 34.404 19.1009H30.2629L25.7985 14.6364H36.5283L38.5125 19.1009H36.9091C36.5855 19.1009 36.3231 19.3632 36.3231 19.6868C36.3231 20.0104 36.5855 20.2728 36.9091 20.2728H37.5756V36.6362H25.596V34.7171C25.596 34.3935 25.3337 34.1312 25.0101 34.1312H24.3435V29.0808C24.3435 28.7572 24.0812 28.4949 23.7576 28.4949H16.2425C15.9189 28.4949 15.6566 28.7572 15.6566 29.0808V34.1312H14.99C14.6664 34.1312 14.4041 34.3935 14.4041 34.7171V36.6362H2.42439V20.2728ZM23.1717 29.6667V34.1311H20.586V29.6667H23.1717ZM19.4141 34.1311H16.8284V29.6667H19.4141V34.1311ZM24.4242 35.303V36.6361H15.5759V35.303H24.4242Z" fill="black"/>
<path d="M20 25.2827C22.395 25.2827 24.3435 23.3343 24.3435 20.9392C24.3435 18.5441 22.3951 16.5957 20 16.5957C17.6049 16.5957 15.6565 18.5442 15.6565 20.9392C15.6565 23.3342 17.605 25.2827 20 25.2827ZM20 17.7676C21.7488 17.7676 23.1716 19.1904 23.1716 20.9392C23.1716 22.688 21.7488 24.1109 20 24.1109C18.2512 24.1109 16.8284 22.6881 16.8284 20.9392C16.8284 19.1903 18.2512 17.7676 20 17.7676Z" fill="black"/>
<path d="M20 22.7778C20.3236 22.7778 20.5859 22.5155 20.5859 22.1919V21.3015L21.5145 20.8372C21.804 20.6925 21.9213 20.3406 21.7766 20.0511C21.6319 19.7617 21.2799 19.6443 20.9905 19.7891L19.738 20.4153C19.5395 20.5146 19.4141 20.7175 19.4141 20.9394V22.1919C19.4141 22.5155 19.6764 22.7778 20 22.7778Z" fill="black"/>
<path d="M13.1112 28.4946H4.34351C4.01991 28.4946 3.75757 28.757 3.75757 29.0806V32.8381C3.75757 33.1617 4.01991 33.4241 4.34351 33.4241H5.59624C5.91983 33.4241 6.18218 33.1617 6.18218 32.8381C6.18218 32.5145 5.91983 32.2522 5.59624 32.2522H4.92944V29.6665H8.1414V32.2522H8.10116C7.77757 32.2522 7.51522 32.5145 7.51522 32.8381C7.51522 33.1617 7.77757 33.4241 8.10116 33.4241H13.1112C13.4348 33.4241 13.6971 33.1617 13.6971 32.8381V29.0806C13.6971 28.757 13.4348 28.4946 13.1112 28.4946ZM12.5252 32.2522H9.31327V29.6665H12.5252V32.2522Z" fill="black"/>
<path d="M13.1112 22.2324H4.34351C4.01991 22.2324 3.75757 22.4948 3.75757 22.8184V26.5759C3.75757 26.8995 4.01991 27.1619 4.34351 27.1619H13.1112C13.4348 27.1619 13.6971 26.8995 13.6971 26.5759V22.8184C13.6971 22.4948 13.4348 22.2324 13.1112 22.2324ZM4.92944 23.4043H8.1414V25.99H4.92944V23.4043ZM12.5252 25.9899H9.31327V23.4042H12.5252V25.9899Z" fill="black"/>
<path d="M26.8889 33.4241H35.6565C35.9801 33.4241 36.2424 33.1617 36.2424 32.8381V29.0806C36.2424 28.757 35.9801 28.4946 35.6565 28.4946H26.8889C26.5653 28.4946 26.3029 28.757 26.3029 29.0806V32.8381C26.3029 33.1617 26.5653 33.4241 26.8889 33.4241ZM35.0706 32.2522H31.8586V29.6665H35.0706V32.2522ZM27.4748 29.6665H30.6867V32.2522H27.4748V29.6665Z" fill="black"/>
<path d="M26.8889 27.1614H35.6565C35.9801 27.1614 36.2424 26.899 36.2424 26.5755V22.8179C36.2424 22.4943 35.9801 22.2319 35.6565 22.2319H26.8889C26.5653 22.2319 26.3029 22.4943 26.3029 22.8179V26.5755C26.3029 26.8991 26.5653 27.1614 26.8889 27.1614ZM35.0706 25.9895H31.8586V23.4038H35.0706V25.9895ZM27.4748 23.4039H30.6867V25.9896H27.4748V23.4039Z" fill="black"/>
</g>
<defs>
<clipPath id="clip0_1044_261">
<rect width="40" height="40" fill="white"/>
</clipPath>
</defs>
</svg>
