<svg width="40" height="40" viewBox="0 0 40 40" fill="none" xmlns="http://www.w3.org/2000/svg">
<g clip-path="url(#clip0_1044_301)">
<path d="M22.5968 35.9841C22.9204 35.9841 23.1827 35.7218 23.1827 35.3982V33.8184C23.1827 33.4948 22.9204 33.2324 22.5968 33.2324C22.2732 33.2324 22.0109 33.4948 22.0109 33.8184V35.3982C22.0109 35.7218 22.2732 35.9841 22.5968 35.9841Z" fill="black"/>
<path d="M17.4009 35.9931C17.7245 35.9931 17.9868 35.7308 17.9868 35.4072V33.8296C17.9868 33.506 17.7245 33.2437 17.4009 33.2437C17.0773 33.2437 16.8149 33.506 16.8149 33.8296V35.4072C16.8149 35.7308 17.0773 35.9931 17.4009 35.9931Z" fill="black"/>
<path d="M33.5762 26.4531H36.9505C37.2741 26.4531 37.5365 26.1908 37.5365 25.8672C37.5365 25.5436 37.2741 25.2812 36.9505 25.2812H33.5762C33.2526 25.2812 32.9903 25.5436 32.9903 25.8672C32.9903 26.1908 33.2526 26.4531 33.5762 26.4531Z" fill="black"/>
<path d="M33.5762 30.3066H36.9505C37.2741 30.3066 37.5365 30.0443 37.5365 29.7207C37.5365 29.3971 37.2741 29.1348 36.9505 29.1348H33.5762C33.2526 29.1348 32.9903 29.3971 32.9903 29.7207C32.9903 30.0443 33.2526 30.3066 33.5762 30.3066Z" fill="black"/>
<path d="M33.5762 34.1602H36.9505C37.2741 34.1602 37.5365 33.8978 37.5365 33.5742C37.5365 33.2506 37.2741 32.9883 36.9505 32.9883H33.5762C33.2526 32.9883 32.9903 33.2506 32.9903 33.5742C32.9903 33.8978 33.2526 34.1602 33.5762 34.1602Z" fill="black"/>
<path d="M33.5762 22.5996H36.9505C37.2741 22.5996 37.5365 22.3373 37.5365 22.0137C37.5365 21.6901 37.2741 21.4277 36.9505 21.4277H33.5762C33.2526 21.4277 32.9903 21.6901 32.9903 22.0137C32.9903 22.3373 33.2526 22.5996 33.5762 22.5996Z" fill="black"/>
<path d="M6.42374 25.2812H3.04944C2.72584 25.2812 2.4635 25.5436 2.4635 25.8672C2.4635 26.1908 2.72584 26.4531 3.04944 26.4531H6.42374C6.74733 26.4531 7.00967 26.1908 7.00967 25.8672C7.00967 25.5436 6.74733 25.2812 6.42374 25.2812Z" fill="black"/>
<path d="M6.42374 29.1348H3.04944C2.72584 29.1348 2.4635 29.3971 2.4635 29.7207C2.4635 30.0443 2.72584 30.3066 3.04944 30.3066H6.42374C6.74733 30.3066 7.00967 30.0443 7.00967 29.7207C7.00967 29.3971 6.74733 29.1348 6.42374 29.1348Z" fill="black"/>
<path d="M6.42374 32.9883H3.04944C2.72584 32.9883 2.4635 33.2506 2.4635 33.5742C2.4635 33.8978 2.72584 34.1602 3.04944 34.1602H6.42374C6.74733 34.1602 7.00967 33.8978 7.00967 33.5742C7.00967 33.2506 6.74733 32.9883 6.42374 32.9883Z" fill="black"/>
<path d="M6.42374 21.4277H3.04944C2.72584 21.4277 2.4635 21.6901 2.4635 22.0137C2.4635 22.3373 2.72584 22.5996 3.04944 22.5996H6.42374C6.74733 22.5996 7.00967 22.3373 7.00967 22.0137C7.00967 21.6901 6.74733 21.4277 6.42374 21.4277Z" fill="black"/>
<path d="M15.8957 15.0044H13.1836C12.7247 15.0044 12.3513 15.3788 12.3513 15.8389V18.3025C12.3513 18.7627 12.7247 19.1371 13.1836 19.1371H15.8957C16.3558 19.1371 16.7302 18.7627 16.7302 18.3025V15.8389C16.7302 15.3788 16.3558 15.0044 15.8957 15.0044ZM15.5583 17.9652H13.5232V16.1763H15.5583V17.9652Z" fill="black"/>
<path d="M18.644 15.0044C18.1838 15.0044 17.8094 15.3788 17.8094 15.8389V18.3025C17.8094 18.7627 18.1838 19.1371 18.644 19.1371H21.3561C21.815 19.1371 22.1884 18.7627 22.1884 18.3025V15.8389C22.1884 15.3788 21.815 15.0044 21.3561 15.0044H18.644ZM21.0165 17.9652H18.9813V16.1763H21.0165V17.9652Z" fill="black"/>
<path d="M24.1043 19.1371H26.8142C27.2743 19.1371 27.6487 18.7627 27.6487 18.3025V15.8389C27.6487 15.3788 27.2743 15.0044 26.8142 15.0044H24.1043C23.6442 15.0044 23.2698 15.3788 23.2698 15.8389V18.3025C23.2698 18.7627 23.6442 19.1371 24.1043 19.1371ZM24.4417 16.1763H26.4768V17.9652H24.4417V16.1763Z" fill="black"/>
<path d="M15.8957 20.3745H13.1836C12.7247 20.3745 12.3513 20.7489 12.3513 21.2091V23.6726C12.3513 24.1315 12.7247 24.5049 13.1836 24.5049H15.8957C16.3558 24.5049 16.7302 24.1315 16.7302 23.6726V21.2091C16.7302 20.7489 16.3558 20.3745 15.8957 20.3745ZM15.5583 23.333H13.5232V21.5464H15.5583V23.333Z" fill="black"/>
<path d="M21.356 20.3745H18.6439C18.1838 20.3745 17.8094 20.7489 17.8094 21.2091V23.6726C17.8094 24.1315 18.1838 24.5049 18.6439 24.5049H21.356C21.8149 24.5049 22.1883 24.1315 22.1883 23.6726V21.2091C22.1884 20.7489 21.8149 20.3745 21.356 20.3745ZM21.0165 23.333H18.9813V21.5464H21.0165V23.333Z" fill="black"/>
<path d="M24.1043 24.5049H26.8142C27.2743 24.5049 27.6487 24.1315 27.6487 23.6726V21.2091C27.6487 20.7489 27.2743 20.3745 26.8142 20.3745H24.1043C23.6442 20.3745 23.2698 20.7489 23.2698 21.2091V23.6726C23.2698 24.1315 23.6442 24.5049 24.1043 24.5049ZM24.4417 21.5464H26.4768V23.333H24.4417V21.5464Z" fill="black"/>
<path d="M38.9734 14.1344H31.6987V12.4652H31.9129C32.5188 12.4652 33.0119 11.9722 33.0119 11.3663V8.73094C33.0119 8.12492 32.5188 7.63195 31.9129 7.63195H27.1877V1.10977C27.1877 0.571094 26.7484 0.132812 26.2084 0.132812H13.7893C13.2506 0.132812 12.8124 0.571094 12.8124 1.10977V7.63195H8.08719C7.48 7.63195 6.98594 8.125 6.98594 8.73094V11.3663C6.98594 11.9722 7.47992 12.4652 8.08719 12.4652H8.30133V14.1344H1.02664C0.460547 14.1344 0 14.5959 0 15.1633V39.2812C0 39.6048 0.262344 39.8672 0.585938 39.8672H39.4141C39.7377 39.8672 40 39.6048 40 39.2812V15.1633C40 14.5959 39.5395 14.1344 38.9734 14.1344ZM27.1876 8.80383H31.8399V11.2934H27.1876V8.80383ZM8.15773 11.2934V8.80383H12.8123V11.2934H8.15773ZM1.17188 15.3063H8.30125V17.5743H1.17188V15.3063ZM19.4141 29.9559V38.6953H14.4272V29.7282L19.4598 29.7284C19.4304 29.7984 19.4141 29.8752 19.4141 29.9559ZM25.5705 38.6953H20.5859V29.9559C20.5859 29.8752 20.5696 29.7984 20.5401 29.7284L25.5705 29.7286V38.6953H25.5705ZM30.5269 38.6953H26.7424V29.6892C26.7424 29.0645 26.222 28.5563 25.5824 28.5563H14.4176C13.7767 28.5563 13.2553 29.0645 13.2553 29.6892V38.6953H9.47312V29.6689C9.47312 29.3453 9.21078 29.083 8.88719 29.083C8.56359 29.083 8.30125 29.3453 8.30125 29.6689V38.6953H1.17188V18.7462H8.30125V26.907C8.30125 27.2305 8.56359 27.4929 8.88719 27.4929C9.21078 27.4929 9.47312 27.2305 9.47312 26.907V12.4652H18.9716C19.2952 12.4652 19.5576 12.2029 19.5576 11.8793C19.5576 11.5557 19.2952 11.2934 18.9716 11.2934H13.9842V1.30469H26.0157V11.2934H21.7313C21.4077 11.2934 21.1453 11.5557 21.1453 11.8793C21.1453 12.2029 21.4077 12.4652 21.7313 12.4652H30.5269V38.6953ZM38.8281 38.6953H31.6987V18.7462H38.8281V38.6953ZM38.8281 17.5743H31.6987V15.3063H38.8281V17.5743Z" fill="black"/>
<path d="M21.8697 8.78061V8.16865H22.4817C23.2147 8.16865 23.8112 7.57225 23.8112 6.83912V5.75654C23.8112 5.02342 23.2148 4.42701 22.4817 4.42701H21.8697V3.81732C21.8697 3.0842 21.2743 2.48779 20.5424 2.48779H19.4576C18.7245 2.48779 18.1281 3.0842 18.1281 3.81732V4.42701H17.5184C16.7853 4.42701 16.1888 5.02342 16.1888 5.75654V6.83912C16.1888 7.57225 16.7852 8.16865 17.5184 8.16865H18.1281V8.78061C18.1281 9.51373 18.7245 10.1101 19.4576 10.1101H20.5424C21.2743 10.1101 21.8697 9.51365 21.8697 8.78061ZM19.3 8.78061V7.58271C19.3 7.25912 19.0377 6.99678 18.7141 6.99678H17.5185C17.433 6.99678 17.3608 6.92459 17.3608 6.83912V5.75654C17.3608 5.67107 17.433 5.59889 17.5185 5.59889H18.7141C19.0377 5.59889 19.3 5.33654 19.3 5.01295V3.81732C19.3 3.73186 19.3722 3.65967 19.4577 3.65967H20.5425C20.6267 3.65967 20.6979 3.73186 20.6979 3.81732V5.01295C20.6979 5.33654 20.9603 5.59889 21.2838 5.59889H22.4817C22.5672 5.59889 22.6394 5.67107 22.6394 5.75654V6.83912C22.6394 6.92459 22.5672 6.99678 22.4817 6.99678H21.2838C20.9603 6.99678 20.6979 7.25912 20.6979 7.58271V8.78061C20.6979 8.86607 20.6267 8.93826 20.5425 8.93826H19.4577C19.3721 8.93826 19.3 8.866 19.3 8.78061Z" fill="black"/>
</g>
<defs>
<clipPath id="clip0_1044_301">
<rect width="40" height="40" fill="white"/>
</clipPath>
</defs>
</svg>
