<svg width="40" height="40" viewBox="0 0 40 40" fill="none" xmlns="http://www.w3.org/2000/svg">
<path d="M7.85156 13.7256H9.02344V14.8975H7.85156V13.7256Z" fill="#C4A25F"/>
<path d="M10.1953 13.7256H11.3672V14.8975H10.1953V13.7256Z" fill="#C4A25F"/>
<path d="M38.7891 29.9722V17.2769C38.7709 12.2395 34.5367 8.52735 29.5617 8.87845V10.0503H30.3906C34.0573 9.97665 37.3698 13.0413 37.5919 16.6909H17.987C17.7913 13.8657 16.1923 11.421 13.8837 10.0503H28.3898V8.87845H9.60938C4.97852 8.87845 1.21094 12.646 1.21094 17.2769V29.9722H0V31.1441H19.6016V29.9722H18.0078V17.8628H37.6172V29.9722H32.0535C35.6581 28.0544 34.8136 23.7365 34.2213 22.1469C33.6002 22.2406 31.5627 22.3491 29.632 23.9763C28.1051 20.3956 22.956 19.6143 22.3055 19.6077C21.4196 22.1065 20.6042 27.6854 25.7672 29.9722H20.7734V31.1441H40V29.9722H38.7891ZM9.60938 10.0503C13.3969 10.0503 16.5128 12.9792 16.8121 16.6909H2.40664C2.70594 12.9792 5.82188 10.0503 9.60938 10.0503ZM12.1484 21.8438H7.07031V20.5972H12.1484V21.8438ZM7.07031 23.0157H12.1484V29.9722H7.07031V23.0157ZM16.8359 29.9722H13.3203V19.4253H5.89844V29.9722H2.38281V17.8628H16.8359V29.9722ZM32.968 27.6098C32.3169 28.628 31.1409 29.1949 30.2159 29.499L33.5279 24.3191C33.6401 25.2864 33.6189 26.5917 32.968 27.6098ZM32.5406 23.6879L29.2287 28.8677C28.8978 26.1941 29.9789 24.5084 32.5406 23.6879ZM28.2439 23.8634C28.4604 24.2023 28.6368 24.5823 28.7709 24.995C28.2889 25.7712 28.0826 26.6424 28.023 27.4624L23.9598 21.1077C25.2656 21.4702 27.2165 22.2565 28.2439 23.8634ZM23.6761 26.7845C22.6523 25.183 22.7563 23.0806 22.9742 21.7413L27.9613 29.5412C26.6534 29.1792 24.7046 28.3934 23.6761 26.7845Z" fill="#C4A25F"/>
</svg>
