<svg width="40" height="40" viewBox="0 0 40 40" fill="none" xmlns="http://www.w3.org/2000/svg">
<path d="M32.0697 34.8282C30.9153 34.8282 30.322 34.3023 29.7984 33.8382C29.3181 33.4126 28.9033 33.0449 28.0455 33.0449C27.1877 33.0449 26.7731 33.4126 26.2928 33.8382C25.7694 34.3023 25.1761 34.8282 24.0219 34.8282C22.8677 34.8282 22.2747 34.3023 21.7512 33.8382C21.2711 33.4126 20.8562 33.0449 19.9986 33.0449C19.1409 33.0449 18.7263 33.4126 18.2459 33.8382C17.7227 34.3023 17.1292 34.8282 15.9752 34.8282C14.8211 34.8282 14.228 34.3023 13.7045 33.8382C13.2244 33.4126 12.8095 33.0449 11.9519 33.0449C11.0942 33.0449 10.6798 33.4126 10.1995 33.8382C9.67625 34.3023 9.08297 34.8282 7.92906 34.8282C6.77516 34.8282 6.18187 34.3023 5.65859 33.8382C5.17844 33.4126 4.76375 33.0449 3.90625 33.0449C3.80265 33.0449 3.70329 33.0038 3.63004 32.9305C3.55678 32.8573 3.51562 32.7579 3.51562 32.6543C3.51562 32.5507 3.55678 32.4513 3.63004 32.3781C3.70329 32.3048 3.80265 32.2637 3.90625 32.2637C5.06016 32.2637 5.65344 32.7896 6.17672 33.2537C6.65687 33.6793 7.07156 34.047 7.92906 34.047C8.78656 34.047 9.20125 33.6793 9.68141 33.2537C10.2048 32.7896 10.798 32.2637 11.9519 32.2637C13.1058 32.2637 13.6994 32.7896 14.2227 33.2537C14.703 33.6793 15.1177 34.047 15.9752 34.047C16.8327 34.047 17.2477 33.6793 17.7278 33.2537C18.2513 32.7896 18.8445 32.2637 19.9986 32.2637C21.1527 32.2637 21.7461 32.7896 22.2694 33.2537C22.7497 33.6793 23.1644 34.047 24.0219 34.047C24.8794 34.047 25.2945 33.6793 25.7747 33.2535C26.2983 32.7895 26.8914 32.2637 28.0455 32.2637C29.1995 32.2637 29.7931 32.7895 30.3166 33.2535C30.797 33.6793 31.2119 34.047 32.0697 34.047C32.9275 34.047 33.3423 33.6793 33.8227 33.2535C34.3461 32.7895 34.9395 32.2637 36.0938 32.2637C36.1973 32.2637 36.2967 32.3048 36.37 32.3781C36.4432 32.4513 36.4844 32.5507 36.4844 32.6543C36.4844 32.7579 36.4432 32.8573 36.37 32.9305C36.2967 33.0038 36.1973 33.0449 36.0938 33.0449C35.2359 33.0449 34.8211 33.4126 34.3408 33.8382C33.8173 34.3027 33.2239 34.8282 32.0697 34.8282Z" fill="#EBE7F2"/>
<path d="M16.9592 15.1049C16.8255 15.1049 16.6921 15.0947 16.56 15.0744C16.5087 15.0673 16.4593 15.0501 16.4148 15.0238C16.3702 14.9974 16.3313 14.9625 16.3004 14.921C16.2694 14.8795 16.247 14.8323 16.2345 14.782C16.222 14.7318 16.2196 14.6796 16.2274 14.6284C16.2352 14.5772 16.2531 14.5281 16.2801 14.4839C16.3071 14.4398 16.3426 14.4014 16.3845 14.371C16.4264 14.3407 16.474 14.319 16.5244 14.3072C16.5748 14.2953 16.627 14.2937 16.6781 14.3022C17.0459 14.3581 17.4221 14.302 17.7576 14.1412C18.0931 13.9804 18.3725 13.7224 18.5594 13.4007C18.7462 13.079 18.832 12.7085 18.8054 12.3374C18.7789 11.9662 18.6412 11.6117 18.4104 11.3199C18.3462 11.2386 18.3169 11.1351 18.329 11.0322C18.3411 10.9293 18.3935 10.8354 18.4748 10.7711C18.5561 10.7069 18.6596 10.6776 18.7625 10.6897C18.8654 10.7017 18.9593 10.7542 19.0236 10.8355C19.3304 11.2237 19.5217 11.6904 19.5756 12.1823C19.6295 12.6741 19.5439 13.1712 19.3285 13.6166C19.1131 14.062 18.7766 14.4378 18.3576 14.701C17.9386 14.9641 17.454 15.104 16.9592 15.1046V15.1049Z" fill="#EBE7F2"/>
<path d="M22.1814 22.9098C22.1116 22.9098 22.043 22.891 21.9829 22.8555C21.9228 22.8199 21.8733 22.7689 21.8396 22.7078C21.8059 22.6466 21.7892 22.5776 21.7912 22.5078C21.7933 22.438 21.814 22.37 21.8512 22.3109L23.2336 20.1175C23.2609 20.0741 23.2966 20.0365 23.3384 20.0068C23.3803 19.9772 23.4276 19.9561 23.4777 19.9447C23.5277 19.9334 23.5795 19.932 23.6301 19.9407C23.6806 19.9493 23.729 19.9679 23.7724 19.9952C23.8158 20.0226 23.8534 20.0582 23.883 20.1001C23.9127 20.142 23.9338 20.1893 23.9451 20.2393C23.9565 20.2893 23.9579 20.3411 23.9492 20.3917C23.9406 20.4423 23.922 20.4906 23.8947 20.534L22.5122 22.7275C22.477 22.7834 22.4281 22.8294 22.3703 22.8613C22.3124 22.8932 22.2474 22.9099 22.1814 22.9098Z" fill="#65C1D6"/>
<path d="M24.702 18.9105C24.6322 18.9105 24.5636 18.8917 24.5034 18.8562C24.4433 18.8207 24.3938 18.7697 24.36 18.7085C24.3263 18.6473 24.3096 18.5782 24.3116 18.5084C24.3137 18.4385 24.3344 18.3705 24.3717 18.3114L25.0694 17.2049C25.1246 17.1172 25.2124 17.0551 25.3135 17.0321C25.4145 17.0092 25.5205 17.0274 25.6082 17.0826C25.6959 17.1378 25.758 17.2257 25.7809 17.3267C25.8039 17.4278 25.7857 17.5338 25.7305 17.6214L25.0328 18.728C24.9976 18.7839 24.9488 18.83 24.891 18.8619C24.8331 18.8938 24.7681 18.9105 24.702 18.9105Z" fill="#65C1D6"/>
<path d="M3.90625 25.8882C4.76375 25.8882 5.17844 26.2558 5.65859 26.6815C6.18187 27.1455 6.77516 27.6715 7.92906 27.6715C8.03266 27.6715 8.13202 27.6303 8.20528 27.5571C8.27853 27.4838 8.31969 27.3844 8.31969 27.2808C8.31969 27.1772 8.27853 27.0779 8.20528 27.0046C8.13202 26.9314 8.03266 26.8902 7.92906 26.8902C7.07156 26.8902 6.65687 26.5226 6.17672 26.0968C5.65344 25.6329 5.06016 25.1069 3.90625 25.1069C3.80265 25.1069 3.70329 25.1481 3.63004 25.2213C3.55678 25.2946 3.51562 25.394 3.51562 25.4976C3.51562 25.6012 3.55678 25.7005 3.63004 25.7738C3.70329 25.847 3.80265 25.8882 3.90625 25.8882Z" fill="#C4A25F"/>
<path d="M31.6791 27.2813C31.6791 27.3849 31.7202 27.4843 31.7935 27.5575C31.8667 27.6308 31.9661 27.672 32.0697 27.672C33.2239 27.672 33.8174 27.146 34.3408 26.682C34.8211 26.2563 35.236 25.8887 36.0938 25.8887C36.1974 25.8887 36.2967 25.8475 36.37 25.7743C36.4432 25.701 36.4844 25.6016 36.4844 25.498C36.4844 25.3944 36.4432 25.2951 36.37 25.2218C36.2967 25.1486 36.1974 25.1074 36.0938 25.1074C34.9395 25.1074 34.3461 25.6334 33.8227 26.0973C33.3424 26.523 32.9275 26.8907 32.0697 26.8907C31.9661 26.8907 31.8667 26.9319 31.7935 27.0051C31.7202 27.0784 31.6791 27.1777 31.6791 27.2813Z" fill="#C4A25F"/>
<path d="M11.9519 28.6855C10.798 28.6855 10.2048 29.2115 9.68141 29.6754C9.20125 30.1012 8.78656 30.4687 7.92906 30.4687C7.07156 30.4687 6.65687 30.1012 6.17672 29.6754C5.65344 29.2115 5.06016 28.6855 3.90625 28.6855C3.80265 28.6855 3.70329 28.7267 3.63004 28.8C3.55678 28.8732 3.51562 28.9726 3.51562 29.0762C3.51562 29.1798 3.55678 29.2791 3.63004 29.3524C3.70329 29.4256 3.80265 29.4668 3.90625 29.4668C4.76375 29.4668 5.17844 29.8343 5.65859 30.2601C6.18187 30.7241 6.77516 31.2499 7.92906 31.2499C9.08297 31.2499 9.67625 30.7241 10.1995 30.2601C10.6798 29.8343 11.0944 29.4668 11.9519 29.4668C12.0555 29.4668 12.1548 29.4256 12.2281 29.3524C12.3013 29.2791 12.3425 29.1798 12.3425 29.0762C12.3425 28.9726 12.3013 28.8732 12.2281 28.8C12.1548 28.7267 12.0555 28.6855 11.9519 28.6855Z" fill="#C4A25F"/>
<path d="M36.0937 28.6855C34.9395 28.6855 34.3461 29.2115 33.8226 29.6754C33.3423 30.101 32.9275 30.4687 32.0697 30.4687C31.2119 30.4687 30.797 30.101 30.3165 29.6754C29.7931 29.2115 29.1997 28.6855 28.0454 28.6855C26.8912 28.6855 26.2983 29.2115 25.7747 29.6754C25.2945 30.101 24.8795 30.4687 24.0219 30.4687C23.9183 30.4687 23.8189 30.5098 23.7456 30.5831C23.6724 30.6563 23.6312 30.7557 23.6312 30.8593C23.6312 30.9629 23.6724 31.0623 23.7456 31.1355C23.8189 31.2088 23.9183 31.2499 24.0219 31.2499C25.1761 31.2499 25.7694 30.7241 26.2928 30.2601C26.7731 29.8343 27.1878 29.4668 28.0454 29.4668C28.9031 29.4668 29.3181 29.8345 29.7984 30.2601C30.322 30.7241 30.9153 31.2499 32.0697 31.2499C33.224 31.2499 33.8173 30.7241 34.3408 30.2601C34.8211 29.8345 35.2359 29.4668 36.0937 29.4668C36.1973 29.4668 36.2967 29.4256 36.3699 29.3524C36.4432 29.2791 36.4844 29.1798 36.4844 29.0762C36.4844 28.9726 36.4432 28.8732 36.3699 28.8C36.2967 28.7267 36.1973 28.6855 36.0937 28.6855Z" fill="#C4A25F"/>
<path d="M15.8594 26.8863H12.9858C11.3178 26.8863 9.7919 26.2661 9.16753 25.3378C9.27756 25.2638 9.40867 25.2275 9.54112 25.2344H12.6172C12.7208 25.2344 12.8202 25.1932 12.8934 25.12C12.9667 25.0467 13.0078 24.9474 13.0078 24.8438C13.0078 24.7401 12.9667 24.6408 12.8934 24.5675C12.8202 24.4943 12.7208 24.4531 12.6172 24.4531H9.54112C9.05315 24.4531 8.63815 24.6583 8.45784 24.9883C8.39418 25.1019 8.36323 25.2309 8.36842 25.3609C8.3736 25.491 8.41472 25.6172 8.48721 25.7253C9.24503 26.9052 11.011 27.6675 12.9858 27.6675H15.8594C15.963 27.6675 16.0624 27.6263 16.1356 27.5531C16.2089 27.4798 16.25 27.3805 16.25 27.2769C16.25 27.1733 16.2089 27.0739 16.1356 27.0007C16.0624 26.9274 15.963 26.8863 15.8594 26.8863Z" fill="#C4A25F"/>
<path d="M20.8789 24.8438C20.8789 24.895 20.889 24.9458 20.9086 24.9932C20.9283 25.0406 20.957 25.0837 20.9933 25.12C21.0296 25.1562 21.0727 25.185 21.12 25.2046C21.1674 25.2243 21.2182 25.2344 21.2695 25.2344H30.7656C30.8981 25.2275 31.0292 25.2638 31.1392 25.3378C30.5162 26.2656 28.9897 26.8863 27.3208 26.8863H23.8281C23.7245 26.8863 23.6252 26.9274 23.5519 27.0007C23.4787 27.0739 23.4375 27.1733 23.4375 27.2769C23.4375 27.3805 23.4787 27.4798 23.5519 27.5531C23.6252 27.6263 23.7245 27.6675 23.8281 27.6675H27.3213C29.2964 27.6675 31.0622 26.9052 31.8197 25.7253C31.8923 25.6172 31.9335 25.4911 31.9387 25.361C31.944 25.2309 31.9131 25.1019 31.8494 24.9883C31.6691 24.6583 31.2539 24.4531 30.7661 24.4531H21.2695C21.1659 24.4531 21.0666 24.4943 20.9933 24.5675C20.9201 24.6408 20.8789 24.7401 20.8789 24.8438Z" fill="#C4A25F"/>
<path d="M18.2772 15.8728C18.6934 15.8727 19.1037 15.7742 19.4745 15.5852C19.8453 15.3961 20.1662 15.1221 20.4108 14.7853C20.758 14.3065 20.934 13.7248 20.9104 13.1338C20.8868 12.5428 20.665 11.9769 20.2806 11.5273C19.8963 11.0778 19.3718 10.7706 18.7917 10.6554C18.2115 10.5402 17.6095 10.6236 17.0825 10.8922C16.5556 11.1608 16.1343 11.599 15.8867 12.1361C15.6391 12.6732 15.5794 13.2781 15.7174 13.8532C15.8553 14.4284 16.1829 14.9404 16.6472 15.3067C17.1116 15.6731 17.6857 15.8725 18.2772 15.8728ZM17.9875 11.4087C18.0841 11.3934 18.1818 11.3857 18.2797 11.3856C18.7586 11.3857 19.2189 11.5711 19.5641 11.9031C19.9093 12.235 20.1127 12.6876 20.1315 13.1662C20.1504 13.6447 19.9833 14.112 19.6653 14.4701C19.3473 14.8281 18.903 15.0492 18.4256 15.087C17.9482 15.1248 17.4747 14.9763 17.1043 14.6727C16.7339 14.3691 16.4954 13.934 16.4388 13.4584C16.3822 12.9829 16.5118 12.5039 16.8005 12.1218C17.0892 11.7397 17.5146 11.4841 17.9875 11.4087Z" fill="#C4A25F"/>
<path d="M23.6183 29.4052L21.4137 25.7627C21.2863 25.5512 21.0947 25.3859 20.8669 25.2907L16.2887 23.3665L18.4706 18.929L20.9081 20.5852C21.1283 20.7347 21.3928 20.8048 21.6581 20.7838L25.3967 20.4838C25.5497 20.4715 25.6987 20.4292 25.8353 20.3593C25.9719 20.2894 26.0934 20.1932 26.1929 20.0764C26.2923 19.9595 26.3678 19.8242 26.4149 19.6782C26.4621 19.5321 26.48 19.3782 26.4677 19.2253C26.4554 19.0723 26.4131 18.9233 26.3432 18.7867C26.2733 18.6501 26.1771 18.5286 26.0603 18.4291C25.9434 18.3297 25.8081 18.2542 25.6621 18.2071C25.5161 18.1599 25.3622 18.142 25.2092 18.1543L21.8811 18.4215L18.6719 16.2394C18.5336 16.1455 18.3767 16.0823 18.2119 16.0542C18.0471 16.0261 17.8782 16.0337 17.7166 16.0765C17.555 16.1192 17.4044 16.1962 17.2751 16.3021C17.1457 16.408 17.0406 16.5405 16.9669 16.6905L13.6445 23.4477C13.5742 23.5906 13.5338 23.7464 13.5259 23.9055C13.518 24.0645 13.5427 24.2236 13.5985 24.3727C13.6543 24.5219 13.74 24.6581 13.8504 24.773C13.9608 24.8878 14.0935 24.9788 14.2403 25.0405L19.6114 27.298L21.6189 30.6154C21.7116 30.7696 21.839 30.9001 21.9908 30.9966C22.1427 31.0931 22.3149 31.153 22.4939 31.1715C22.5362 31.176 22.5788 31.1783 22.6214 31.1783C22.8283 31.1779 23.0313 31.1224 23.2098 31.0178C23.3882 30.9131 23.5357 30.7629 23.637 30.5825C23.7384 30.4022 23.79 30.1981 23.7867 29.9913C23.7833 29.7844 23.7251 29.5822 23.618 29.4052H23.6183ZM22.9947 30.1029C22.9761 30.177 22.9361 30.244 22.8796 30.2955C22.8231 30.347 22.7526 30.3806 22.6771 30.3922C22.6015 30.4037 22.5242 30.3927 22.4549 30.3605C22.3856 30.3282 22.3273 30.2762 22.2875 30.211L20.2139 26.7847C20.1712 26.7141 20.1072 26.6588 20.0311 26.6269L14.5428 24.3204C14.4942 24.2999 14.4502 24.2697 14.4137 24.2316C14.3771 24.1935 14.3488 24.1484 14.3303 24.0989C14.3118 24.0495 14.3037 23.9968 14.3063 23.9441C14.3089 23.8914 14.3223 23.8397 14.3456 23.7924L17.6675 17.0352C17.692 16.9856 17.7268 16.9418 17.7697 16.9067C17.8126 16.8717 17.8624 16.8462 17.9159 16.8321C17.9482 16.8234 17.9815 16.8191 18.015 16.8191C18.0926 16.8192 18.1684 16.8424 18.2326 16.886L21.5566 19.1452C21.6301 19.1953 21.7186 19.2188 21.8073 19.2116L25.2728 18.9333C25.3235 18.9292 25.3745 18.9351 25.4229 18.9507C25.4713 18.9662 25.5161 18.9912 25.5549 19.0242C25.5936 19.0571 25.6255 19.0974 25.6486 19.1427C25.6718 19.1879 25.6858 19.2373 25.6898 19.288C25.698 19.3903 25.6652 19.4917 25.5986 19.5698C25.5321 19.648 25.4373 19.6966 25.335 19.7049L21.5967 20.005C21.5087 20.0119 21.4209 19.9887 21.3478 19.9391L18.5378 18.0296C18.4916 17.9981 18.4391 17.977 18.384 17.9676C18.3289 17.9582 18.2724 17.9607 18.2184 17.9749C18.1643 17.9892 18.114 18.0149 18.0707 18.0503C18.0275 18.0858 17.9923 18.13 17.9676 18.1802L15.4047 23.3936C15.3812 23.4414 15.3677 23.4935 15.365 23.5467C15.3624 23.5998 15.3707 23.653 15.3893 23.7029C15.4079 23.7527 15.4366 23.7982 15.4735 23.8366C15.5103 23.875 15.5547 23.9055 15.6037 23.9261L20.5641 26.0108C20.6396 26.0423 20.7032 26.097 20.7455 26.1671L22.95 29.8094C22.9767 29.8528 22.9945 29.9012 23.0022 29.9516C23.0098 30.002 23.0073 30.0535 22.9947 30.1029Z" fill="#C4A25F"/>
<path d="M22.3906 22.1886C22.3472 22.1612 22.2988 22.1427 22.2483 22.134C22.1977 22.1254 22.1459 22.1267 22.0959 22.1381C22.0459 22.1494 21.9986 22.1705 21.9567 22.2002C21.9148 22.2298 21.8792 22.2674 21.8518 22.3108L17.6518 28.9737C17.2477 28.819 16.8027 28.8076 16.3912 28.9416C15.9797 29.0755 15.6266 29.3467 15.3911 29.7097L14.1014 31.6956C13.9661 31.9039 13.8733 32.1367 13.828 32.3809C13.7828 32.6251 13.7861 32.8758 13.8377 33.1186C13.8894 33.3615 13.9884 33.5919 14.129 33.7965C14.2697 34.0012 14.4493 34.1761 14.6576 34.3113C14.8658 34.4465 15.0987 34.5394 15.3428 34.5847C15.587 34.6299 15.8377 34.6266 16.0806 34.575C16.3235 34.5233 16.5538 34.4243 16.7585 34.2837C16.9631 34.143 17.138 33.9634 17.2733 33.7551L18.5629 31.7692C18.799 31.4046 18.9025 30.9701 18.8563 30.5382C18.81 30.1064 18.6168 29.7036 18.3089 29.3973L22.5133 22.7273C22.5406 22.6839 22.5591 22.6355 22.5677 22.5849C22.5763 22.5344 22.5749 22.4826 22.5635 22.4325C22.5521 22.3825 22.531 22.3352 22.5013 22.2934C22.4717 22.2515 22.434 22.2159 22.3906 22.1886ZM17.9062 31.3437L16.6165 33.3297C16.4563 33.5765 16.2045 33.7495 15.9167 33.8107C15.6288 33.8719 15.3285 33.8162 15.0817 33.6559C14.8349 33.4957 14.6619 33.2439 14.6007 32.9561C14.5395 32.6682 14.5952 32.3679 14.7554 32.1211L16.0451 30.1351C16.1245 30.0129 16.2271 29.9076 16.3472 29.825C16.4673 29.7425 16.6025 29.6844 16.745 29.6541C16.8875 29.6238 17.0346 29.6219 17.1779 29.6485C17.3211 29.675 17.4578 29.7295 17.58 29.8089C17.7022 29.8882 17.8075 29.9909 17.8901 30.111C17.9726 30.2311 18.0307 30.3662 18.061 30.5087C18.0913 30.6513 18.0932 30.7984 18.0666 30.9416C18.0401 31.0849 17.9856 31.2215 17.9062 31.3437Z" fill="#65C1D6"/>
</svg>
