<svg width="40" height="36" viewBox="0 0 40 36" fill="none" xmlns="http://www.w3.org/2000/svg">
<path fill-rule="evenodd" clip-rule="evenodd" d="M23.9541 27.8306C23.1519 27.8306 21.7412 25.3385 17.7467 27.7277C17.5908 27.8205 17.3949 27.8163 17.2444 27.7153C15.6593 26.6533 12.7901 26.0995 11.7188 27.6091C11.5681 27.8217 11.2728 27.8704 11.0618 27.7178C9.99026 26.9444 7.66267 25.8529 6.52314 27.2634C6.48892 27.3053 6.4479 27.341 6.40126 27.3696C4.55766 28.4901 2.38383 26.8682 3.16594 26.2164C3.36375 26.051 3.65906 26.0772 3.82453 26.2743C3.91524 26.3798 4.71118 27.247 5.85048 26.606C7.31064 24.899 9.77253 25.7737 11.2484 26.7128C12.7725 25.1507 15.694 25.6821 17.5142 26.7771C19.9062 25.4125 21.8068 25.4151 23.9429 26.7911C25.8709 25.4721 28.1588 25.4648 30.0467 26.7724C34.232 24.5378 34.3391 26.6524 36.6681 26.8591C37.9199 26.9702 38.1615 25.6828 38.7674 26.2115C39.4593 26.8148 37.7826 27.8986 36.5858 27.7926C33.7764 27.5442 34.3035 25.4805 30.2366 27.7357C30.0735 27.8261 29.8721 27.8107 29.7235 27.697C28.0534 26.4112 25.951 26.4255 24.2375 27.7338C24.1545 27.7987 24.0545 27.8308 23.9541 27.8308V27.8306Z" fill="#C4A25F"/>
<path fill-rule="evenodd" clip-rule="evenodd" d="M23.9542 31.7331C23.1538 31.7331 21.7332 29.2401 17.7467 31.6303C17.5908 31.7235 17.3949 31.7191 17.2444 31.6178C15.6584 30.5559 12.7899 30.002 11.7188 31.5114C11.5686 31.7231 11.2739 31.773 11.0623 31.6204C9.99074 30.847 7.66292 29.7559 6.52361 31.166C6.4894 31.2079 6.44838 31.244 6.40174 31.2721C4.54853 32.3908 2.38711 30.7699 3.16641 30.119C3.36423 29.9533 3.65884 29.9798 3.82501 30.1767C3.91454 30.2807 4.71095 31.1503 5.85119 30.5088C7.31159 28.8018 9.77324 29.6767 11.2489 30.6152C12.7732 29.0524 15.6943 29.5839 17.5147 30.6796C19.9058 29.3151 21.8063 29.3174 23.9434 30.6937C25.8713 29.3739 28.1589 29.3667 30.0468 30.6749C34.2301 28.4411 34.334 30.5512 36.6683 30.7617C37.9206 30.8749 38.1613 29.5842 38.7676 30.1136C39.4591 30.7174 37.7833 31.8013 36.5861 31.6952C33.779 31.4463 34.2986 29.3826 30.2368 31.638C30.0737 31.7287 29.8724 31.7135 29.7238 31.5993C28.0536 30.314 25.9515 30.3278 24.2377 31.6363C24.1541 31.701 24.0538 31.7334 23.9537 31.7334L23.9542 31.7331Z" fill="#C4A25F"/>
<path fill-rule="evenodd" clip-rule="evenodd" d="M23.9541 35.6348C23.1617 35.6348 21.7322 33.1429 17.7467 35.5319C17.5908 35.625 17.3949 35.6205 17.2444 35.5195C15.6593 34.4575 12.7901 33.9037 11.7188 35.4133C11.5685 35.6252 11.2739 35.6751 11.0623 35.5226C9.99071 34.7482 7.66242 33.6581 6.52359 35.0681C6.48984 35.1101 6.44836 35.1461 6.40172 35.1743C4.5478 36.2937 2.38709 34.6713 3.16639 34.0211C3.3642 33.8557 3.65881 33.8815 3.82499 34.0788C3.91452 34.1833 4.71093 35.0526 5.85117 34.4109C7.31133 32.7044 9.77274 33.5789 11.2488 34.5173C12.7728 32.9545 15.6947 33.4865 17.5146 34.5815C19.9067 33.2175 21.8072 33.2196 23.9433 34.5956C25.8706 33.2763 28.1593 33.2686 30.0467 34.5771C34.2313 32.3425 34.3365 34.4547 36.6683 34.6638C37.9204 34.7761 38.1611 33.4868 38.7676 34.0158C39.459 34.6188 37.7837 35.7037 36.5861 35.5973C33.7752 35.3477 34.3035 33.285 30.2368 35.5399C30.0737 35.6306 29.8724 35.6151 29.7238 35.5012C28.0536 34.2159 25.9515 34.2293 24.2377 35.538C24.1541 35.6027 24.0537 35.6353 23.9537 35.6353L23.9541 35.6348Z" fill="#C4A25F"/>
<path fill-rule="evenodd" clip-rule="evenodd" d="M26.4664 21.9378C26.3265 21.9378 26.1885 21.8757 26.0956 21.7562L23.8691 18.8886H8.48979C8.35526 18.8886 8.22776 18.8307 8.1387 18.7304L3.53743 13.5298C3.27259 13.2308 3.48188 12.7564 3.88196 12.7505L6.64127 12.7109C6.7901 12.7128 6.92721 12.7756 7.01768 12.8912L9.57636 16.1727H22.7178C22.8624 16.1727 22.9991 16.2397 23.0881 16.3541L26.8363 21.1818C27.0777 21.4928 26.8447 21.9378 26.4662 21.9378H26.4664ZM8.7012 17.9511H23.1416L22.4886 17.1099H9.34738C9.20277 17.1099 9.06659 17.0431 8.97753 16.9295L6.42143 13.6515L4.91603 13.6731L8.70144 17.9511H8.7012Z" fill="#C4A25F"/>
<path fill-rule="evenodd" clip-rule="evenodd" d="M5.85589 21.9373C5.45886 21.9373 5.23784 21.4664 5.50128 21.1617L8.13566 18.1132C8.53949 17.6461 9.24825 18.2597 8.84512 18.7261L6.21073 21.7748C6.11792 21.8824 5.98737 21.9373 5.85589 21.9373Z" fill="#C4A25F"/>
<path fill-rule="evenodd" clip-rule="evenodd" d="M26.8124 21.9375H3.54237C2.92549 21.9375 2.92549 21 3.54237 21H26.8124C27.4293 21 27.4295 21.9375 26.8124 21.9375Z" fill="#C4A25F"/>
<path fill-rule="evenodd" clip-rule="evenodd" d="M0.860857 11.3874C0.417652 11.3874 0.378746 10.9302 0.276792 10.5493C-1.10298 5.39891 2.80782 0.364746 8.08034 0.364746C11.7429 0.364746 14.9618 2.83038 15.9076 6.36125C15.9987 6.70087 16.2474 7.28165 15.7074 7.42626L0.860857 11.3877V11.3874ZM8.08057 1.30155C3.45446 1.30155 -0.0398496 5.68461 1.19273 10.3442L15.0125 6.64133C14.1797 3.4932 11.3363 1.30155 8.08057 1.30155Z" fill="#C4A25F"/>
<path fill-rule="evenodd" clip-rule="evenodd" d="M4.8089 10.3298C4.65585 10.3298 4.50608 10.2553 4.41632 10.1179C2.04303 6.49355 5.69132 0.89032 5.72835 0.834305C5.8589 0.636726 6.11601 0.567819 6.32859 0.673054C6.38882 0.703054 12.3464 3.79822 12.1071 8.05707C12.0724 8.6784 11.1368 8.61816 11.1713 8.00457C11.3435 4.93682 7.52344 2.44587 6.28804 1.72376C5.57976 2.96689 3.51749 7.03449 5.19984 9.60442C5.40656 9.91989 5.17195 10.3296 4.80866 10.3296L4.8089 10.3298Z" fill="#C4A25F"/>
<path fill-rule="evenodd" clip-rule="evenodd" d="M10.2858 17.1103C10.0789 17.1103 9.88926 16.9723 9.83325 16.7627L7.77121 9.067C7.61137 8.47099 8.51723 8.22794 8.67707 8.82442L10.7391 16.5202C10.8193 16.8188 10.5933 17.1103 10.2858 17.1103Z" fill="#C4A25F"/>
<path fill-rule="evenodd" clip-rule="evenodd" d="M23.8754 8.16433C22.6346 8.16433 21.6256 7.15488 21.6256 5.91432C21.6256 4.67377 22.6351 3.66455 23.8754 3.66455C25.1159 3.66455 26.1256 4.67401 26.1256 5.91432C26.1256 7.15511 25.1162 8.16433 23.8754 8.16433ZM23.8754 4.60205C22.1483 4.60205 22.1487 7.22706 23.8754 7.22706C25.6027 7.22706 25.6027 4.60205 23.8754 4.60205Z" fill="#C4A25F"/>
<path fill-rule="evenodd" clip-rule="evenodd" d="M23.8754 3.43837C23.237 3.43837 23.4067 2.54493 23.4067 1.75531C23.4067 1.1382 24.3442 1.1382 24.3442 1.75531C24.3442 2.54586 24.5139 3.43837 23.8754 3.43837Z" fill="#C4A25F"/>
<path fill-rule="evenodd" clip-rule="evenodd" d="M25.9581 4.301C25.5448 4.301 25.3299 3.79733 25.6269 3.50037C26.1856 2.94186 26.6973 2.19021 27.1487 2.64162C27.6006 3.0935 26.8475 3.60397 26.2892 4.16342C26.1981 4.25506 26.0781 4.301 25.9581 4.301Z" fill="#C4A25F"/>
<path fill-rule="evenodd" clip-rule="evenodd" d="M28.0351 6.38324C27.2455 6.38324 26.3523 6.55293 26.3523 5.91449C26.3523 5.27605 27.246 5.44573 28.0351 5.44573C28.652 5.44573 28.6522 6.38324 28.0351 6.38324Z" fill="#C4A25F"/>
<path fill-rule="evenodd" clip-rule="evenodd" d="M26.8166 9.32446C26.4917 9.32446 25.9958 8.69891 25.626 8.32883C25.1895 7.89195 25.8528 7.22937 26.2892 7.66578C26.8475 8.22406 27.6001 8.73617 27.1482 9.18758C27.0571 9.27875 26.9368 9.32469 26.8168 9.32469L26.8166 9.32446Z" fill="#C4A25F"/>
<path fill-rule="evenodd" clip-rule="evenodd" d="M23.8754 10.5429C23.237 10.5429 23.4067 9.64924 23.4067 8.85963C23.4067 8.24275 24.3442 8.24275 24.3442 8.85963C24.3442 9.65018 24.5139 10.5429 23.8754 10.5429Z" fill="#C4A25F"/>
<path fill-rule="evenodd" clip-rule="evenodd" d="M20.9344 9.32462C20.5201 9.32462 20.3068 8.82048 20.6028 8.52446C21.1611 7.96618 21.6732 7.21383 22.1246 7.66571C22.5755 8.11711 21.826 8.62852 21.2658 9.18751C21.1742 9.27868 21.0542 9.32462 20.9344 9.32462Z" fill="#C4A25F"/>
<path fill-rule="evenodd" clip-rule="evenodd" d="M20.9307 6.38324C20.1411 6.38324 19.2476 6.55293 19.2476 5.91449C19.2476 5.27605 20.1411 5.44573 20.9307 5.44573C21.5478 5.44573 21.5478 6.38324 20.9307 6.38324Z" fill="#C4A25F"/>
<path fill-rule="evenodd" clip-rule="evenodd" d="M21.7932 4.30132C21.4682 4.30132 20.9743 3.67624 20.6028 3.30523C20.166 2.86882 20.8297 2.20577 21.2659 2.64241C21.8249 3.20187 22.5765 3.71234 22.1246 4.16375C22.033 4.25539 21.9128 4.30132 21.7932 4.30132Z" fill="#C4A25F"/>
<path fill-rule="evenodd" clip-rule="evenodd" d="M38.5422 21.9375H26.8124C26.1952 21.9375 26.1955 21 26.8124 21H38.5422C39.159 21 39.159 21.9375 38.5422 21.9375Z" fill="#C4A25F"/>
<path fill-rule="evenodd" clip-rule="evenodd" d="M30.4639 25.826C30.2052 25.826 29.9952 25.6158 29.9952 25.3573V15.0886C29.9952 13.8759 30.9814 12.8901 32.1939 12.8901C34.2231 12.8901 34.9834 15.5573 33.924 15.5573C33.6655 15.5573 33.4553 15.3473 33.4553 15.0886C33.4553 13.4283 30.9334 13.4285 30.9334 15.0886V25.3571C30.9327 25.6158 30.7224 25.826 30.4639 25.826Z" fill="#C4A25F"/>
<path fill-rule="evenodd" clip-rule="evenodd" d="M36.0709 25.826C35.8122 25.826 35.6022 25.6158 35.6022 25.3573V15.0886C35.6022 13.8759 36.5884 12.8901 37.8009 12.8901C39.8298 12.8901 40.5904 15.5573 39.5308 15.5573C39.2723 15.5573 39.062 15.3473 39.062 15.0886C39.062 13.4285 36.5401 13.428 36.5401 15.0886V25.3571C36.5397 25.6158 36.3294 25.826 36.0707 25.826H36.0709Z" fill="#C4A25F"/>
<path fill-rule="evenodd" clip-rule="evenodd" d="M36.0709 17.6421H30.4637C29.8466 17.6421 29.8468 16.7046 30.4637 16.7046H36.0709C36.688 16.7046 36.688 17.6421 36.0709 17.6421Z" fill="#C4A25F"/>
<path fill-rule="evenodd" clip-rule="evenodd" d="M36.0709 19.79H30.4637C29.8466 19.79 29.8468 18.8525 30.4637 18.8525H36.0709C36.688 18.8525 36.688 19.79 36.0709 19.79Z" fill="#C4A25F"/>
<path fill-rule="evenodd" clip-rule="evenodd" d="M36.0709 21.9375H30.4637C29.8466 21.9375 29.8468 21 30.4637 21H36.0709C36.688 21 36.688 21.9375 36.0709 21.9375Z" fill="#C4A25F"/>
<path fill-rule="evenodd" clip-rule="evenodd" d="M36.0709 24.0845H30.4637C29.8466 24.0845 29.8468 23.147 30.4637 23.147H36.0709C36.688 23.147 36.688 24.0845 36.0709 24.0845Z" fill="#C4A25F"/>
</svg>
