<svg width="81" height="80" viewBox="0 0 81 80" fill="none" xmlns="http://www.w3.org/2000/svg">
<path d="M44.25 40.625H36.75C36.5842 40.625 36.4253 40.6908 36.3081 40.8081C36.1908 40.9253 36.125 41.0842 36.125 41.25V66.25C36.125 66.4158 36.1908 66.5747 36.3081 66.6919C36.4253 66.8092 36.5842 66.875 36.75 66.875H44.25C44.4158 66.875 44.5747 66.8092 44.6919 66.6919C44.8092 66.5747 44.875 66.4158 44.875 66.25V41.25C44.875 41.0842 44.8092 40.9253 44.6919 40.8081C44.5747 40.6908 44.4158 40.625 44.25 40.625ZM43.625 65.625H37.375V41.875H43.625V65.625Z" fill="#C4AB82"/>
<path d="M74.5875 29.1475C74.4987 29.0913 74.3972 29.0584 74.2923 29.0519C74.1874 29.0453 74.0826 29.0653 73.9875 29.11L54.875 38.02V28.5C54.8751 28.3813 54.8413 28.265 54.7775 28.1649C54.7137 28.0648 54.6226 27.9851 54.515 27.935L34.875 18.775V11.25C34.875 11.0842 34.8092 10.9253 34.6919 10.8081C34.5747 10.6908 34.4158 10.625 34.25 10.625H11.75C11.5842 10.625 11.4253 10.6908 11.3081 10.8081C11.1908 10.9253 11.125 11.0842 11.125 11.25V68.75C11.125 68.9158 11.1908 69.0747 11.3081 69.1919C11.4253 69.3092 11.5842 69.375 11.75 69.375H74.25C74.4158 69.375 74.5747 69.3092 74.6919 69.1919C74.8092 69.0747 74.875 68.9158 74.875 68.75V29.675C74.8746 29.5701 74.8481 29.467 74.7979 29.3749C74.7477 29.2829 74.6754 29.2047 74.5875 29.1475ZM53.625 28.8975V50.625H47.375V38.75C47.375 38.5842 47.3092 38.4253 47.1919 38.3081C47.0747 38.1908 46.9158 38.125 46.75 38.125H34.875V20.155L53.625 28.8975ZM12.375 11.875H33.625V68.125H12.375V11.875ZM34.875 39.375H46.125V68.125H34.875V39.375ZM47.375 51.875H58.625V68.125H57.375V53.75C57.375 53.5842 57.3092 53.4253 57.1919 53.3081C57.0747 53.1908 56.9158 53.125 56.75 53.125H49.25C49.0842 53.125 48.9253 53.1908 48.8081 53.3081C48.6908 53.4253 48.625 53.5842 48.625 53.75V68.125H47.375V51.875ZM49.875 68.125V54.375H56.125V68.125H49.875ZM73.625 68.125H59.875V51.25C59.875 51.0842 59.8092 50.9253 59.6919 50.8081C59.5747 50.6908 59.4158 50.625 59.25 50.625H54.875V39.4L73.625 30.65V68.125Z" fill="#C4AB82"/>
<path d="M61.75 66.8751H71.75C71.9158 66.8751 72.0747 66.8092 72.1919 66.692C72.3092 66.5748 72.375 66.4158 72.375 66.2501V33.6001C72.375 33.4948 72.3484 33.3913 72.2977 33.2991C72.247 33.2069 72.1738 33.129 72.085 33.0726C71.9965 33.017 71.8956 32.9843 71.7913 32.9774C71.687 32.9704 71.5826 32.9893 71.4875 33.0326L61.4875 37.7076C61.3798 37.7584 61.2886 37.8387 61.2244 37.9391C61.1603 38.0395 61.1258 38.1559 61.125 38.2751V66.2501C61.125 66.4158 61.1908 66.5748 61.3081 66.692C61.4253 66.8092 61.5842 66.8751 61.75 66.8751ZM67.375 51.8751H71.125V58.1251H67.375V51.8751ZM66.125 58.1251H62.375V51.8751H66.125V58.1251ZM71.125 50.6251H67.375V44.3751H71.125V50.6251ZM66.125 50.6251H62.375V44.3751H66.125V50.6251ZM62.375 59.3751H66.125V65.6251H62.375V59.3751ZM67.375 65.6251V59.3751H71.125V65.6251H67.375ZM71.125 43.1251H67.375V36.3351L71.125 34.5851V43.1251ZM66.125 36.9201V43.1251H62.375V38.6726L66.125 36.9201Z" fill="#C4AB82"/>
<path d="M21.75 13.125H16.75C16.5842 13.125 16.4253 13.1908 16.3081 13.3081C16.1908 13.4253 16.125 13.5842 16.125 13.75V28.75C16.125 28.9158 16.1908 29.0747 16.3081 29.1919C16.4253 29.3092 16.5842 29.375 16.75 29.375H21.75C21.9158 29.375 22.0747 29.3092 22.1919 29.1919C22.3092 29.0747 22.375 28.9158 22.375 28.75V13.75C22.375 13.5842 22.3092 13.4253 22.1919 13.3081C22.0747 13.1908 21.9158 13.125 21.75 13.125ZM21.125 28.125H17.375V14.375H21.125V28.125Z" fill="#C4AB82"/>
<path d="M29.25 13.125H24.25C24.0842 13.125 23.9253 13.1908 23.8081 13.3081C23.6908 13.4253 23.625 13.5842 23.625 13.75V28.75C23.625 28.9158 23.6908 29.0747 23.8081 29.1919C23.9253 29.3092 24.0842 29.375 24.25 29.375H29.25C29.4158 29.375 29.5747 29.3092 29.6919 29.1919C29.8092 29.0747 29.875 28.9158 29.875 28.75V13.75C29.875 13.5842 29.8092 13.4253 29.6919 13.3081C29.5747 13.1908 29.4158 13.125 29.25 13.125ZM28.625 28.125H24.875V14.375H28.625V28.125Z" fill="#C4AB82"/>
<path d="M21.75 30.625H16.75C16.5842 30.625 16.4253 30.6908 16.3081 30.8081C16.1908 30.9253 16.125 31.0842 16.125 31.25V46.25C16.125 46.4158 16.1908 46.5747 16.3081 46.6919C16.4253 46.8092 16.5842 46.875 16.75 46.875H21.75C21.9158 46.875 22.0747 46.8092 22.1919 46.6919C22.3092 46.5747 22.375 46.4158 22.375 46.25V31.25C22.375 31.0842 22.3092 30.9253 22.1919 30.8081C22.0747 30.6908 21.9158 30.625 21.75 30.625ZM21.125 45.625H17.375V31.875H21.125V45.625Z" fill="#C4AB82"/>
<path d="M29.25 30.625H24.25C24.0842 30.625 23.9253 30.6908 23.8081 30.8081C23.6908 30.9253 23.625 31.0842 23.625 31.25V46.25C23.625 46.4158 23.6908 46.5747 23.8081 46.6919C23.9253 46.8092 24.0842 46.875 24.25 46.875H29.25C29.4158 46.875 29.5747 46.8092 29.6919 46.6919C29.8092 46.5747 29.875 46.4158 29.875 46.25V31.25C29.875 31.0842 29.8092 30.9253 29.6919 30.8081C29.5747 30.6908 29.4158 30.625 29.25 30.625ZM28.625 45.625H24.875V31.875H28.625V45.625Z" fill="#C4AB82"/>
<path d="M21.75 48.125H16.75C16.5842 48.125 16.4253 48.1908 16.3081 48.3081C16.1908 48.4253 16.125 48.5842 16.125 48.75V63.75C16.125 63.9158 16.1908 64.0747 16.3081 64.1919C16.4253 64.3092 16.5842 64.375 16.75 64.375H21.75C21.9158 64.375 22.0747 64.3092 22.1919 64.1919C22.3092 64.0747 22.375 63.9158 22.375 63.75V48.75C22.375 48.5842 22.3092 48.4253 22.1919 48.3081C22.0747 48.1908 21.9158 48.125 21.75 48.125ZM21.125 63.125H17.375V49.375H21.125V63.125Z" fill="#C4AB82"/>
<path d="M29.25 48.125H24.25C24.0842 48.125 23.9253 48.1908 23.8081 48.3081C23.6908 48.4253 23.625 48.5842 23.625 48.75V63.75C23.625 63.9158 23.6908 64.0747 23.8081 64.1919C23.9253 64.3092 24.0842 64.375 24.25 64.375H29.25C29.4158 64.375 29.5747 64.3092 29.6919 64.1919C29.8092 64.0747 29.875 63.9158 29.875 63.75V48.75C29.875 48.5842 29.8092 48.4253 29.6919 48.3081C29.5747 48.1908 29.4158 48.125 29.25 48.125ZM28.625 63.125H24.875V49.375H28.625V63.125Z" fill="#C4AB82"/>
</svg>
