<svg width="80" height="80" viewBox="0 0 80 80" fill="none" xmlns="http://www.w3.org/2000/svg">
<path d="M56.0001 74.6667H18.6668C17.7844 74.6667 17.0667 73.949 17.0667 73.0664V65.6001C17.0667 64.7175 17.7844 63.9998 18.6668 63.9998H56.0001C56.8821 63.9998 57.5999 64.7175 57.5999 65.6001V73.0664C57.5999 73.949 56.8821 74.6667 56.0001 74.6667ZM18.6668 65.0663C18.3725 65.0663 18.1332 65.3055 18.1332 65.6001V73.0664C18.1332 73.361 18.3725 73.6002 18.6668 73.6002H56.0001C56.2941 73.6002 56.5334 73.361 56.5334 73.0664V65.6001C56.5334 65.3055 56.2941 65.0663 56.0001 65.0663H18.6668Z" fill="#C4AB82"/>
<path d="M22.3999 69.333C22.1052 69.333 21.8666 69.0943 21.8666 68.7997V64.533C21.8666 64.2384 22.1052 63.9998 22.3999 63.9998C22.6945 63.9998 22.9331 64.2384 22.9331 64.533V68.7997C22.9331 69.0943 22.6945 69.333 22.3999 69.333Z" fill="#C4AB82"/>
<path d="M26.1333 69.333C25.8386 69.333 25.6 69.0943 25.6 68.7997V64.533C25.6 64.2384 25.8386 63.9998 26.1333 63.9998C26.4279 63.9998 26.6665 64.2384 26.6665 64.533V68.7997C26.6665 69.0943 26.4279 69.333 26.1333 69.333Z" fill="#C4AB82"/>
<path d="M29.8667 69.333C29.572 69.333 29.3334 69.0943 29.3334 68.7997V64.533C29.3334 64.2384 29.572 63.9998 29.8667 63.9998C30.1613 63.9998 30.3999 64.2384 30.3999 64.533V68.7997C30.3999 69.0943 30.1613 69.333 29.8667 69.333Z" fill="#C4AB82"/>
<path d="M33.5998 69.333C33.3052 69.333 33.0665 69.0943 33.0665 68.7997V64.533C33.0665 64.2384 33.3052 63.9998 33.5998 63.9998C33.8944 63.9998 34.1331 64.2384 34.1331 64.533V68.7997C34.1331 69.0943 33.8944 69.333 33.5998 69.333Z" fill="#C4AB82"/>
<path d="M37.3332 69.333C37.0386 69.333 36.7999 69.0943 36.7999 68.7997V64.533C36.7999 64.2384 37.0386 63.9998 37.3332 63.9998C37.6278 63.9998 37.8665 64.2384 37.8665 64.533V68.7997C37.8665 69.0943 37.6278 69.333 37.3332 69.333Z" fill="#C4AB82"/>
<path d="M41.0667 69.333C40.7721 69.333 40.5334 69.0943 40.5334 68.7997V64.533C40.5334 64.2384 40.7721 63.9998 41.0667 63.9998C41.3613 63.9998 41.6 64.2384 41.6 64.533V68.7997C41.6 69.0943 41.3613 69.333 41.0667 69.333Z" fill="#C4AB82"/>
<path d="M44.8001 69.333C44.5055 69.333 44.2668 69.0943 44.2668 68.7997V64.533C44.2668 64.2384 44.5055 63.9998 44.8001 63.9998C45.0947 63.9998 45.3334 64.2384 45.3334 64.533V68.7997C45.3334 69.0943 45.0947 69.333 44.8001 69.333Z" fill="#C4AB82"/>
<path d="M48.5332 69.333C48.2385 69.333 47.9999 69.0943 47.9999 68.7997V64.533C47.9999 64.2384 48.2385 63.9998 48.5332 63.9998C48.8278 63.9998 49.0664 64.2384 49.0664 64.533V68.7997C49.0664 69.0943 48.8278 69.333 48.5332 69.333Z" fill="#C4AB82"/>
<path d="M52.2667 69.333C51.9721 69.333 51.7334 69.0943 51.7334 68.7997V64.533C51.7334 64.2384 51.9721 63.9998 52.2667 63.9998C52.5613 63.9998 52.8 64.2384 52.8 64.533V68.7997C52.8 69.0943 52.5613 69.333 52.2667 69.333Z" fill="#C4AB82"/>
<path d="M74.1333 69.8662H64.5334C64.2388 69.8662 64.0001 69.6275 64.0001 69.3329V43.1995C64.0001 42.9049 64.2388 42.6663 64.5334 42.6663H74.1333C74.4279 42.6663 74.6666 42.9049 74.6666 43.1995V69.3329C74.6665 69.6275 74.4279 69.8662 74.1333 69.8662ZM65.0666 68.7996H73.6V43.7328H65.0666V68.7996Z" fill="#C4AB82"/>
<path d="M74.1339 43.7329C73.9646 43.7329 73.7982 43.6525 73.6947 43.5031L69.3334 37.2034L64.9721 43.5031C64.8045 43.7447 64.4721 43.8066 64.2299 43.6382C63.9876 43.4703 63.9273 43.1382 64.0948 42.896L68.8947 35.963C69.0941 35.6749 69.5726 35.6749 69.772 35.963L74.572 42.896C74.7395 43.1382 74.6791 43.4703 74.4369 43.6382C74.3443 43.7025 74.2384 43.7329 74.1339 43.7329Z" fill="#C4AB82"/>
<path d="M72 74.6667H66.6667C65.1964 74.6667 64.0001 73.4705 64.0001 71.9998V69.333C64.0001 69.0384 64.2388 68.7997 64.5334 68.7997H74.1333C74.4279 68.7997 74.6666 69.0384 74.6666 69.333V71.9998C74.6666 73.4705 73.4703 74.6667 72 74.6667ZM65.0667 69.8662V71.9998C65.0667 72.8825 65.7844 73.6002 66.6668 73.6002H72C72.8823 73.6002 73.6001 72.8825 73.6001 71.9998V69.8662H65.0667Z" fill="#C4AB82"/>
<path d="M67.7332 67.1999C67.4386 67.1999 67.2 66.9612 67.2 66.6666V45.8664C67.2 45.5718 67.4386 45.3331 67.7332 45.3331C68.0278 45.3331 68.2665 45.5718 68.2665 45.8664V66.6666C68.2665 66.9612 68.0278 67.1999 67.7332 67.1999Z" fill="#C4AB82"/>
<path d="M70.9334 67.1999C70.6388 67.1999 70.4001 66.9612 70.4001 66.6666V45.8664C70.4001 45.5718 70.6388 45.3331 70.9334 45.3331C71.228 45.3331 71.4667 45.5718 71.4667 45.8664V66.6666C71.4667 66.9612 71.228 67.1999 70.9334 67.1999Z" fill="#C4AB82"/>
<path d="M20.2664 48.5333C19.9718 48.5333 19.7332 48.2946 19.7332 48V22.9332C19.7332 22.6386 19.9718 22.3999 20.2664 22.3999C20.561 22.3999 20.7997 22.6386 20.7997 22.9332V48C20.7997 48.2946 20.561 48.5333 20.2664 48.5333Z" fill="#C4AB82"/>
<path d="M22.3998 25.5995C22.2632 25.5995 22.127 25.5477 22.0228 25.4435L20.2665 23.6872L18.5102 25.4435C18.3019 25.6518 17.9644 25.6518 17.7561 25.4435C17.5478 25.2352 17.5478 24.8972 17.7561 24.6888L19.8894 22.5558C20.0977 22.3475 20.4352 22.3475 20.6435 22.5558L22.7768 24.6888C22.9852 24.8972 22.9852 25.2352 22.7768 25.4435C22.6727 25.5477 22.5364 25.5995 22.3998 25.5995Z" fill="#C4AB82"/>
<path d="M20.2664 48.5333C20.1251 48.5333 19.9894 48.4773 19.8894 48.3773L17.7561 46.2437C17.5478 46.0353 17.5478 45.6973 17.7561 45.489C17.9644 45.2807 18.3019 45.2807 18.5102 45.489L20.2665 47.2459L22.0228 45.489C22.2311 45.2807 22.5686 45.2807 22.7769 45.489C22.9852 45.6973 22.9852 46.0353 22.7769 46.2437L20.6436 48.3773C20.5435 48.4773 20.4078 48.5333 20.2664 48.5333Z" fill="#C4AB82"/>
<path d="M58.1334 56.5329H27.1998C26.9052 56.5329 26.6665 56.2942 26.6665 55.9996C26.6665 55.705 26.9052 55.4663 27.1998 55.4663H58.1334C58.428 55.4663 58.6667 55.705 58.6667 55.9996C58.6667 56.2942 58.428 56.5329 58.1334 56.5329Z" fill="#C4AB82"/>
<path d="M56 58.6665C55.8635 58.6665 55.7272 58.6147 55.623 58.5105C55.4147 58.3022 55.4147 57.9642 55.623 57.7558L57.379 55.9995L55.623 54.2438C55.4147 54.0355 55.4147 53.6974 55.623 53.4891C55.8314 53.2808 56.1688 53.2808 56.3771 53.4891L58.5104 55.6222C58.6104 55.7222 58.6667 55.8579 58.6667 55.9995C58.6667 56.1412 58.6104 56.2769 58.5104 56.3769L56.3771 58.5105C56.2729 58.6147 56.1366 58.6665 56 58.6665Z" fill="#C4AB82"/>
<path d="M29.3331 58.6665C29.1965 58.6665 29.0602 58.6147 28.9561 58.5105L26.8227 56.3769C26.7227 56.2769 26.6665 56.1412 26.6665 55.9995C26.6665 55.8579 26.7228 55.7222 26.8227 55.6222L28.9561 53.4891C29.1644 53.2808 29.5018 53.2808 29.7101 53.4891C29.9185 53.6974 29.9185 54.0355 29.7101 54.2438L27.9541 55.9995L29.7101 57.7558C29.9185 57.9642 29.9185 58.3022 29.7101 58.5105C29.6059 58.6147 29.4696 58.6665 29.3331 58.6665Z" fill="#C4AB82"/>
<path d="M37.3329 33.5996H30.3996C30.105 33.5996 29.8663 33.361 29.8663 33.0663V29.5996C29.8663 27.3945 31.6604 25.6001 33.8661 25.6001C36.0717 25.6001 37.8661 27.3945 37.8661 29.5996V33.0663C37.8662 33.361 37.6275 33.5996 37.3329 33.5996ZM30.9329 32.5331H36.7997V29.5996C36.7997 27.9825 35.4838 26.6666 33.8664 26.6666C32.2488 26.6666 30.9329 27.9825 30.9329 29.5996V32.5331Z" fill="#C4AB82"/>
<path d="M37.3329 51.1996H30.3996C30.105 51.1996 29.8663 50.961 29.8663 50.6664V40C29.8663 39.7053 30.105 39.4667 30.3996 39.4667H37.3329C37.6275 39.4667 37.8662 39.7053 37.8662 40V50.6664C37.8662 50.961 37.6275 51.1996 37.3329 51.1996ZM30.9329 50.1331H36.7997V40.5332H30.9329V50.1331Z" fill="#C4AB82"/>
<path d="M53.3331 41.0664H46.9334C46.6388 41.0664 46.4001 40.8277 46.4001 40.5331V33.5996C46.4001 33.305 46.6388 33.0663 46.9334 33.0663H53.3332C53.6278 33.0663 53.8664 33.305 53.8664 33.5996V40.5332C53.8664 40.8277 53.6277 41.0664 53.3331 41.0664ZM47.4667 39.9999H52.7999V34.1328H47.4667V39.9999Z" fill="#C4AB82"/>
<path d="M50.1333 41.0664C49.8386 41.0664 49.6 40.8277 49.6 40.5331V33.5996C49.6 33.305 49.8386 33.0663 50.1333 33.0663C50.4279 33.0663 50.6665 33.305 50.6665 33.5996V40.5332C50.6665 40.8277 50.4279 41.0664 50.1333 41.0664Z" fill="#C4AB82"/>
<path d="M42.1331 51.1995H25.5999C25.3053 51.1995 25.0667 50.9609 25.0667 50.6663V21.3328C25.0667 21.0382 25.3053 20.7995 25.5999 20.7995C25.8945 20.7995 26.1332 21.0382 26.1332 21.3328V50.133H41.5999V15.4663C41.5999 15.1716 41.8385 14.933 42.1332 14.933C42.4278 14.933 42.6664 15.1716 42.6664 15.4663V50.6663C42.6664 50.9609 42.4277 51.1995 42.1331 51.1995Z" fill="#C4AB82"/>
<path d="M58.6666 51.1996H42.1331C41.8385 51.1996 41.5999 50.9609 41.5999 50.6663V23.4283C41.5999 23.2563 41.6829 23.0945 41.8231 22.9945C41.9632 22.8945 42.1418 22.8677 42.306 22.9237L58.8395 28.586C59.055 28.6598 59.1999 28.8627 59.1999 29.0907V50.6664C59.1999 50.9609 58.9612 51.1996 58.6666 51.1996ZM42.6664 50.1331H58.1333V29.4716L42.6664 24.1747V50.1331Z" fill="#C4AB82"/>
<path d="M23.7332 22.4047C23.5121 22.4047 23.3056 22.2666 23.2291 22.0458C23.133 21.7672 23.2803 21.4637 23.5588 21.3673L43.7233 14.3873C44.0019 14.2927 44.3054 14.4385 44.4018 14.717C44.4979 14.9956 44.3506 15.2991 44.0721 15.3955L23.9076 22.3755C23.8498 22.3952 23.7909 22.4047 23.7332 22.4047Z" fill="#C4AB82"/>
<path d="M60.4887 30.3316C60.4307 30.3316 60.3718 30.3221 60.3138 30.3024L42.2418 24.0301C41.9636 23.9331 41.8163 23.6295 41.913 23.351C42.0094 23.0731 42.3126 22.9272 42.5918 23.0219L60.6637 29.2942C60.942 29.3912 61.0893 29.6948 60.9926 29.9733C60.9161 30.1935 60.7095 30.3316 60.4887 30.3316Z" fill="#C4AB82"/>
<path d="M60.8 51.1996H23.4666C23.172 51.1996 22.9333 50.961 22.9333 50.6663C22.9333 50.3717 23.172 50.1331 23.4666 50.1331H60.8C61.0946 50.1331 61.3332 50.3717 61.3332 50.6663C61.3332 50.961 61.0946 51.1996 60.8 51.1996Z" fill="#C4AB82"/>
<path d="M74.1333 38.3997C73.8387 38.3997 73.6 38.161 73.6 37.8664V13.8666C73.6 12.984 72.8823 12.2663 72 12.2663H14.9333C14.6387 12.2663 14.4 12.0276 14.4 11.733C14.4 11.4384 14.6387 11.1997 14.9333 11.1997H72C73.4703 11.1997 74.6666 12.396 74.6666 13.8666V37.8663C74.6665 38.161 74.4279 38.3997 74.1333 38.3997Z" fill="#C4AB82"/>
<path d="M61.8665 61.3328H10.3999C7.60628 61.3328 5.33337 59.0599 5.33337 56.2663V10.3998C5.33337 7.60616 7.60628 5.33325 10.3999 5.33325H14.9333C15.2279 5.33325 15.4665 5.57192 15.4665 5.86653V51.1997C15.4665 51.4943 15.2279 51.733 14.9333 51.733H10.3999C8.19428 51.733 6.39988 53.5274 6.39988 55.733V56.2663C6.39988 58.472 8.19428 60.2664 10.3999 60.2664H61.8665C62.1611 60.2664 62.3998 60.505 62.3998 60.7996C62.3998 61.0943 62.1611 61.3328 61.8665 61.3328ZM10.3999 6.39976C8.19428 6.39976 6.39988 8.19416 6.39988 10.3998V52.6263C7.32772 51.4347 8.77604 50.6664 10.3999 50.6664H14.4V6.39976H10.3999Z" fill="#C4AB82"/>
</svg>
