<svg width="142" height="143" viewBox="0 0 142 143" fill="none" xmlns="http://www.w3.org/2000/svg">
<g clip-path="url(#clip0_704_663)">
<path d="M54.1287 76.5735C54.6516 76.5735 55.0752 76.1497 55.0752 75.627V67.3564C55.0752 66.8337 54.6516 66.4099 54.1287 66.4099H45.799C45.2762 66.4099 44.8525 66.8337 44.8525 67.3564V75.627C44.8525 76.1497 45.2762 76.5735 45.799 76.5735H54.1287ZM46.7455 68.3029H53.1822V74.6805H46.7455V68.3029Z" fill="#C4A160"/>
<path d="M66.8354 76.5734H75.1651C75.8482 76.594 76.3359 75.802 76.0103 75.2012L71.8455 66.9306C71.5285 66.2464 70.4718 66.2465 70.1549 66.9306L65.9901 75.2012C65.6645 75.8021 66.1524 76.594 66.8354 76.5734ZM71.0002 69.4607L73.6287 74.6804H68.3717L71.0002 69.4607Z" fill="#C4A160"/>
<path d="M98.7675 80.9713H85.3038C83.7535 80.9713 82.3751 81.7205 81.5114 82.8759C81.2478 82.5267 80.9371 82.2154 80.589 81.9507C81.7274 81.0857 82.4643 79.7181 82.4643 78.1811V64.8022C82.4643 63.2748 81.7364 61.915 80.6099 61.0492C81.7364 60.1833 82.4643 58.8235 82.4643 57.2961V43.9171C82.4643 41.3075 80.3414 39.1846 77.7318 39.1846H64.2682C61.6586 39.1846 59.5357 41.3075 59.5357 43.9171V57.2961C59.5357 58.8235 60.2636 60.1833 61.3901 61.0492C61.0477 61.3124 60.7417 61.6206 60.4822 61.966C59.6181 60.8154 58.2427 60.0697 56.6962 60.0697H43.2325C40.6229 60.0697 38.5 62.1927 38.5 64.8022V66.455C38.5 66.9778 38.9237 67.4015 39.4465 67.4015C39.9693 67.4015 40.393 66.9778 40.393 66.455V64.8022C40.393 63.2365 41.6669 61.9627 43.2325 61.9627H56.6962C58.2619 61.9627 59.5357 63.2365 59.5357 64.8022V78.1811C59.5357 79.5828 58.5145 80.7498 57.1772 80.9791C56.1624 80.9457 43.9273 80.9218 42.7517 80.9791C41.4142 80.7498 40.393 79.583 40.393 78.1811V71.0429C40.393 70.5202 39.9693 70.0964 39.4465 70.0964C38.9237 70.0964 38.5 70.5202 38.5 71.0429V78.1811C38.5 79.7085 39.2279 81.0683 40.3544 81.9342C39.2279 82.8 38.5 84.16 38.5 85.6872V99.0663C38.5 101.676 40.6229 103.799 43.2325 103.799H56.6962C58.2427 103.799 59.6181 103.053 60.4822 101.903C61.3463 103.053 62.7217 103.799 64.2682 103.799H77.7319C79.2746 103.799 80.647 103.057 81.5115 101.911C82.3752 103.066 83.7537 103.815 85.3039 103.815H90.9652C91.4881 103.815 91.9117 103.392 91.9117 102.869C91.9117 102.346 91.4881 101.922 90.9652 101.922H85.3039C83.7325 101.923 82.4549 100.638 82.4644 99.0663C82.4632 99.05 82.4653 85.7188 82.4644 85.7039C82.4644 84.1381 83.7383 82.8644 85.3039 82.8644H98.7676C100.333 82.8644 101.607 84.1381 101.607 85.7039V99.0829C101.607 100.649 100.333 101.922 98.7676 101.922H96.1913C94.9396 101.96 94.9415 103.778 96.1913 103.815H98.7676C101.377 103.815 103.5 101.693 103.5 99.0829V85.7038C103.5 83.0942 101.377 80.9713 98.7675 80.9713ZM61.4287 57.2961V43.9171C61.4287 42.3513 62.7026 41.0776 64.2682 41.0776H77.7319C79.2976 41.0776 80.5714 42.3513 80.5714 43.9171V57.2961C80.5714 58.6978 79.5502 59.8648 78.2129 60.0941C77.1981 60.0606 64.9631 60.0368 63.7874 60.0941C62.4499 59.8648 61.4287 58.6978 61.4287 57.2961ZM63.7872 62.0042C64.802 62.0377 77.0371 62.0615 78.2127 62.0042C79.5501 62.2334 80.5713 63.4004 80.5713 64.8022V78.1811C80.5713 79.6347 79.4731 80.836 78.0631 81.0007C77.828 80.9736 64.9576 80.967 63.9369 81.0007C62.5269 80.836 61.4287 79.6348 61.4287 78.1811V64.8022C61.4287 63.4004 62.4499 62.2334 63.7872 62.0042ZM60.4822 81.0173C60.747 81.3698 61.0601 81.6839 61.411 81.9507C61.0654 82.2133 60.7569 82.5221 60.4948 82.8681C60.2327 82.5158 59.9224 82.2017 59.5743 81.9342C59.9167 81.6711 60.2227 81.3628 60.4822 81.0173ZM56.6962 101.906H43.2325C41.6669 101.906 40.393 100.632 40.393 99.0663V85.6872C40.393 84.2855 41.4142 83.1186 42.7515 82.8893C43.7663 82.9227 56.0014 82.9466 57.177 82.8893C58.5255 83.1192 59.5525 84.308 59.5356 85.7202V99.0662C59.5357 100.632 58.2619 101.906 56.6962 101.906ZM77.7318 101.906H64.2682C62.7026 101.906 61.4287 100.632 61.4287 99.0663V85.7203C61.4287 84.2667 62.5269 83.0654 63.9369 82.9007C64.172 82.9279 77.0424 82.9344 78.0631 82.9007C79.4731 83.0654 80.5713 84.2666 80.5713 85.7203V99.0663C80.5713 100.632 79.2974 101.906 77.7318 101.906Z" fill="#C4A160"/>
<path d="M55.1911 90.3013L52.165 89.8632L50.8124 87.1325C50.5424 86.5655 49.5488 86.3647 49.1162 87.1325L47.7634 89.8631L44.7376 90.3013C44.1129 90.3818 43.6135 91.2681 44.2137 91.917L46.4012 94.0414L45.885 97.0403C45.7687 97.6582 46.4549 98.4067 47.2569 98.0393L49.9642 96.6213L52.6716 98.0393C53.1553 98.3621 54.1627 97.9192 54.0435 97.0403L53.5272 94.0414L55.7148 91.917C56.1734 91.4851 56.0579 90.4745 55.1911 90.3013ZM51.8504 93.0312C51.6264 93.2489 51.5241 93.563 51.5771 93.8708L51.8531 95.4737L50.4035 94.7145C50.2228 94.6495 49.9897 94.5157 49.5253 94.7145L48.0758 95.4737L48.3518 93.8708C48.4048 93.563 48.3024 93.2489 48.0784 93.0312L46.9127 91.8992L48.5268 91.6655C48.8348 91.6209 49.1013 91.4278 49.2394 91.1489L49.9645 89.6851L50.6895 91.1489C50.8277 91.4277 51.094 91.6209 51.402 91.6656L53.0163 91.8993L51.8504 93.0312Z" fill="#C4A160"/>
<path d="M71.0001 86.4841C67.7418 86.4841 65.0908 89.135 65.0908 92.3934C65.3879 100.222 76.6136 100.22 76.9094 92.3933C76.9095 89.135 74.2586 86.4841 71.0001 86.4841ZM71.0001 96.4097C68.7854 96.4097 66.9838 94.608 66.9838 92.3934C67.1857 87.0726 74.8154 87.0741 75.0164 92.3934C75.0165 94.608 73.2148 96.4097 71.0001 96.4097Z" fill="#C4A160"/>
<path d="M70.9972 56.5159H71.017C73.7542 56.5159 76.1734 54.5694 76.7736 51.8808C76.8981 51.3235 76.654 50.7509 76.1662 50.456C75.6785 50.1611 75.0582 50.2111 74.6229 50.5799C73.4267 51.6177 71.498 50.7233 71.5183 49.1313C71.5115 48.4088 72.0014 47.6955 72.7098 47.3968C73.2277 47.1784 73.5496 46.6541 73.511 46.0924C73.4717 45.5245 73.0764 45.0442 72.5269 44.8972C71.9563 44.7446 71.3652 44.6788 70.7696 44.7017C67.7926 44.816 65.3044 47.2311 65.1047 50.2C64.9934 51.8564 65.554 53.4338 66.6832 54.6415C67.7969 55.8327 69.3704 56.5159 70.9972 56.5159ZM66.9935 50.327C67.124 48.3848 68.698 46.7917 70.6217 46.6082C69.989 47.2989 69.6165 48.2039 69.6252 49.1403C69.5911 51.5721 72.0102 53.4377 74.3519 52.7984C73.616 53.8956 72.3554 54.6229 71.0131 54.6229C68.7424 54.684 66.7883 52.5907 66.9935 50.327Z" fill="#C4A160"/>
<path d="M97.9883 92.4111C97.9883 92.1601 97.8886 91.9194 97.7112 91.7418L92.6907 86.7212C92.3381 86.3546 91.7046 86.3546 91.3521 86.7212L86.3671 91.7063C85.9974 92.0759 85.9974 92.6752 86.3671 93.0447L91.3875 98.0652C91.7572 98.4348 92.3564 98.4348 92.7261 98.0652L97.7112 93.0803C97.8886 92.9029 97.9883 92.6621 97.9883 92.4111ZM92.0568 96.0575L88.3748 92.3755L92.0213 88.729L95.7033 92.411L92.0568 96.0575Z" fill="#C4A160"/>
</g>
<path d="M70.1204 0.800604C70.6642 0.484436 71.3358 0.484436 71.8796 0.800603L131.367 35.3878C131.906 35.7011 132.238 36.2773 132.238 36.9006V106.099C132.238 106.723 131.906 107.299 131.367 107.612L71.8796 142.199C71.3358 142.516 70.6642 142.516 70.1204 142.199L10.6326 107.612C10.0937 107.299 9.7622 106.723 9.7622 106.099V36.9006C9.7622 36.2773 10.0937 35.7011 10.6326 35.3878L70.1204 0.800604Z" stroke="#C4A25F" stroke-width="0.5"/>
<defs>
<clipPath id="clip0_704_663">
<rect width="65" height="65" fill="white" transform="translate(38.5 39)"/>
</clipPath>
</defs>
</svg>
