<svg width="142" height="143" viewBox="0 0 142 143" fill="none" xmlns="http://www.w3.org/2000/svg">
<g clip-path="url(#clip0_704_645)">
<path d="M71.0311 63.3687C67.5257 63.3687 64.6738 60.5175 64.6738 57.0121C64.6738 53.5066 67.5257 50.6548 71.0311 50.6548C74.5365 50.6548 77.3884 53.5066 77.3884 57.0121C77.3884 60.5175 74.5365 63.3687 71.0311 63.3687ZM71.0311 52.7737C68.6946 52.7737 66.7927 54.6743 66.7927 57.0121C66.7927 59.3492 68.6946 61.2498 71.0311 61.2498C73.3676 61.2498 75.2689 59.3492 75.2689 57.0121C75.2689 54.6743 73.3676 52.7737 71.0311 52.7737Z" fill="#C4A25F"/>
<path d="M78.6149 71.1465C78.3081 71.1465 78.0032 71.0144 77.794 70.7573C77.4236 70.3044 77.4903 69.6369 77.9438 69.2665C78.0414 69.1871 78.1232 69.0895 78.1881 68.9779L88.3042 50.881C88.4527 50.6233 88.4909 50.3378 88.4176 50.065C88.3442 49.7915 88.169 49.563 87.9235 49.4211C87.4172 49.1265 86.7685 49.3035 86.4769 49.8091L77.6073 65.6762C77.3218 66.1855 76.6755 66.3674 76.165 66.0836C75.6539 65.7981 75.4714 65.1524 75.757 64.6413L84.6345 48.7621C85.5178 47.2331 87.4651 46.7093 88.9832 47.586C89.7192 48.0109 90.2448 48.6972 90.4649 49.5169C90.685 50.3372 90.5716 51.1938 90.1466 51.9292L80.0311 70.0249C79.8305 70.3723 79.5825 70.6646 79.2854 70.9077C79.0884 71.0683 78.8507 71.1465 78.6149 71.1465Z" fill="#C4A25F"/>
<path d="M48.7024 104C47.9021 104 47.1031 103.7 46.4877 103.1C45.8796 102.507 45.5389 101.714 45.5286 100.864C45.5177 100.015 45.8384 99.214 46.4313 98.6053L57.9976 86.4097C58.4008 85.9854 59.0713 85.9666 59.4951 86.3703C59.9201 86.7729 59.9376 87.4434 59.5351 87.8684L47.9585 100.075C47.5402 100.503 47.5487 101.176 47.967 101.583C48.3847 101.992 49.0564 101.982 49.4657 101.564L61.1477 89.2464C61.5503 88.8227 62.2214 88.8039 62.6452 89.2076C63.0702 89.6102 63.0878 90.2807 62.6852 90.7057L50.9922 103.034C50.3635 103.677 49.5323 104 48.7024 104Z" fill="#C4A25F"/>
<path d="M63.7949 71.1416C63.5579 71.1416 63.319 71.0628 63.122 70.9003C62.8291 70.659 62.5836 70.3686 62.392 70.0376L52.2608 51.9158C51.392 50.4111 51.914 48.4631 53.4315 47.5853C54.9508 46.7092 56.8981 47.2306 57.7741 48.7499L66.6583 64.6413C66.9438 65.1529 66.7614 65.798 66.2503 66.0836C65.7392 66.3691 65.0947 66.1872 64.8086 65.6761L55.9311 49.7969C55.6467 49.3046 54.9962 49.1324 54.4906 49.421C53.985 49.7132 53.8116 50.3626 54.1032 50.8688L64.2339 68.99C64.2908 69.0876 64.3721 69.1846 64.4679 69.2634C64.9201 69.6356 64.985 70.3031 64.6128 70.7554C64.4036 71.01 64.1005 71.1416 63.7949 71.1416Z" fill="#C4A25F"/>
<path d="M86.9273 103.631C86.7539 103.631 86.5793 103.617 86.4022 103.588C85.5644 103.447 84.8314 102.99 84.3379 102.299C83.845 101.609 83.6498 100.767 83.7898 99.9299L85.5038 89.6429L81.9001 88.0411C81.3654 87.8035 81.1241 87.1772 81.3624 86.6425C81.6 86.1071 82.2257 85.8652 82.761 86.1041L87.1146 88.0393C87.5553 88.2357 87.8088 88.7056 87.7287 89.1815L85.8802 100.277C85.8336 100.557 85.8984 100.838 86.0633 101.068C86.227 101.299 86.472 101.45 86.7514 101.497C87.3353 101.595 87.8755 101.197 87.97 100.626L90.0889 87.9132C90.1683 87.4361 89.9161 86.9662 89.4748 86.771L82.9496 83.8706C82.4148 83.633 82.1736 83.0067 82.4118 82.472C82.6495 81.9367 83.2757 81.696 83.8105 81.9336L90.3357 84.834C91.6591 85.4227 92.4176 86.8322 92.1793 88.2612L90.0604 100.975C89.8028 102.514 88.4854 103.631 86.9273 103.631Z" fill="#C4A25F"/>
<path d="M64.1694 92.3838C63.9026 92.3838 63.6444 92.282 63.4479 92.1001L57.241 86.3279C57.024 86.1248 56.9015 85.8417 56.9033 85.5446C56.9058 85.2475 57.0319 84.965 57.2519 84.7662L63.5704 79.0467L62.5604 68.2122C62.5555 66.0817 64.2094 64.4285 66.241 64.4285H75.8224C77.8546 64.4285 79.5078 66.0817 79.5078 68.1139C79.5078 68.1503 79.5054 68.1873 79.5024 68.2237L78.5239 77.6614L84.1015 80.0088C84.6174 80.2259 84.8751 80.8067 84.6902 81.3353L82.2251 88.3855C82.1275 88.6662 81.9159 88.8924 81.6425 89.0094C81.3697 89.1264 81.0599 89.1246 80.7883 89.0009L71.4767 84.7849L64.9581 92.0328C64.7678 92.2438 64.501 92.3699 64.2173 92.3826C64.2009 92.3838 64.1852 92.3838 64.1694 92.3838ZM59.5303 85.5622L64.1021 89.8145L70.42 82.7909C70.7286 82.4484 71.2227 82.346 71.6446 82.5345L80.6076 86.5922L82.3615 81.5754L76.9779 79.3092C76.5481 79.1279 76.2874 78.6872 76.3353 78.2228L77.3883 68.066C77.3623 67.2239 76.6705 66.5474 75.8224 66.5474H66.241C65.3771 66.5474 64.675 67.25 64.675 68.1139L65.7293 79.3771C65.7602 79.7093 65.6335 80.0373 65.3856 80.261L59.5303 85.5622Z" fill="#C4A25F"/>
<path d="M92.2212 49.595H49.8404C49.2553 49.595 48.7812 49.1215 48.7812 48.5358C48.7812 47.9502 49.2553 47.4761 49.8404 47.4761H92.2212C92.8068 47.4761 93.2809 47.9502 93.2809 48.5358C93.2809 49.1215 92.8068 49.595 92.2212 49.595Z" fill="#C4A25F"/>
<path d="M49.8413 58.0712H46.6633C46.0776 58.0712 45.6035 57.5977 45.6035 57.0121V40.0597C45.6035 39.4741 46.0776 39 46.6633 39H49.8413C50.4269 39 50.901 39.4741 50.901 40.0597V57.0121C50.901 57.5977 50.4269 58.0712 49.8413 58.0712ZM47.7224 55.9523H48.7822V41.1189H47.7224V55.9523Z" fill="#C4A25F"/>
<path d="M46.6632 58.0712H43.4846C42.8995 58.0712 42.4248 57.5977 42.4248 57.0121V40.0597C42.4248 39.4741 42.8995 39 43.4846 39H46.6632C47.2482 39 47.7223 39.4741 47.7223 40.0597V57.0121C47.7223 57.5977 47.2482 58.0712 46.6632 58.0712ZM44.5437 55.9523H45.6034V41.1189H44.5437V55.9523Z" fill="#C4A25F"/>
<path d="M98.5786 58.0712H95.4C94.8149 58.0712 94.3408 57.5977 94.3408 57.0121V40.0597C94.3408 39.4741 94.8149 39 95.4 39H98.5786C99.1636 39 99.6383 39.4741 99.6383 40.0597V57.0121C99.6383 57.5977 99.1636 58.0712 98.5786 58.0712ZM96.4597 55.9523H97.5195V41.1189H96.4597V55.9523Z" fill="#C4A25F"/>
<path d="M95.3999 58.0712H92.2213C91.6362 58.0712 91.1621 57.5977 91.1621 57.0121V40.0597C91.1621 39.4741 91.6362 39 92.2213 39H95.3999C95.9849 39 96.4596 39.4741 96.4596 40.0597V57.0121C96.4596 57.5977 95.9849 58.0712 95.3999 58.0712ZM93.281 55.9523H94.3407V41.1189H93.281V55.9523Z" fill="#C4A25F"/>
<path d="M43.4845 49.595H40.3058C39.7208 49.595 39.2461 49.1215 39.2461 48.5358C39.2461 47.9502 39.7208 47.4761 40.3058 47.4761H43.4845C44.0695 47.4761 44.5436 47.9502 44.5436 48.5358C44.5436 49.1215 44.0695 49.595 43.4845 49.595Z" fill="#C4A25F"/>
<path d="M101.757 49.595H98.5787C97.9936 49.595 97.5195 49.1215 97.5195 48.5358C97.5195 47.9502 97.9936 47.4761 98.5787 47.4761H101.757C102.342 47.4761 102.817 47.9502 102.817 48.5358C102.817 49.1215 102.342 49.595 101.757 49.595Z" fill="#C4A25F"/>
</g>
<path d="M70.1204 0.800604C70.6642 0.484436 71.3358 0.484436 71.8796 0.800603L131.367 35.3878C131.906 35.7011 132.238 36.2773 132.238 36.9006V106.099C132.238 106.723 131.906 107.299 131.367 107.612L71.8796 142.199C71.3358 142.516 70.6642 142.516 70.1204 142.199L10.6326 107.612C10.0937 107.299 9.7622 106.723 9.7622 106.099V36.9006C9.7622 36.2773 10.0937 35.7011 10.6326 35.3878L70.1204 0.800604Z" stroke="#C4A25F" stroke-width="0.5"/>
<defs>
<clipPath id="clip0_704_645">
<rect width="65" height="65" fill="white" transform="translate(38.5 39)"/>
</clipPath>
</defs>
</svg>
