<svg width="40" height="40" viewBox="0 0 40 40" fill="none" xmlns="http://www.w3.org/2000/svg">
<g clip-path="url(#clip0_1224_302)">
<path d="M39.375 36.2498H36.875V34.483C37.1403 34.4583 37.4027 34.4205 37.6562 34.355C37.9541 34.2781 38.1512 33.9964 38.1219 33.6906L37.0545 22.4707C37.0669 22.4669 37.0784 22.4608 37.0906 22.4563C37.1069 22.4502 37.1225 22.4447 37.1381 22.4373C37.3673 22.345 37.4766 22.1076 37.5 21.8748V14.9998H38.125C38.4704 14.9998 38.75 14.7199 38.75 14.3748V11.8748C38.7336 11.6609 38.6276 11.4704 38.4546 11.3438L20.3296 0.0938438C20.1276 -0.0312813 19.8724 -0.0312813 19.6704 0.0938438L1.54544 11.3438C1.37244 11.4705 1.26637 11.6611 1.25 11.8748V14.3748C1.25 14.72 1.52988 14.9998 1.875 14.9998H2.5V21.8748C2.524 22.1071 2.63294 22.3443 2.8615 22.437C2.87756 22.4446 2.8935 22.4502 2.91025 22.4565C2.92213 22.4608 2.93338 22.4668 2.94556 22.4705L1.87781 33.6907C1.84881 33.9965 2.04625 34.2781 2.34381 34.355C2.5975 34.4205 2.85988 34.4583 3.12506 34.483V36.2499H0.625C0.279875 36.2499 0 36.5298 0 36.8749V39.3749C0 39.72 0.279875 39.9999 0.625 39.9999H39.375C39.7204 39.9999 40 39.72 40 39.3749V36.8749C40 36.5298 39.7204 36.2498 39.375 36.2498ZM6.875 36.2498V33.3395C7.0105 33.2305 7.14181 33.1168 7.26687 32.9918L7.31694 32.9417C7.44269 32.816 7.50887 32.643 7.49913 32.4657L7.48163 32.1327L7.87756 32.2114C8.04025 32.2456 8.20106 32.2623 8.36887 32.2623C9.28687 32.2623 10.1465 31.7292 10.5591 30.9043C10.6189 30.7843 10.6388 30.6482 10.6156 30.5164L8.88637 20.7053C10.6624 19.4828 12.0499 17.7017 12.7671 15.5503L12.7791 15.5144C13.4016 15.9743 14.1683 16.2498 15.0001 16.2498H16.2139C16.6916 16.632 17.3064 16.8108 17.9163 16.7341C18.259 17.5538 19.0668 18.1248 20.0001 18.1248C20.9333 18.1248 21.7414 17.5538 22.0838 16.7341C22.6966 16.8127 23.3106 16.6329 23.7873 16.2498H25.0001C25.8319 16.2498 26.5987 15.9742 27.2213 15.5142L27.2333 15.5503C27.9505 17.7017 29.3379 19.4829 31.1139 20.7055L29.3847 30.5164C29.3609 30.6482 29.3811 30.7843 29.4409 30.9043C29.8535 31.7292 30.7134 32.2623 31.6314 32.2623C31.7993 32.2623 31.9598 32.2455 32.1161 32.2129L32.5187 32.1328L32.5012 32.4656C32.4914 32.6429 32.5573 32.8162 32.6831 32.9417L32.7331 32.9917C32.8587 33.1175 32.9902 33.2312 33.125 33.3396V36.2497L6.875 36.2498ZM3.67063 33.2613C3.659 33.2625 3.64713 33.2628 3.6355 33.2628C3.482 33.2625 3.32725 33.2563 3.17619 33.2396L4.2045 22.4358C4.71544 22.3817 5.21656 22.291 5.705 22.1631L6.23494 32.2478C6.12631 32.3452 6.01156 32.4355 5.8855 32.5233C5.25656 32.9747 4.49213 33.235 3.67063 33.2613ZM7.73869 21.3955L9.3445 30.5058C9.07444 30.8833 8.61606 31.09 8.12806 30.9868L7.41375 30.8447L6.93544 21.7579C7.20844 21.6476 7.47725 21.5285 7.73869 21.3955ZM2.5 13.7498V12.4998H11.25C11.25 12.9387 11.3297 13.3582 11.4688 13.7498H2.5ZM26.25 11.8748H27.5V12.4998C27.5 13.8783 26.3788 14.9998 25 14.9998H24.5747C24.7236 14.3466 24.5728 13.6569 24.1675 13.1248C24.2161 13.061 24.2568 12.9925 24.2981 12.9245C24.9133 12.7207 25.447 12.3717 25.8685 11.9164C25.9943 11.8972 26.1191 11.8748 26.25 11.8748ZM25.625 9.37484C25.625 10.1935 25.226 10.9286 24.5966 11.389C24.5541 11.1267 24.4701 10.8677 24.3298 10.6252C23.9517 9.96997 23.2897 9.57809 22.5826 9.51228C23.0454 9.03247 23.6819 8.74984 24.375 8.74984H25.625V9.37484ZM21.0077 10.334C21.0193 10.5446 21.1365 10.735 21.3189 10.8403C21.5021 10.9462 21.7248 10.952 21.9128 10.8572C22.3962 10.6148 22.9809 10.7879 23.2471 11.2499C23.5144 11.7128 23.3709 12.307 22.9205 12.6022C22.7441 12.7175 22.6379 12.914 22.6379 13.1249C22.6379 13.3358 22.7441 13.5323 22.9205 13.6477C23.3709 13.9428 23.5144 14.537 23.2471 15.0002C23.2079 15.068 23.1601 15.1275 23.1084 15.1825L23.1074 15.1835C22.8077 15.5016 22.3237 15.5989 21.9129 15.3927C21.7249 15.2977 21.5021 15.3035 21.319 15.4095C21.1365 15.5148 21.0193 15.7052 21.0077 15.9158C20.9772 16.4535 20.5351 16.875 20.0001 16.875C19.4654 16.875 19.0229 16.4535 18.9927 15.9155C18.9808 15.7049 18.8636 15.5148 18.6811 15.4092C18.5847 15.3536 18.4766 15.3255 18.3686 15.3255C18.2722 15.3255 18.1758 15.3478 18.0869 15.3927C17.6769 15.5995 17.192 15.5023 16.8919 15.183C16.8401 15.1278 16.7921 15.068 16.7528 14.9999C16.4854 14.5367 16.6289 13.9428 17.0796 13.6477C17.2559 13.5323 17.3621 13.3358 17.3621 13.1249C17.3621 12.914 17.2559 12.7175 17.0796 12.6022C16.6288 12.307 16.4854 11.7132 16.7528 11.2499C17.0198 10.787 17.606 10.6145 18.087 10.8572C18.275 10.9521 18.4984 10.9457 18.6812 10.8407C18.8637 10.7351 18.9809 10.545 18.9928 10.3343C19.0229 9.79634 19.4654 9.37484 20.0001 9.37484C20.5351 9.37484 20.9772 9.79628 21.0077 10.334ZM15.6699 10.6248C15.5299 10.8676 15.4459 11.1267 15.4033 11.3888C14.7739 10.9285 14.375 10.1935 14.375 9.37484V8.74984H15.625C16.3186 8.74984 16.9557 9.03284 17.4185 9.51334C16.7121 9.57978 16.0484 9.96941 15.6699 10.6248ZM14.1317 11.9164C14.5531 12.3715 15.0865 12.7204 15.7015 12.9242C15.7428 12.9924 15.7836 13.0609 15.8323 13.1248C15.427 13.6569 15.2762 14.3465 15.4251 14.9998H15C13.6215 14.9998 12.5 13.8783 12.5 12.4998V11.8748H13.75C13.8811 11.8748 14.0058 11.8972 14.1317 11.9164ZM35.7961 22.4359L36.8237 33.2396C36.684 33.2548 36.543 33.2625 36.4002 33.2625C36.377 33.2622 36.352 33.2637 36.2677 33.2563C35.5079 33.235 34.7431 32.9747 34.1071 32.5184C33.9862 32.4338 33.8727 32.3445 33.7647 32.2477L34.2954 22.1632C34.7839 22.291 35.2851 22.3817 35.7961 22.4359ZM32.5866 30.8447L31.8653 30.9883C31.4148 31.081 30.9253 30.8827 30.6556 30.5055L32.2611 21.3952C32.5225 21.5283 32.7914 21.6475 33.0646 21.7579L32.5866 30.8447ZM34.3751 34.0838C34.7821 34.2593 35.201 34.3823 35.6251 34.4438V36.2498H34.3751V34.0838ZM36.2501 20.6333C35.3531 19.8708 34.0923 18.5233 33.7379 16.7521C33.6707 16.414 33.3454 16.1945 33.0024 16.262C32.6642 16.3297 32.4445 16.659 32.5122 16.9975C32.8572 18.7224 33.8773 20.0787 34.8071 21.0042C31.8548 20.3023 29.4101 18.1283 28.4186 15.1548L28.3669 14.9998H36.2501V20.6333ZM37.5001 13.7498H28.5313C28.6704 13.3582 28.7501 12.9386 28.7501 12.4998H37.5001V13.7498ZM20 1.36034L35.9329 11.2498H28.75C28.75 10.9047 28.4704 10.6248 28.125 10.6248H26.6614C26.7997 10.2319 26.875 9.81097 26.875 9.37484V8.12484C26.875 7.77972 26.5954 7.49984 26.25 7.49984H24.375C23.2752 7.49984 22.2669 7.96841 21.5669 8.76466C21.1594 8.36959 20.6076 8.12484 20 8.12484C19.3924 8.12484 18.8407 8.36966 18.4332 8.76478C17.7329 7.96847 16.7246 7.49984 15.625 7.49984H13.75C13.4049 7.49984 13.125 7.77972 13.125 8.12484V9.37484C13.125 9.81097 13.2002 10.2319 13.3387 10.6248H11.875C11.5299 10.6248 11.25 10.9047 11.25 11.2498H4.06706L20 1.36034ZM11.6328 14.9998L11.5811 15.1548C10.5901 18.1284 8.14544 20.3024 5.19281 21.0043C6.12275 20.0788 7.14288 18.7225 7.48775 16.9975C7.5555 16.659 7.33606 16.3297 6.99763 16.262C6.65644 16.1933 6.32962 16.4137 6.26213 16.7521C5.90956 18.515 4.64769 19.8648 3.74994 20.6303V14.9998L11.6328 14.9998ZM4.375 34.4432C4.80688 34.3787 5.22425 34.2547 5.625 34.0829V36.2498H4.375V34.4432ZM38.75 38.7498H1.25V37.4998H38.75V38.7498Z" fill="#C4A25F"/>
<path d="M22.5 22.5C21.6742 22.5 20.7684 22.7789 20 23.2596C19.2322 22.7789 18.3261 22.5 17.5 22.5C15.4321 22.5 13.75 24.1821 13.75 26.25C13.75 31.0709 19.6149 32.4295 19.8645 32.4851C19.9091 32.4951 19.9545 32.5 20 32.5C20.0455 32.5 20.0909 32.4951 20.1355 32.4851C20.3851 32.4295 26.25 31.0709 26.25 26.25C26.25 24.1821 24.5679 22.5 22.5 22.5ZM20 31.2302C19.1846 31.0104 15 29.7116 15 26.25C15 24.8715 16.1215 23.75 17.5 23.75C18.2016 23.75 18.9944 24.0359 19.6201 24.5151C19.8441 24.6866 20.1553 24.6866 20.3799 24.5151C21.0059 24.0359 21.7987 23.75 22.5 23.75C23.8788 23.75 25 24.8715 25 26.25C25 29.7116 20.8154 31.0104 20 31.2302Z" fill="#C4A25F"/>
<path d="M18.125 13.125C18.125 14.1589 18.9661 15 20 15C21.0339 15 21.875 14.1589 21.875 13.125C21.875 12.0911 21.0339 11.25 20 11.25C18.9661 11.25 18.125 12.0911 18.125 13.125ZM20.625 13.125C20.625 13.4696 20.3446 13.75 20 13.75C19.6554 13.75 19.375 13.4696 19.375 13.125C19.375 12.7804 19.6554 12.5 20 12.5C20.3446 12.5 20.625 12.7804 20.625 13.125Z" fill="#C4A25F"/>
</g>
<defs>
<clipPath id="clip0_1224_302">
<rect width="40" height="40" fill="white"/>
</clipPath>
</defs>
</svg>
