<svg width="142" height="143" viewBox="0 0 142 143" fill="none" xmlns="http://www.w3.org/2000/svg">
<path d="M30.2121 79.1212C33 79.1212 34.3333 79.9697 35.7879 80.9394C37.3636 81.9091 39.1818 83.1212 42.697 83.1212C46.2121 83.1212 48.0303 81.9091 49.6061 80.9394C51.1818 79.9697 52.3939 79.1212 55.1818 79.1212C57.9697 79.1212 59.303 79.9697 60.7576 80.9394C62.3333 81.9091 64.1515 83.1212 67.6667 83.1212C71.1818 83.1212 73 81.9091 74.5758 80.9394C76.1515 79.9697 77.3636 79.1212 80.1515 79.1212C82.9394 79.1212 84.2727 79.9697 85.7273 80.9394C87.303 81.9091 89.1212 83.1212 92.6364 83.1212C96.1515 83.1212 97.9697 81.9091 99.5455 80.9394C101.121 79.9697 102.333 79.1212 105.121 79.1212C105.848 79.1212 106.333 78.6364 106.333 77.9091C106.333 77.1818 105.848 76.697 105.121 76.697C101.606 76.697 99.7879 77.9091 98.2121 78.8788C96.6364 79.8485 95.4242 80.697 92.6364 80.697C89.8485 80.697 88.5152 79.8485 87.0606 78.8788C86.2121 78.3939 85.3636 77.7879 84.1515 77.4242C84.1515 77.303 84.0303 77.1818 83.9091 77.0606L63.4242 56.4545L71.5455 48.3333C73.7273 46.1515 73.7273 42.7576 71.5455 40.5758C70.5758 39.4848 69.1212 39 67.6667 39C66.2121 39 64.8788 39.6061 63.7879 40.5758L51.4242 53.303C49.7273 55 49.7273 57.6667 51.4242 59.3636L59.0606 67L45.8485 79.9697L45.7273 80.0909C44.8788 80.3333 44.0303 80.5758 42.697 80.5758C39.9091 80.5758 38.5758 79.7273 37.1212 78.7576C35.5455 77.7879 33.7273 76.5758 30.2121 76.5758C29.4848 76.5758 29 77.0606 29 77.7879C29 78.5152 29.4848 79.1212 30.2121 79.1212ZM61.6061 66.0303L53.1212 57.5455C52.7576 57.1818 52.6364 56.697 52.6364 56.2121C52.6364 55.7273 52.8788 55.2424 53.1212 54.8788L65.7273 42.2727C66.3333 41.6667 67.0606 41.4242 67.9091 41.4242C68.7576 41.4242 69.4849 41.7879 70.0909 42.2727C71.303 43.4848 71.303 45.4242 70.0909 46.5152L61.1212 55.4848C60.6364 55.9697 60.6364 56.697 61.1212 57.1818L80.5152 76.5758C80.5152 76.5758 80.5152 76.5758 80.3939 76.5758C76.8788 76.5758 75.0606 77.7879 73.4849 78.7576C71.9091 79.7273 70.697 80.5758 67.9091 80.5758C65.1212 80.5758 63.7879 79.7273 62.3333 78.7576C60.7576 77.7879 58.9394 76.5758 55.4242 76.5758C54.2121 76.5758 53.2424 76.697 52.3939 76.9394L61.6061 67.7273C61.8485 67.4848 61.9697 67.2424 61.9697 66.8788C61.8485 66.5152 61.7273 66.2727 61.6061 66.0303Z" fill="#C4A25F"/>
<path d="M30.2121 89.5453C33 89.5453 34.3333 90.3938 35.7879 91.3635C37.3636 92.3332 39.1818 93.5453 42.697 93.5453C46.2121 93.5453 48.0303 92.3332 49.6061 91.3635C51.1818 90.3938 52.3939 89.5453 55.1818 89.5453C57.9697 89.5453 59.303 90.3938 60.7576 91.3635C62.3333 92.3332 64.1515 93.5453 67.6667 93.5453C71.1818 93.5453 73 92.3332 74.5758 91.3635C76.1515 90.3938 77.3636 89.5453 80.1515 89.5453C82.9394 89.5453 84.2727 90.3938 85.7273 91.3635C87.303 92.3332 89.1212 93.5453 92.6364 93.5453C96.1515 93.5453 97.9697 92.3332 99.5455 91.3635C101.121 90.3938 102.333 89.5453 105.121 89.5453C105.848 89.5453 106.333 89.0605 106.333 88.3332C106.333 87.6059 105.848 87.1211 105.121 87.1211C101.606 87.1211 99.7879 88.3332 98.2121 89.3029C96.6364 90.2726 95.4242 91.1211 92.6364 91.1211C89.8485 91.1211 88.5152 90.2726 87.0606 89.3029C85.4849 88.3332 83.6667 87.1211 80.1515 87.1211C76.6364 87.1211 74.8182 88.3332 73.2424 89.3029C71.6667 90.2726 70.4545 91.1211 67.6667 91.1211C64.8788 91.1211 63.5455 90.2726 62.0909 89.3029C60.5152 88.3332 58.697 87.1211 55.1818 87.1211C51.6667 87.1211 49.8485 88.3332 48.2727 89.3029C46.697 90.2726 45.4848 91.1211 42.697 91.1211C39.9091 91.1211 38.5758 90.2726 37.1212 89.3029C35.5455 88.3332 33.7273 87.1211 30.2121 87.1211C29.4848 87.1211 29 87.6059 29 88.3332C29 89.0605 29.4848 89.5453 30.2121 89.5453Z" fill="#C4A25F"/>
<path d="M30.2121 99.9697C33 99.9697 34.3333 100.818 35.7879 101.788C37.3636 102.758 39.1818 103.97 42.697 103.97C46.2121 103.97 48.0303 102.758 49.6061 101.788C51.1818 100.818 52.3939 99.9697 55.1818 99.9697C57.9697 99.9697 59.303 100.818 60.7576 101.788C62.3333 102.758 64.1515 103.97 67.6667 103.97C71.1818 103.97 73 102.758 74.5758 101.788C76.1515 100.818 77.3636 99.9697 80.1515 99.9697C82.9394 99.9697 84.2727 100.818 85.7273 101.788C87.303 102.758 89.1212 103.97 92.6364 103.97C96.1515 103.97 97.9697 102.758 99.5455 101.788C101.121 100.818 102.333 99.9697 105.121 99.9697C105.848 99.9697 106.333 99.4848 106.333 98.7575C106.333 98.0303 105.848 97.5454 105.121 97.5454C101.606 97.5454 99.7879 98.7575 98.2121 99.7272C96.6364 100.697 95.4242 101.545 92.6364 101.545C89.8485 101.545 88.5152 100.697 87.0606 99.7272C85.4849 98.7575 83.6667 97.5454 80.1515 97.5454C76.6364 97.5454 74.8182 98.7575 73.2424 99.7272C71.6667 100.697 70.4545 101.545 67.6667 101.545C64.8788 101.545 63.5455 100.697 62.0909 99.7272C60.5152 98.7575 58.697 97.5454 55.1818 97.5454C51.6667 97.5454 49.8485 98.7575 48.2727 99.7272C46.697 100.697 45.4848 101.545 42.697 101.545C39.9091 101.545 38.5758 100.697 37.1212 99.7272C35.5455 98.7575 33.7273 97.5454 30.2121 97.5454C29.4848 97.5454 29 98.0303 29 98.7575C29 99.4848 29.4848 99.9697 30.2121 99.9697Z" fill="#C4A25F"/>
<path d="M86.9394 70.3857C89.4848 70.3857 91.7878 69.4088 93.606 67.5769C97.2424 63.9132 97.2424 57.807 93.606 54.1433C91.7878 52.3115 89.4848 51.3345 86.9394 51.3345C84.3939 51.3345 82.0909 52.3115 80.2727 54.1433C76.6363 57.807 76.6363 63.9132 80.2727 67.5769C81.9697 69.4088 84.3939 70.3857 86.9394 70.3857ZM81.9697 55.9752C83.303 54.6318 85 53.8991 86.9394 53.8991C88.7575 53.8991 90.5757 54.6318 91.909 55.9752C94.6969 58.784 94.6969 63.1805 91.909 65.9893C90.5757 67.3327 88.7575 68.0654 86.9394 68.0654C85.1212 68.0654 83.303 67.3327 81.9697 65.9893C79.1818 63.1805 79.1818 58.6619 81.9697 55.9752Z" fill="#C4A25F"/>
<path d="M70.1204 0.800604C70.6642 0.484436 71.3358 0.484436 71.8796 0.800603L131.367 35.3878C131.906 35.7011 132.238 36.2773 132.238 36.9006V106.099C132.238 106.723 131.906 107.299 131.367 107.612L71.8796 142.199C71.3358 142.516 70.6642 142.516 70.1204 142.199L10.6326 107.612C10.0937 107.299 9.7622 106.723 9.7622 106.099V36.9006C9.7622 36.2773 10.0937 35.7011 10.6326 35.3878L70.1204 0.800604Z" stroke="#C4A25F" stroke-width="0.5"/>
</svg>
