<svg width="80" height="80" viewBox="0 0 80 80" fill="none" xmlns="http://www.w3.org/2000/svg">
<path d="M75 58.75C75.1658 58.75 75.3247 58.6842 75.4419 58.5669C75.5592 58.4497 75.625 58.2908 75.625 58.125V9.375C75.625 9.20924 75.5592 9.05027 75.4419 8.93306C75.3247 8.81585 75.1658 8.75 75 8.75H25C24.8942 8.75329 24.791 8.7834 24.7 8.8375L4.7 20.0875C4.60321 20.1404 4.52216 20.2181 4.46507 20.3125C4.40799 20.4069 4.37691 20.5147 4.375 20.625V69.375C4.375 69.5408 4.44085 69.6997 4.55806 69.8169C4.67527 69.9342 4.83424 70 5 70C5.10737 69.9997 5.21284 69.9717 5.30625 69.9188L25.1625 58.75H28.75V64.375C28.7511 64.7618 28.8718 65.1389 29.0956 65.4544C29.3194 65.77 29.6353 66.0086 30 66.1375V68.125C30 68.2908 30.0658 68.4497 30.1831 68.5669C30.3003 68.6842 30.4592 68.75 30.625 68.75H32.5C32.6658 68.75 32.8247 68.6842 32.9419 68.5669C33.0592 68.4497 33.125 68.2908 33.125 68.125V66.25H50.625V68.125C50.625 68.2908 50.6908 68.4497 50.8081 68.5669C50.9253 68.6842 51.0842 68.75 51.25 68.75H53.125C53.2908 68.75 53.4497 68.6842 53.5669 68.5669C53.6842 68.4497 53.75 68.2908 53.75 68.125V66.1375C54.1147 66.0086 54.4306 65.77 54.6544 65.4544C54.8782 65.1389 54.9989 64.7618 55 64.375V58.75H63.75V67.7875L60.2812 70.1062C60.1704 70.1807 60.0863 70.2887 60.0414 70.4145C59.9964 70.5402 59.9928 70.677 60.0313 70.8049C60.0697 70.9328 60.1481 71.045 60.2549 71.1251C60.3618 71.2052 60.4915 71.249 60.625 71.25H70.625C70.7585 71.249 70.8882 71.2052 70.9951 71.1251C71.1019 71.045 71.1803 70.9328 71.2187 70.8049C71.2572 70.677 71.2536 70.5402 71.2086 70.4145C71.1637 70.2887 71.0796 70.1807 70.9688 70.1062L67.5 67.7875V58.75H75ZM18.75 60.925L11.25 65.1438V42.2375L18.75 37.95V60.925ZM24.375 57.7625L20 60.2188V36.875C20.0004 36.7649 19.9718 36.6566 19.9169 36.5611C19.862 36.4656 19.7829 36.3863 19.6875 36.3313C19.5925 36.2764 19.4847 36.2475 19.375 36.2475C19.2653 36.2475 19.1575 36.2764 19.0625 36.3313L10.3125 41.3312C10.2171 41.3863 10.138 41.4656 10.0831 41.5611C10.0282 41.6566 9.99956 41.7649 10 41.875V65.8438L5.625 68.3063V20.9875L24.375 10.4437V57.7625ZM31.875 67.5H31.25V66.25H31.875V67.5ZM52.5 67.5H51.875V66.25H52.5V67.5ZM53.75 64.375C53.75 64.5408 53.6842 64.6997 53.5669 64.8169C53.4497 64.9342 53.2908 65 53.125 65H30.625C30.4592 65 30.3003 64.9342 30.1831 64.8169C30.0658 64.6997 30 64.5408 30 64.375V58.125C30 57.7935 30.1317 57.4755 30.3661 57.2411C30.6005 57.0067 30.9185 56.875 31.25 56.875C31.5815 56.875 31.8995 57.0067 32.1339 57.2411C32.3683 57.4755 32.5 57.7935 32.5 58.125V61.875C32.5 62.0408 32.5658 62.1997 32.6831 62.3169C32.8003 62.4342 32.9592 62.5 33.125 62.5H50.625C50.7908 62.5 50.9497 62.4342 51.0669 62.3169C51.1842 62.1997 51.25 62.0408 51.25 61.875V58.125C51.25 57.7935 51.3817 57.4755 51.6161 57.2411C51.8505 57.0067 52.1685 56.875 52.5 56.875C52.8315 56.875 53.1495 57.0067 53.3839 57.2411C53.6183 57.4755 53.75 57.7935 53.75 58.125V64.375ZM42.5 56.25V51.875H51.25C51.4158 51.875 51.5747 51.9408 51.6919 52.0581C51.8092 52.1753 51.875 52.3342 51.875 52.5V55.7125C51.3397 55.8507 50.8653 56.1625 50.5261 56.599C50.1868 57.0355 50.0018 57.5722 50 58.125V58.75H43.125C42.6625 58.7528 42.2173 58.9264 41.875 59.2375C41.5327 58.9264 41.0875 58.7528 40.625 58.75H33.75V58.125C33.7482 57.5722 33.5632 57.0355 33.2239 56.599C32.8847 56.1625 32.4103 55.8507 31.875 55.7125V52.5C31.875 52.3342 31.9408 52.1753 32.0581 52.0581C32.1753 51.9408 32.3342 51.875 32.5 51.875H41.25V56.25H42.5ZM50 60V61.25H42.5V60.625C42.5 60.4592 42.5658 60.3003 42.6831 60.1831C42.8003 60.0658 42.9592 60 43.125 60H50ZM41.25 60.625V61.25H33.75V60H40.625C40.7908 60 40.9497 60.0658 41.0669 60.1831C41.1842 60.3003 41.25 60.4592 41.25 60.625ZM54.9125 57.5C54.8003 57.0701 54.5755 56.6779 54.2613 56.3637C53.9471 56.0495 53.5549 55.8247 53.125 55.7125V52.5C53.125 52.0027 52.9275 51.5258 52.5758 51.1742C52.2242 50.8225 51.7473 50.625 51.25 50.625H32.5C32.0027 50.625 31.5258 50.8225 31.1742 51.1742C30.8225 51.5258 30.625 52.0027 30.625 52.5V55.7125C30.1951 55.8247 29.8029 56.0495 29.4887 56.3637C29.1745 56.6779 28.9497 57.0701 28.8375 57.5H25.625V10H74.375V57.5H67.5V47.5H69.375V51.875H70.625V47.5H71.875C71.9796 47.4998 72.0824 47.4734 72.1742 47.4232C72.2659 47.373 72.3435 47.3005 72.4 47.2125C72.4616 47.1214 72.4982 47.0156 72.5058 46.9059C72.5135 46.7961 72.4921 46.6863 72.4438 46.5875L68.0688 37.2125C68.015 37.1087 67.9332 37.022 67.8327 36.9624C67.7321 36.9027 67.6169 36.8724 67.5 36.875H63.75C63.6248 36.8749 63.5025 36.9123 63.3989 36.9826C63.2952 37.0528 63.2151 37.1525 63.1688 37.2688L59.4188 46.6437C59.381 46.7386 59.367 46.8413 59.3781 46.9428C59.3892 47.0443 59.4249 47.1416 59.4823 47.226C59.5396 47.3105 59.6168 47.3797 59.7071 47.4274C59.7973 47.4752 59.8979 47.5001 60 47.5H63.75V57.5H54.9125ZM68.5625 70H62.6875L64.7188 68.6438C64.8047 68.5871 64.8754 68.5102 64.9244 68.4197C64.9735 68.3292 64.9995 68.2279 65 68.125V47.5H66.25V68.125C66.2505 68.2279 66.2765 68.3292 66.3256 68.4197C66.3746 68.5102 66.4453 68.5871 66.5312 68.6438L68.5625 70ZM60.925 46.25L64.175 38.125H67.1L70.8938 46.25H60.925Z" fill="#C4AB82"/>
<path d="M13.75 53.125C14.4404 53.125 15 52.5654 15 51.875C15 51.1846 14.4404 50.625 13.75 50.625C13.0596 50.625 12.5 51.1846 12.5 51.875C12.5 52.5654 13.0596 53.125 13.75 53.125Z" fill="#C4AB82"/>
<path d="M40.625 23.75H48.125C48.2908 23.75 48.4497 23.6842 48.5669 23.5669C48.6842 23.4497 48.75 23.2908 48.75 23.125V15.625C48.75 15.4592 48.6842 15.3003 48.5669 15.1831C48.4497 15.0658 48.2908 15 48.125 15H40.625C40.4592 15 40.3003 15.0658 40.1831 15.1831C40.0658 15.3003 40 15.4592 40 15.625V23.125C40 23.2908 40.0658 23.4497 40.1831 23.5669C40.3003 23.6842 40.4592 23.75 40.625 23.75ZM41.25 16.25H47.5V22.5H41.25V16.25Z" fill="#C4AB82"/>
<path d="M40.625 33.75H48.125C48.2908 33.75 48.4497 33.6842 48.5669 33.5669C48.6842 33.4497 48.75 33.2908 48.75 33.125V25.625C48.75 25.4592 48.6842 25.3003 48.5669 25.1831C48.4497 25.0658 48.2908 25 48.125 25H40.625C40.4592 25 40.3003 25.0658 40.1831 25.1831C40.0658 25.3003 40 25.4592 40 25.625V33.125C40 33.2908 40.0658 33.4497 40.1831 33.5669C40.3003 33.6842 40.4592 33.75 40.625 33.75ZM41.25 26.25H47.5V32.5H41.25V26.25Z" fill="#C4AB82"/>
<path d="M50.625 33.75H58.125C58.2908 33.75 58.4497 33.6842 58.5669 33.5669C58.6842 33.4497 58.75 33.2908 58.75 33.125V25.625C58.75 25.4592 58.6842 25.3003 58.5669 25.1831C58.4497 25.0658 58.2908 25 58.125 25H50.625C50.4592 25 50.3003 25.0658 50.1831 25.1831C50.0658 25.3003 50 25.4592 50 25.625V33.125C50 33.2908 50.0658 33.4497 50.1831 33.5669C50.3003 33.6842 50.4592 33.75 50.625 33.75ZM51.25 26.25H57.5V32.5H51.25V26.25Z" fill="#C4AB82"/>
<path d="M50.625 23.75H58.125C58.2908 23.75 58.4497 23.6842 58.5669 23.5669C58.6842 23.4497 58.75 23.2908 58.75 23.125V15.625C58.75 15.4592 58.6842 15.3003 58.5669 15.1831C58.4497 15.0658 58.2908 15 58.125 15H50.625C50.4592 15 50.3003 15.0658 50.1831 15.1831C50.0658 15.3003 50 15.4592 50 15.625V23.125C50 23.2908 50.0658 23.4497 50.1831 23.5669C50.3003 23.6842 50.4592 23.75 50.625 23.75ZM51.25 16.25H57.5V22.5H51.25V16.25Z" fill="#C4AB82"/>
<path d="M61.25 35.625V13.125C61.25 12.9592 61.1842 12.8003 61.0669 12.6831C60.9497 12.5658 60.7908 12.5 60.625 12.5H38.125C37.9592 12.5 37.8003 12.5658 37.6831 12.6831C37.5658 12.8003 37.5 12.9592 37.5 13.125V35.625C37.5 35.7908 37.5658 35.9497 37.6831 36.0669C37.8003 36.1842 37.9592 36.25 38.125 36.25H60.625C60.7908 36.25 60.9497 36.1842 61.0669 36.0669C61.1842 35.9497 61.25 35.7908 61.25 35.625ZM60 35H38.75V13.75H60V35Z" fill="#C4AB82"/>
</svg>
