<svg width="40" height="40" viewBox="0 0 40 40" fill="none" xmlns="http://www.w3.org/2000/svg">
<g clip-path="url(#clip0_1224_295)">
<path d="M0.585938 1.17188H6.8182V9.42016H5.94852C5.65188 9.42016 5.35547 9.4657 5.06773 9.55555C4.75883 9.65195 4.58664 9.98055 4.68305 10.2895C4.77945 10.5985 5.10805 10.771 5.41703 10.6742C5.59164 10.6197 5.77047 10.592 5.94859 10.592H8.86C9.54148 10.592 10.1728 10.9888 10.4684 11.6028L10.8903 12.4791H3.9182L4.13945 12.0196C4.27984 11.728 4.15727 11.3778 3.8657 11.2374C3.5743 11.097 3.22391 11.2195 3.08352 11.5112L2.45773 12.8109C2.37031 12.9924 2.38234 13.2063 2.48953 13.3768C2.5968 13.5475 2.78414 13.651 2.9857 13.651H5.71359V14.1435C5.71359 15.0757 6.47195 15.8341 7.40414 15.8341C8.33633 15.8341 9.09469 15.0757 9.09469 14.1435V13.651H9.66617V23.7342C9.66617 24.2423 10.0795 24.6556 10.5876 24.6556H29.4124C29.9205 24.6556 30.3338 24.2423 30.3338 23.7342V20.7636C30.3338 20.4399 30.0716 20.1777 29.7479 20.1777C29.4242 20.1777 29.162 20.4399 29.162 20.7636V23.4838H10.8381V13.6509H11.8227C12.0241 13.6509 12.2116 13.5474 12.3188 13.3767C12.426 13.2061 12.438 12.9923 12.3506 12.8108L11.5242 11.0943C11.3553 10.7434 11.1201 10.4354 10.8382 10.1823V8.91578H29.1621V10.1823C28.8802 10.4353 28.645 10.7434 28.4761 11.0942L27.6496 12.8107C27.5622 12.9923 27.5742 13.2061 27.6814 13.3766C27.7887 13.5473 27.976 13.6509 28.1776 13.6509H29.1622V18.4978C29.1622 18.8215 29.4245 19.0837 29.7481 19.0837C30.0718 19.0837 30.3341 18.8215 30.3341 18.4978V13.6509H30.9055V14.1434C30.9055 15.0755 31.6638 15.8339 32.5961 15.8339C33.5283 15.8339 34.2866 15.0755 34.2866 14.1434V13.6509H37.0145C37.216 13.6509 37.4034 13.5473 37.5107 13.3766C37.6179 13.206 37.6299 12.9923 37.5425 12.8107L36.716 11.0942C36.2263 10.0772 35.1806 9.42 34.0518 9.42H33.182V1.17188H39.4141C39.7377 1.17188 40 0.909609 40 0.585938C40 0.262266 39.7377 0 39.4141 0H0.585938C0.262266 0 0 0.262266 0 0.585938C0 0.909609 0.262266 1.17188 0.585938 1.17188ZM7.92281 14.1434C7.92281 14.4294 7.69008 14.6621 7.40414 14.6621C7.1182 14.6621 6.88547 14.4294 6.88547 14.1434V13.6509H7.92273L7.92281 14.1434ZM33.1145 14.1434C33.1145 14.4294 32.8818 14.6621 32.5959 14.6621C32.3098 14.6621 32.0771 14.4294 32.0771 14.1434V13.6509H33.1145V14.1434H33.1145ZM35.6598 11.6028L36.0818 12.4791H29.1098L29.5318 11.6028C29.8273 10.9888 30.4587 10.592 31.1401 10.592H34.0516C34.733 10.592 35.3643 10.9888 35.6598 11.6028ZM32.01 9.42016H31.1402C30.8641 9.42016 30.593 9.45945 30.3339 9.53375V8.66539C30.3339 8.15734 29.9205 7.74398 29.4125 7.74398H10.5876C10.0795 7.74398 9.66617 8.15734 9.66617 8.66539V9.53375C9.40695 9.45945 9.13586 9.42016 8.85984 9.42016H7.99008V1.17188H32.0099V9.42016H32.01Z" fill="#C4A25F"/>
<path d="M39.4141 38.8283H38.7884C38.8497 38.6795 38.8921 38.5205 38.9125 38.3541C39.0555 37.1862 38.8835 35.7941 38.7171 34.4478C38.6884 34.215 38.6596 33.982 38.6324 33.7505C38.5978 33.4553 38.3476 33.2328 38.0505 33.2328H37.9161C38.1795 32.5214 38.7819 32.1502 38.8189 32.1278C39.0966 31.9645 39.1905 31.6074 39.0285 31.3285C38.8659 31.0488 38.5072 30.9536 38.2275 31.1162C38.1877 31.1393 37.5812 31.4996 37.1254 32.2105C37.1934 31.3626 37.4365 30.3498 38.1391 29.7045C38.3774 29.4856 38.3932 29.1149 38.1743 28.8766C37.9553 28.6382 37.5847 28.6226 37.3463 28.8413C36.4301 29.6828 36.0862 30.8948 35.9754 31.9233C35.5612 31.4023 35.1129 31.136 35.0789 31.1162C34.7989 30.9537 34.4388 31.0479 34.2763 31.3276C34.1138 31.6074 34.2072 31.965 34.487 32.1276C34.519 32.1467 35.1256 32.5181 35.3903 33.2327H35.2559C34.9587 33.2327 34.7086 33.4552 34.674 33.7505C34.6468 33.9824 34.618 34.2157 34.5891 34.4489C34.4228 35.7948 34.2509 37.1864 34.3939 38.3538C34.4143 38.5203 34.4567 38.6794 34.518 38.8281H33.7368V38.0031C33.7368 37.2531 33.1266 36.6431 32.3768 36.6431H22.6405C21.8906 36.6431 21.2805 37.2532 21.2805 38.0031V38.8283H18.7196V38.0032C18.7196 37.2533 18.1095 36.6432 17.3596 36.6432H11.385C11.0613 36.6432 10.7991 36.9055 10.7991 37.2292C10.7991 37.5528 11.0613 37.8151 11.385 37.8151H17.3596C17.4634 37.8151 17.5477 37.8995 17.5477 38.0032V38.8283H7.43516V38.0032C7.43516 37.8995 7.51953 37.8151 7.62328 37.8151H9.1193C9.44297 37.8151 9.70523 37.5528 9.70523 37.2292C9.70523 36.9055 9.44297 36.6432 9.1193 36.6432H7.62328C6.87336 36.6432 6.26328 37.2534 6.26328 38.0032V38.8283H5.4975C5.55047 38.6908 5.5875 38.5449 5.60617 38.3928C5.74914 37.2252 5.57727 35.8335 5.41094 34.4877C5.38211 34.2545 5.35328 34.0212 5.32609 33.7893C5.29148 33.4942 5.04133 33.2716 4.74414 33.2716H4.60977C4.87336 32.5597 5.47633 32.1886 5.51266 32.1667C5.79031 32.0034 5.88414 31.6463 5.72219 31.3674C5.55961 31.0875 5.20102 30.9924 4.92125 31.155C4.88148 31.1781 4.27484 31.5385 3.81898 32.2493C3.88695 31.4014 4.13008 30.3885 4.83273 29.7432C5.07109 29.5243 5.08687 29.1537 4.86797 28.9152C4.64898 28.6769 4.27836 28.6612 4.04 28.88C3.12375 29.7214 2.77977 30.9334 2.66898 31.962C2.25477 31.4409 1.80648 31.1747 1.7725 31.1549C1.49273 30.9925 1.1325 31.0867 0.969922 31.3663C0.807422 31.6462 0.900859 32.0038 1.1807 32.1663C1.21266 32.1855 1.8193 32.5568 2.08398 33.2715H1.94953C1.65227 33.2715 1.40219 33.4941 1.36758 33.7892C1.34039 34.0212 1.31156 34.2545 1.28273 34.4877C1.11641 35.8335 0.944531 37.2252 1.0875 38.3927C1.10617 38.5449 1.1432 38.6907 1.19617 38.8282H0.585938C0.262266 38.8282 0 39.0905 0 39.4142C0 39.7378 0.262266 40.0001 0.585938 40.0001H39.4141C39.7377 40.0001 40 39.7378 40 39.4142C40 39.0905 39.7377 38.8283 39.4141 38.8283ZM35.7522 34.5927C35.76 34.53 35.7677 34.4674 35.7754 34.4047H37.5311C37.5387 34.467 37.5464 34.5292 37.5541 34.5916C37.7119 35.8674 37.8748 37.1869 37.7494 38.2117C37.709 38.5411 37.4295 38.7895 37.0992 38.7895H36.2073C35.877 38.7895 35.5975 38.541 35.5572 38.2117C35.5572 38.2117 35.5572 38.2117 35.5572 38.2116C35.4316 37.1871 35.5945 35.8682 35.7522 34.5927ZM22.4524 38.0032C22.4524 37.8995 22.5368 37.8151 22.6405 37.8151H32.3768C32.4805 37.8151 32.5649 37.8995 32.5649 38.0032V38.8282H22.4524V38.0032ZM2.44578 34.6314C2.45359 34.5687 2.46125 34.506 2.46898 34.4434H4.22477C4.2325 34.506 4.24016 34.5687 4.24797 34.6314C4.40562 35.9069 4.56859 37.2258 4.44305 38.2502C4.40266 38.5797 4.12313 38.8281 3.79289 38.8281H2.90094C2.57055 38.8281 2.29102 38.5796 2.2507 38.2502C2.12516 37.2258 2.28813 35.9069 2.44578 34.6314Z" fill="#C4A25F"/>
<path d="M25.178 14.0854C24.3324 14.0854 23.5038 14.2696 22.746 14.6224C22.516 13.5912 22.0005 12.6113 21.1996 11.8104L20.4143 11.0251C20.3044 10.9152 20.1554 10.8535 19.9999 10.8535C19.8445 10.8535 19.6955 10.9152 19.5856 11.0252L18.8003 11.8104C17.9995 12.6113 17.484 13.5912 17.2539 14.6224C16.4962 14.2696 15.6676 14.0854 14.822 14.0854H13.7114C13.3878 14.0854 13.1255 14.3477 13.1255 14.6713V15.7819C13.1255 18.9602 15.7112 21.5458 18.8894 21.5458H21.1104C24.2887 21.5458 26.8743 18.9601 26.8743 15.7819V14.6713C26.8743 14.3477 26.6121 14.0854 26.2884 14.0854H25.178ZM19.6292 12.639L20 12.268L20.371 12.6391C22.1614 14.4295 22.1614 17.3427 20.371 19.133L20 19.5041L19.6292 19.133C17.8387 17.3427 17.8387 14.4295 19.6292 12.639ZM14.2975 15.7819V15.2573H14.8221C15.6312 15.2573 16.4201 15.4686 17.115 15.8698C17.1109 17.3513 17.6727 18.8339 18.8005 19.9617L19.2127 20.3739H18.8896C16.3575 20.3739 14.2975 18.3139 14.2975 15.7819ZM25.7026 15.7819C25.7026 18.3139 23.6426 20.3739 21.1106 20.3739H20.7875L21.1996 19.9618C22.3274 18.834 22.8892 17.3513 22.8851 15.8698C23.5801 15.4687 24.3691 15.2573 25.178 15.2573H25.7026V15.7819Z" fill="#C4A25F"/>
</g>
<defs>
<clipPath id="clip0_1224_295">
<rect width="40" height="40" fill="white"/>
</clipPath>
</defs>
</svg>
