<svg width="40" height="38" viewBox="0 0 40 38" fill="none" xmlns="http://www.w3.org/2000/svg">
<path d="M38.5938 0.00634766H36.923C36.1476 0.00634766 35.5168 0.637207 35.5168 1.4126V5.97182H34.8825V5.93416C34.8825 5.0651 34.1755 4.35807 33.3064 4.35807H30.9228C30.0538 4.35807 29.3467 5.0651 29.3467 5.93416V5.97182H24.2795V5.584C24.2795 3.39549 22.4991 1.61502 20.3105 1.61502H19.6894C17.5009 1.61502 15.7205 3.39549 15.7205 5.584V5.97182H10.6532V5.93416C10.6532 5.0651 9.94617 4.35807 9.07711 4.35807H6.69359C5.82453 4.35807 5.1175 5.0651 5.1175 5.93416V5.97182H4.48328V1.4126C4.48328 0.637207 3.85242 0.00634766 3.07703 0.00634766H1.40625C0.630859 0.00634766 0 0.637207 0 1.4126V4.0533C0 4.37689 0.262344 4.63924 0.585938 4.63924C0.909531 4.63924 1.17188 4.37689 1.17188 4.0533V1.4126C1.17188 1.28338 1.27703 1.17822 1.40625 1.17822H3.07703C3.20625 1.17822 3.31141 1.28338 3.31141 1.4126V11.7037C3.31141 11.8329 3.20625 11.9381 3.07703 11.9381H1.40625C1.27703 11.9381 1.17188 11.8329 1.17188 11.7037V6.78767C1.17188 6.46408 0.909531 6.20174 0.585938 6.20174C0.262344 6.20174 0 6.46408 0 6.78767V11.7037C0 12.4791 0.630859 13.1099 1.40625 13.1099H3.07703C3.85242 13.1099 4.48328 12.4791 4.48328 11.7037V7.14369H5.15469C5.2318 7.52408 5.42539 7.86244 5.69617 8.12064V15.621C5.69617 16.3478 6.03258 16.9696 6.61906 17.327C7.30398 17.7444 8.23063 17.7453 9.03797 17.329C10.6998 16.4695 12.0463 15.6019 13.2554 14.6099C13.4009 14.9545 13.5825 15.2845 13.7971 15.5938C14.3438 16.3798 14.6528 17.32 14.6994 18.327C14.3896 18.1934 14.0495 18.1195 13.6947 18.1195C12.4174 18.1195 11.3304 19.0747 11.1662 20.3413L10.763 23.4514C10.6239 24.5239 10.7312 25.6331 11.0732 26.659C11.2788 27.276 11.3831 27.9187 11.3831 28.5689V32.5761L9.9232 35.0199C9.74117 35.3244 9.645 35.673 9.645 36.0279C9.645 37.1117 10.5267 37.9934 11.6104 37.9934H14.5976C15.1798 37.9934 15.7284 37.7377 16.1027 37.2918C16.4771 36.846 16.6341 36.2614 16.5334 35.6879L16.0062 32.6868V28.5689C16.0062 27.9628 16.098 27.3637 16.2768 26.7854C16.9552 27.049 17.6827 27.1865 18.4148 27.1865H21.5852C22.3173 27.1865 23.0448 27.049 23.7232 26.7854C23.902 27.3636 23.9938 27.9628 23.9938 28.5689V32.6868L23.4666 35.6879C23.3659 36.2613 23.5229 36.846 23.8973 37.2918C24.2716 37.7377 24.8202 37.9934 25.4024 37.9934H28.3896C29.4734 37.9934 30.355 37.1117 30.355 36.0279C30.355 35.6731 30.2588 35.3247 30.0768 35.0199L28.6168 32.5761V31.4483C28.6168 31.1247 28.3545 30.8624 28.0309 30.8624C27.7072 30.8624 27.4449 31.1247 27.4449 31.4483V32.1518H25.1656V28.5688C25.1656 27.7924 25.0411 27.025 24.7955 26.2884C24.5091 25.4292 24.4193 24.5003 24.5357 23.6021L24.9389 20.4919C25.0277 19.8074 25.615 19.2913 26.3052 19.2913C26.9955 19.2913 27.5829 19.8074 27.6716 20.4919L28.0748 23.6021C28.1912 24.5003 28.1013 25.4292 27.8149 26.2885C27.5694 27.0253 27.4449 27.7925 27.4449 28.5689V28.714C27.4449 29.0376 27.7072 29.2999 28.0309 29.2999C28.3545 29.2999 28.6168 29.0376 28.6168 28.714V28.5689C28.6168 27.9187 28.7211 27.276 28.9267 26.659C29.2687 25.6331 29.3759 24.5239 29.237 23.4514L28.8337 20.3413C28.6695 19.0746 27.5825 18.1195 26.3053 18.1195C25.9505 18.1195 25.6104 18.1935 25.3006 18.327C25.3472 17.3199 25.6563 16.3797 26.2034 15.5932C26.4175 15.2844 26.599 14.9545 26.7446 14.6098C27.9541 15.602 29.3003 16.4696 30.9627 17.3292C31.7694 17.7453 32.6961 17.7444 33.381 17.327C33.9675 16.9696 34.3038 16.3478 34.3038 15.621V8.12064C34.5745 7.86236 34.7681 7.52408 34.8452 7.14369H35.5167V11.7036C35.5167 12.479 36.1475 13.1099 36.9229 13.1099H38.5938C39.3691 13.1099 40 12.479 40 11.7036V1.4126C40 0.637207 39.3691 0.00634766 38.5938 0.00634766ZM30.9228 5.52994H33.3064C33.5293 5.52994 33.7106 5.71127 33.7106 5.93416V6.77267C33.7106 7.15424 33.4002 7.46463 33.0188 7.46463H31.2106C30.8291 7.46463 30.5187 7.15416 30.5187 6.77267V5.93416C30.5187 5.71127 30.7 5.52994 30.9228 5.52994ZM29.384 7.14369C29.5116 7.77268 29.957 8.28736 30.5445 8.51307V10.272C29.9324 9.53541 29.1901 8.95557 28.2995 8.51533C27.637 8.18791 26.8758 8.01486 26.0984 8.01486H24.2351C24.2634 7.82658 24.2796 7.62807 24.2796 7.41775V7.14377L29.384 7.14369ZM24.9573 15.3745C24.4098 16.3306 24.1219 17.433 24.1219 18.5945V18.6714C23.2016 18.9793 22.4435 19.6287 22.0012 20.506C21.9169 20.6729 21.7488 20.7765 21.5625 20.7765H18.4375C18.2512 20.7765 18.083 20.6728 17.999 20.5065C17.5566 19.6287 16.7984 18.9793 15.8781 18.6714V18.5945C15.8781 17.4328 15.5902 16.3304 15.0427 15.3745C15.6828 13.5806 15.7028 11.3706 15.5823 9.18666H16.1502C16.3185 9.51291 16.5345 9.81494 16.7917 10.0838C16.7293 10.4418 16.6976 10.8118 16.6976 11.1882C16.6976 13.7781 18.1481 15.807 19.9999 15.807C21.8516 15.807 23.3023 13.7781 23.3023 11.1882C23.3023 10.8093 23.2701 10.4368 23.2068 10.0766C23.433 9.83502 23.6617 9.54119 23.8497 9.18674H24.4175C24.2972 11.3706 24.3172 13.5806 24.9573 15.3745ZM19.5037 11.6053H20.4963C21.0885 11.6053 21.6614 11.4074 22.1266 11.0458C22.1278 11.0933 22.1305 11.1404 22.1305 11.1882C22.1305 13.0567 21.1548 14.6351 20 14.6351C18.8452 14.6351 17.8695 13.0566 17.8695 11.1882C17.8695 11.1404 17.8722 11.0932 17.8734 11.0457C18.3386 11.4073 18.9115 11.6053 19.5037 11.6053ZM16.8923 5.584C16.8923 4.04166 18.1471 2.78689 19.6894 2.78689H20.3105C21.8528 2.78689 23.1077 4.04166 23.1077 5.584V7.41768C23.1077 8.46713 22.5787 9.13892 21.7754 9.79822C21.6438 9.90619 21.5364 9.99439 21.4505 10.0863C21.1833 10.3104 20.8458 10.4335 20.4963 10.4335H19.5036C19.1436 10.4335 18.7962 10.3028 18.5253 10.0657L17.8088 9.4383C17.2263 8.92838 16.8923 8.19182 16.8923 7.41768V5.584ZM15.7674 8.01478H13.9055C13.0948 8.01478 12.291 8.20861 11.5806 8.57564C10.7423 9.00963 10.0392 9.56978 9.45539 10.272V8.51307C10.043 8.28744 10.4884 7.77268 10.616 7.14369H15.7205V7.41768C15.7205 7.61908 15.7367 7.81853 15.7674 8.01478ZM6.2893 5.93416C6.2893 5.71127 6.47062 5.52994 6.69352 5.52994H9.07703C9.29992 5.52994 9.48125 5.71127 9.48125 5.93416V6.77267C9.48125 7.15424 9.17086 7.46463 8.7893 7.46463H6.98133C6.59977 7.46463 6.28937 7.15416 6.28937 6.77267L6.2893 5.93416ZM13.5804 13.3688C13.2632 13.2849 12.9237 13.3604 12.6719 13.5713C11.4865 14.5658 10.1608 15.429 8.50023 16.2878C8.06109 16.5143 7.56211 16.5295 7.22891 16.3264C6.98953 16.1805 6.86805 15.9432 6.86805 15.6211V8.63291C6.90555 8.63517 6.94328 8.63666 6.98141 8.63666H8.28367V11.6117C8.28367 12.0291 8.62195 12.3691 9.04117 12.3691C9.31164 12.3691 9.56828 12.2239 9.70492 11.9789C10.2912 10.9267 11.081 10.1539 12.1191 9.61666C12.6635 9.33541 13.2812 9.18674 13.9056 9.18674H14.4099C14.4831 10.4253 14.5459 12.2819 14.2286 13.8978C14.0991 13.6382 13.8637 13.4437 13.5804 13.3688ZM11.9252 23.6022L12.3284 20.4921C12.4171 19.8076 13.0045 19.2914 13.6947 19.2914C14.3848 19.2914 14.9723 19.8076 15.061 20.4921L15.4642 23.6022C15.5806 24.5005 15.4908 25.4294 15.2044 26.2886C14.9588 27.0254 14.8343 27.7926 14.8343 28.5691V32.152H12.555V28.5691C12.555 27.7926 12.4305 27.0253 12.1849 26.2886C11.8985 25.4292 11.8087 24.5003 11.9252 23.6022ZM15.2053 36.5384C15.0541 36.7184 14.8327 36.8217 14.5976 36.8217H11.6104C11.1728 36.8217 10.8169 36.4656 10.8169 36.0281C10.8169 35.8848 10.8557 35.7441 10.9292 35.6211L12.3016 33.3239H14.9283L15.3792 35.8908C15.4199 36.1223 15.3565 36.3584 15.2053 36.5384ZM18.4148 26.0148C17.7815 26.0148 17.1527 25.8866 16.5735 25.6416C16.7013 24.9195 16.7205 24.1772 16.6264 23.4515C16.6264 23.4515 16.2016 20.2013 16.1869 20.1328C16.506 20.3647 16.7695 20.6706 16.9529 21.0345C17.2377 21.5982 17.8067 21.9484 18.4376 21.9484H21.5626C22.1935 21.9484 22.7623 21.5982 23.0475 21.034C23.2308 20.6704 23.4942 20.3646 23.8133 20.1328C23.7985 20.2013 23.7861 20.2708 23.777 20.3413L23.3737 23.4516C23.2797 24.1772 23.2988 24.9195 23.4266 25.6416C22.8473 25.8866 22.2186 26.0148 21.5853 26.0148H18.4148ZM27.6984 33.3239L29.0708 35.621C29.1443 35.7441 29.1831 35.8849 29.1831 36.0281C29.1831 36.4656 28.8271 36.8217 28.3896 36.8217H25.4023C25.1673 36.8217 24.9458 36.7185 24.7947 36.5385C24.6436 36.3585 24.5802 36.1224 24.6208 35.8909L25.0717 33.324H27.6984V33.3239ZM33.132 15.621C33.132 15.9431 33.0106 16.1805 32.7712 16.3263C32.4381 16.5294 31.9391 16.5142 31.5004 16.2881C29.8392 15.429 28.5135 14.5658 27.3277 13.571C27.0763 13.3605 26.7367 13.2849 26.4197 13.3688C26.1361 13.4437 25.9007 13.6385 25.7716 13.8977C25.4544 12.2817 25.517 10.4252 25.5902 9.18674H26.0984C26.6967 9.18674 27.2784 9.31783 27.7802 9.56588C28.8667 10.1031 29.6895 10.8924 30.2953 11.9792C30.4319 12.224 30.6884 12.3692 30.9589 12.3692C31.3779 12.3692 31.7163 12.0292 31.7163 11.6118V8.63674C31.7163 8.63674 33.0945 8.63525 33.132 8.63299V15.621H33.132ZM38.8281 11.7036C38.8281 11.8328 38.723 11.938 38.5938 11.938H36.923C36.7938 11.938 36.6887 11.8328 36.6887 11.7036V1.4126C36.6887 1.28338 36.7938 1.17822 36.923 1.17822H38.5938C38.723 1.17822 38.8281 1.28338 38.8281 1.4126V11.7036Z" fill="#C4A25F"/>
</svg>
