<svg width="142" height="143" viewBox="0 0 142 143" fill="none" xmlns="http://www.w3.org/2000/svg">
<path d="M67.4145 79.9531C72.0069 79.9531 75.743 76.2169 75.743 71.6245C75.743 67.0321 72.0069 63.2959 67.4145 63.2959C62.8221 63.2959 59.0859 67.0321 59.0859 71.6245C59.0859 76.2169 62.8221 79.9531 67.4145 79.9531ZM67.4145 65.2459C70.9317 65.2459 73.793 68.1073 73.793 71.6245C73.793 75.1418 70.9315 78.0031 67.4145 78.0031C63.8974 78.0031 61.0359 75.1416 61.0359 71.6245C61.0359 68.1073 63.8974 65.2459 67.4145 65.2459Z" fill="#C4A25F"/>
<path d="M101.469 91.7696C94.9833 90.0722 90.4537 84.195 90.4537 77.4774V69.5916C90.4537 67.9433 89.1129 66.6025 87.4646 66.6025H81.2478V58.9282H83.9512C84.8356 58.9282 85.6177 58.3971 85.9438 57.5751C86.2699 56.7529 86.0645 55.8301 85.4208 55.2239L68.566 39.3548C68.5592 39.3484 68.5525 39.3422 68.5456 39.3361C68.3061 39.1231 67.9979 39.0059 67.6776 39.0059C67.3652 39.0059 67.0627 39.118 66.8258 39.3218C66.8186 39.328 66.8113 39.3345 66.8041 39.3409L49.433 55.2015C48.7746 55.8028 48.5573 56.7284 48.8797 57.5597C49.2021 58.3911 49.9867 58.9282 50.8783 58.9282H53.5392V72.3331H42.1392C42.001 72.3331 41.8699 72.3622 41.7508 72.4139V67.5774C41.7508 67.0389 41.3142 66.6024 40.7758 66.6024C40.2373 66.6024 39.8008 67.0389 39.8008 67.5774V102.271C39.8008 102.809 40.2373 103.246 40.7758 103.246C41.3142 103.246 41.7508 102.809 41.7508 102.271V98.26C41.8575 98.3002 41.9726 98.323 42.0933 98.323H53.5392V102.61C53.5392 103.371 54.1627 103.991 54.9291 103.991H60.5918C61.3537 103.991 61.9736 103.371 61.9736 102.61V86.2731H72.8053V102.61C72.8053 103.371 73.4288 103.991 74.1951 103.991H79.8579C80.6244 103.991 81.2478 103.371 81.2478 102.61V91.2682C84.674 98.768 92.2456 103.993 101.015 103.993H101.206C101.212 103.993 101.218 103.993 101.224 103.993C101.341 103.993 101.46 103.972 101.572 103.929C101.979 103.774 102.23 103.371 102.197 102.945V92.713C102.197 92.2695 101.898 91.8819 101.469 91.7696ZM50.6978 56.8546C50.6498 56.731 50.7235 56.6638 50.7478 56.6415L67.671 41.1904L84.0839 56.6435C84.1076 56.6658 84.1797 56.7336 84.1312 56.8559C84.0827 56.9782 83.9836 56.9781 83.9511 56.9781H80.3141C80.3002 56.9775 80.2865 56.976 80.2726 56.976C80.2587 56.976 80.2449 56.9776 80.2312 56.9781H54.5555C54.5416 56.9775 54.528 56.976 54.5141 56.976C54.5001 56.976 54.4864 56.9776 54.4726 56.9781H50.8782C50.8455 56.9781 50.7456 56.9781 50.6978 56.8546ZM79.2976 58.9281V81.3909V82.2355C79.2971 82.2482 79.2957 82.2605 79.2957 82.2732C79.2957 82.3234 79.2972 82.3731 79.2976 82.4231V84.323H73.8179C73.8053 84.3224 73.7929 84.321 73.7802 84.321C73.7674 84.321 73.7551 84.3224 73.7425 84.323H61.0363C61.0237 84.3224 61.0113 84.321 60.9986 84.321C60.9858 84.321 60.9735 84.3224 60.9609 84.323H55.4892V81.3908V58.9281H79.2976ZM41.7507 82.2389C41.8531 82.2755 41.9629 82.2964 42.0779 82.2964H53.5391V88.3598H42.1085C41.9821 88.3598 41.8617 88.3847 41.7508 88.4285L41.7507 82.2389ZM42.1392 74.2829H53.5391V80.3464H42.078C41.9631 80.3464 41.8532 80.3673 41.7508 80.4038V74.2021C41.8697 74.2538 42.001 74.2829 42.1392 74.2829ZM42.0932 96.373C41.9724 96.373 41.8574 96.3961 41.7507 96.4361V90.2411C41.8615 90.2849 41.9821 90.3097 42.1084 90.3097H53.5389V96.373H42.0932ZM60.0235 102.041H55.4891V86.2731H60.0235V102.041ZM74.7552 102.041V86.2731H79.2976V102.041H74.7552ZM100.247 102.028C89.752 101.625 81.3288 93.0003 81.2478 82.4269V81.3909V68.5524H87.4646C88.0375 68.5524 88.5037 69.0186 88.5037 69.5915V77.4773C88.5037 84.8275 93.2953 91.2889 100.247 93.4479V102.028Z" fill="#C4A25F"/>
<path d="M70.1204 0.800604C70.6642 0.484436 71.3358 0.484436 71.8796 0.800603L131.367 35.3878C131.906 35.7011 132.238 36.2773 132.238 36.9006V106.099C132.238 106.723 131.906 107.299 131.367 107.612L71.8796 142.199C71.3358 142.516 70.6642 142.516 70.1204 142.199L10.6326 107.612C10.0937 107.299 9.7622 106.723 9.7622 106.099V36.9006C9.7622 36.2773 10.0937 35.7011 10.6326 35.3878L70.1204 0.800604Z" stroke="#C4A25F" stroke-width="0.5"/>
</svg>
