<svg width="40" height="40" viewBox="0 0 40 40" fill="none" xmlns="http://www.w3.org/2000/svg">
<g clip-path="url(#clip0_1224_245)">
<path d="M31.425 20.7128C32.1899 20.7136 32.9379 20.4876 33.5743 20.0632C34.2108 19.6388 34.707 19.0352 35.0003 18.3288C35.2936 17.6223 35.3708 16.8447 35.222 16.0944C35.0733 15.344 34.7054 14.6547 34.1648 14.1135C33.6242 13.5723 32.9352 13.2036 32.185 13.0541C31.4349 12.9046 30.6572 12.9809 29.9504 13.2734C29.2436 13.566 28.6395 14.0616 28.2144 14.6975C27.7894 15.3335 27.5625 16.0812 27.5625 16.8462C27.5636 17.8706 27.9708 18.8528 28.6948 19.5776C29.4188 20.3024 30.4006 20.7106 31.425 20.7128ZM31.425 13.8128C32.0251 13.812 32.612 13.9892 33.1114 14.322C33.6107 14.6548 34.0002 15.1283 34.2304 15.6825C34.4606 16.2367 34.5213 16.8467 34.4047 17.4354C34.2882 18.0241 33.9996 18.5649 33.5755 18.9896C33.1515 19.4142 32.611 19.7035 32.0225 19.8209C31.434 19.9383 30.8238 19.8785 30.2693 19.649C29.7148 19.4195 29.2408 19.0307 28.9073 18.5318C28.5738 18.0329 28.3958 17.4463 28.3958 16.8462C28.3969 16.0427 28.7163 15.2725 29.284 14.704C29.8517 14.1355 30.6216 13.815 31.425 13.8128Z" fill="#C4A25F"/>
<path d="M39.8792 10.9919L31.8417 2.95439V1.79606C31.8417 1.68555 31.7978 1.57957 31.7196 1.50143C31.6415 1.42329 31.5355 1.37939 31.425 1.37939C31.3145 1.37939 31.2085 1.42329 31.1304 1.50143C31.0522 1.57957 31.0083 1.68555 31.0083 1.79606V2.95856L22.975 10.9919C22.9162 11.0502 22.8762 11.1246 22.8599 11.2058C22.8436 11.2869 22.8519 11.3711 22.8836 11.4475C22.9153 11.5239 22.9691 11.5892 23.0381 11.6349C23.107 11.6807 23.1881 11.7049 23.2708 11.7044H24.35V17.5586H19.35C19.2395 17.5586 19.1335 17.6025 19.0554 17.6806C18.9772 17.7587 18.9333 17.8647 18.9333 17.9752C18.9333 18.0857 18.9772 18.1917 19.0554 18.2699C19.1335 18.348 19.2395 18.3919 19.35 18.3919H19.9V21.6877C19.1388 21.8883 18.4246 22.237 17.7983 22.7139C17.172 23.1908 16.6458 23.7865 16.25 24.4669L15.7333 25.3627V17.9752C15.7333 17.8647 15.6894 17.7587 15.6113 17.6806C15.5332 17.6025 15.4272 17.5586 15.3167 17.5586H12.95C12.8395 17.5586 12.7335 17.6025 12.6554 17.6806C12.5772 17.7587 12.5333 17.8647 12.5333 17.9752V18.5127H3.2V17.9752C3.2 17.8647 3.1561 17.7587 3.07796 17.6806C2.99982 17.6025 2.89384 17.5586 2.78333 17.5586H0.416667C0.30616 17.5586 0.200179 17.6025 0.122039 17.6806C0.0438987 17.7587 0 17.8647 0 17.9752L0 38.2044C0 38.3149 0.0438987 38.4209 0.122039 38.499C0.200179 38.5772 0.30616 38.6211 0.416667 38.6211H8.8625C10.1913 38.6257 11.4835 38.1857 12.5333 37.3711V38.2044C12.5333 38.3149 12.5772 38.4209 12.6554 38.499C12.7335 38.5772 12.8395 38.6211 12.95 38.6211H15.3208C15.407 38.6207 15.4909 38.5937 15.561 38.5437C15.6312 38.4937 15.6841 38.4232 15.7125 38.3419C15.9921 38.5256 16.3196 38.6227 16.6542 38.6211H28.125C28.2355 38.6211 28.3415 38.5772 28.4196 38.499C28.4978 38.4209 28.5417 38.3149 28.5417 38.2044V32.7419C28.5417 32.6314 28.4978 32.5254 28.4196 32.4473C28.3415 32.3691 28.2355 32.3252 28.125 32.3252H27.0583V25.1419H29.0708V38.2044C29.0708 38.3149 29.1147 38.4209 29.1929 38.499C29.271 38.5772 29.377 38.6211 29.4875 38.6211C29.598 38.6211 29.704 38.5772 29.7821 38.499C29.8603 38.4209 29.9042 38.3149 29.9042 38.2044V37.4169H32.95V38.2044C32.95 38.3149 32.9939 38.4209 33.072 38.499C33.1502 38.5772 33.2562 38.6211 33.3667 38.6211C33.4772 38.6211 33.5832 38.5772 33.6613 38.499C33.7394 38.4209 33.7833 38.3149 33.7833 38.2044V25.1419H35.7917V38.2044C35.7917 38.3149 35.8356 38.4209 35.9137 38.499C35.9918 38.5772 36.0978 38.6211 36.2083 38.6211H38.0875C38.198 38.6211 38.304 38.5772 38.3821 38.499C38.4603 38.4209 38.5042 38.3149 38.5042 38.2044V11.7044H39.5833C39.6661 11.7049 39.7471 11.6807 39.8161 11.6349C39.8851 11.5892 39.9388 11.5239 39.9706 11.4475C40.0023 11.3711 40.0106 11.2869 39.9943 11.2058C39.978 11.1246 39.9379 11.0502 39.8792 10.9919ZM23.0792 18.3919H24.3292V21.4919H23.0792V18.3919ZM20.7375 18.3919H22.2458V21.4919C21.7427 21.4731 21.2388 21.487 20.7375 21.5336V18.3919ZM13.3667 18.3919H14.9042V26.8044L13.3667 29.4669V18.3919ZM3.2 19.3461H12.5333V20.4169H3.2V19.3461ZM10.8917 31.3002H10.5542V21.2502H12.5333V30.9169L11.3083 33.0377V31.7169C11.3083 31.6064 11.2644 31.5004 11.1863 31.4223C11.1082 31.3441 11.0022 31.3002 10.8917 31.3002ZM10.475 32.1336V33.0794H5.2625V32.1336H10.475ZM6.01667 31.3002V21.2502H9.72083V31.3002H6.01667ZM3.2 21.2502H5.18333V31.3002H4.84583C4.73533 31.3002 4.62935 31.3441 4.55121 31.4223C4.47307 31.5004 4.42917 31.6064 4.42917 31.7169V33.4961C4.42917 33.6066 4.47307 33.7125 4.55121 33.7907C4.62935 33.8688 4.73533 33.9127 4.84583 33.9127H10.7917C10.5872 34.2372 10.3037 34.5046 9.96777 34.6897C9.63182 34.8748 9.2544 34.9716 8.87083 34.9711H8.14167C7.94133 34.9711 7.74329 35.0138 7.56079 35.0964C7.37829 35.1791 7.21551 35.2997 7.08333 35.4502L6.44583 36.1752C6.39382 36.2339 6.32951 36.2803 6.25749 36.3113C6.18548 36.3423 6.10752 36.357 6.02917 36.3544H3.2V21.2502ZM1.32917 37.7877H0.833333V18.3919H2.36667V36.3544C2.19697 36.3626 2.03131 36.4089 1.88192 36.4899C1.73254 36.5708 1.60326 36.6842 1.50364 36.8219C1.40402 36.9595 1.33662 37.1177 1.30642 37.2849C1.27622 37.4521 1.28399 37.624 1.32917 37.7877ZM14.9042 37.7877H13.3667V36.5377C13.8458 35.9919 14.0167 35.6294 14.9042 34.0919V37.7877ZM14.9042 30.0919V32.4377C13.1667 35.4461 13.0917 35.6586 12.5333 36.2336C12.0563 36.7247 11.4857 37.1152 10.8552 37.3822C10.2247 37.6491 9.54716 37.787 8.8625 37.7877C2.2375 37.7877 2.40833 37.7877 2.36667 37.7877C2.29673 37.7759 2.23322 37.7398 2.18742 37.6856C2.14162 37.6315 2.11649 37.5628 2.11649 37.4919C2.11649 37.421 2.14162 37.3523 2.18742 37.2982C2.23322 37.244 2.29673 37.2078 2.36667 37.1961H6.05C6.24601 37.1968 6.43986 37.1551 6.61823 37.0738C6.7966 36.9925 6.95527 36.8736 7.08333 36.7252L7.70833 36.0002C7.76038 35.9404 7.82431 35.8922 7.89605 35.8584C7.96779 35.8247 8.04576 35.8063 8.125 35.8044H8.85417C9.40012 35.8034 9.9363 35.6594 10.4093 35.3867C10.8823 35.114 11.2756 34.7222 11.55 34.2502L16.9667 24.8836C17.4172 24.1065 18.0638 23.4613 18.8417 23.0124C19.6197 22.5635 20.5018 22.3265 21.4 22.3252H24.3417V24.3086H21.4C20.8529 24.3092 20.3156 24.4535 19.8418 24.727C19.368 25.0005 18.9743 25.3935 18.7 25.8669L17.2708 28.3336H16.6667C16.4353 28.3325 16.2059 28.3772 15.9919 28.4651C15.7778 28.553 15.5832 28.6824 15.4194 28.8459C15.2556 29.0093 15.1257 29.2035 15.0373 29.4174C14.9489 29.6312 14.9036 29.8605 14.9042 30.0919ZM24.35 25.1419V28.3336H18.2333L19.4208 26.2794C19.6224 25.9329 19.9111 25.6452 20.2583 25.4449C20.6055 25.2446 20.9991 25.1387 21.4 25.1377L24.35 25.1419ZM26.225 37.7877H16.6667C16.4236 37.7877 16.1904 37.6912 16.0185 37.5192C15.8466 37.3473 15.75 37.1142 15.75 36.8711V30.0919C15.7489 29.9708 15.7718 29.8507 15.8174 29.7385C15.8629 29.6264 15.9303 29.5243 16.0155 29.4383C16.1008 29.3523 16.2022 29.284 16.3139 29.2375C16.4257 29.1909 16.5456 29.1669 16.6667 29.1669H26.25L26.225 37.7877ZM26.225 28.3377H25.1833V25.1419H26.225V28.3377ZM27.7083 33.1586V37.7877H27.0583V33.1586H27.7083ZM32.95 36.5836H29.9042V35.2877H32.95V36.5836ZM32.95 34.4544H29.9042V33.1586H32.95V34.4544ZM32.95 32.3252H29.9042V31.0252H32.95V32.3252ZM32.95 30.1919H29.9042V28.8961H32.95V30.1919ZM32.95 28.0627H29.9042V26.7669H32.95V28.0627ZM32.95 25.9336H29.9042V25.1419H32.95V25.9336ZM37.6708 37.7877H36.625V25.1419H37.6708V37.7877ZM37.6708 24.3086H25.1708V22.8211H37.6708V24.3086ZM37.6708 21.9877H25.1708V11.7044H37.6708V21.9877ZM24.275 10.8711L31.425 3.72106L38.5792 10.8711H24.275Z" fill="#C4A25F"/>
<path d="M20.9833 30.6001C20.4127 30.5993 19.8547 30.7678 19.3799 31.0843C18.9051 31.4008 18.5349 31.8511 18.3161 32.3781C18.0974 32.9051 18.0399 33.4852 18.151 34.0449C18.2621 34.6046 18.5368 35.1188 18.9403 35.5223C19.3438 35.9257 19.858 36.2004 20.4177 36.3116C20.9774 36.4227 21.5575 36.3652 22.0845 36.1465C22.6115 35.9277 23.0618 35.5575 23.3783 35.0827C23.6948 34.6079 23.8633 34.0499 23.8625 33.4793C23.8614 32.716 23.5577 31.9843 23.018 31.4446C22.4783 30.9049 21.7466 30.6012 20.9833 30.6001ZM20.9833 35.5293C20.5777 35.5301 20.1809 35.4106 19.8433 35.1858C19.5056 34.9611 19.2422 34.6412 19.0864 34.2667C18.9306 33.8921 18.8894 33.4798 18.968 33.0819C19.0467 32.684 19.2416 32.3183 19.5281 32.0312C19.8146 31.7441 20.1799 31.5484 20.5777 31.469C20.9755 31.3895 21.3879 31.4299 21.7627 31.5849C22.1375 31.74 22.4579 32.0027 22.6834 32.3399C22.9088 32.6771 23.0292 33.0736 23.0292 33.4793C23.0281 34.0219 22.8123 34.5421 22.429 34.9262C22.0457 35.3102 21.526 35.5271 20.9833 35.5293Z" fill="#C4A25F"/>
<path d="M25.0834 30.8333C25.1658 30.8333 25.2463 30.8089 25.3148 30.7631C25.3834 30.7173 25.4368 30.6523 25.4683 30.5761C25.4998 30.5 25.5081 30.4162 25.492 30.3354C25.4759 30.2546 25.4363 30.1803 25.378 30.122C25.3197 30.0638 25.2455 30.0241 25.1646 30.008C25.0838 29.9919 25 30.0002 24.9239 30.0317C24.8478 30.0633 24.7827 30.1167 24.7369 30.1852C24.6911 30.2537 24.6667 30.3343 24.6667 30.4167C24.6667 30.5272 24.7106 30.6332 24.7887 30.7113C24.8669 30.7894 24.9728 30.8333 25.0834 30.8333Z" fill="#C4A25F"/>
<path d="M16.8542 30.8333C16.9139 30.8424 16.9749 30.8384 17.0329 30.8215C17.0909 30.8047 17.1446 30.7754 17.1901 30.7358C17.2357 30.6962 17.2721 30.6471 17.2969 30.592C17.3216 30.5369 17.334 30.4771 17.3334 30.4167C17.3334 30.3062 17.2895 30.2002 17.2113 30.122C17.1332 30.0439 17.0272 30 16.9167 30C16.8062 30 16.7002 30.0439 16.6221 30.122C16.5439 30.2002 16.5 30.3062 16.5 30.4167C16.4989 30.5172 16.5341 30.6147 16.5992 30.6912C16.6643 30.7678 16.7548 30.8183 16.8542 30.8333Z" fill="#C4A25F"/>
<path d="M25.0834 36.2959C25.0009 36.2959 24.9204 36.3203 24.8519 36.3661C24.7833 36.4119 24.7299 36.477 24.6984 36.5531C24.6669 36.6292 24.6586 36.713 24.6747 36.7939C24.6908 36.8747 24.7305 36.9489 24.7887 37.0072C24.847 37.0655 24.9212 37.1051 25.0021 37.1212C25.0829 37.1373 25.1667 37.1291 25.2428 37.0975C25.3189 37.066 25.384 37.0126 25.4298 36.9441C25.4756 36.8755 25.5 36.795 25.5 36.7126C25.5 36.6021 25.4561 36.4961 25.378 36.4179C25.2998 36.3398 25.1939 36.2959 25.0834 36.2959Z" fill="#C4A25F"/>
<path d="M16.9208 36.2959C16.8384 36.2959 16.7578 36.3203 16.6893 36.3661C16.6208 36.4119 16.5674 36.477 16.5359 36.5531C16.5043 36.6292 16.4961 36.713 16.5122 36.7939C16.5282 36.8747 16.5679 36.9489 16.6262 37.0072C16.6845 37.0655 16.7587 37.1051 16.8395 37.1212C16.9204 37.1373 17.0041 37.1291 17.0803 37.0975C17.1564 37.066 17.2215 37.0126 17.2673 36.9441C17.313 36.8755 17.3375 36.795 17.3375 36.7126C17.3375 36.6021 17.2936 36.4961 17.2154 36.4179C17.1373 36.3398 17.0313 36.2959 16.9208 36.2959Z" fill="#C4A25F"/>
</g>
<defs>
<clipPath id="clip0_1224_245">
<rect width="40" height="40" fill="white"/>
</clipPath>
</defs>
</svg>
