<svg width="143" height="144" viewBox="0 0 143 144" fill="none" xmlns="http://www.w3.org/2000/svg">
<g clip-path="url(#clip0_1498_2852)">
<path d="M66.1383 60.9585C68.7367 60.9585 70.8453 58.8517 70.8453 56.2522C70.8453 53.6537 68.7367 51.5469 66.1383 51.5469C63.5399 51.5469 61.4326 53.6537 61.4326 56.2522C61.4328 58.8517 63.5399 60.9585 66.1383 60.9585Z" fill="#C4A25F"/>
<path d="M68.1049 84.6801C71.0149 83.387 74.6453 83.8231 77.0244 86.0439L77.0798 85.9989C80.1902 83.1476 84.998 83.1641 88.0837 86.0491C90.1641 84.11 93.1825 83.5408 95.8461 84.2686C100.285 81.2782 102.951 77.4574 102.951 73.2914C102.951 72.0117 102.687 70.7677 102.202 69.5688C101.971 69.0016 101.502 68.5646 100.918 68.3751C100.336 68.1857 99.6996 68.2635 99.1796 68.5871C92.2219 72.9105 82.7455 75.6113 72.2536 75.7372L68.1049 84.6801Z" fill="#C4A25F"/>
<path d="M103.386 87.7248C102.566 86.9079 101.239 86.9068 100.421 87.7257C99.7386 88.4088 98.5406 88.4097 97.8592 87.7268C95.5902 85.4559 91.6405 85.4508 89.3634 87.7279C88.6793 88.4119 87.4921 88.4158 86.7997 87.7237C84.5025 85.4223 80.7734 85.3822 78.4293 87.6091L78.306 87.7268C77.6223 88.4108 76.4327 88.4127 75.7445 87.7226C73.476 85.4559 69.5217 85.4559 67.2532 87.7268C66.5692 88.4108 65.3774 88.4108 64.6897 87.7248C64.6201 87.6551 64.5491 87.5878 64.4764 87.5224L73.4057 68.2674L75.638 67.0858C76.6619 66.5441 77.0529 65.2757 76.5103 64.2517C76.3107 63.8754 76.0128 63.5848 75.6656 63.3941L78.8218 56.5876C79.0659 56.0624 78.8383 55.4388 78.312 55.1952C77.7899 54.9494 77.1634 55.1798 76.9218 55.705L73.2607 63.5995L68.3482 66.199L64.3621 63.0882C63.9846 62.0206 62.1489 60.423 59.825 60.8992C58.4504 61.1809 57.239 62.1251 56.7106 63.5354L53.2019 72.8984C49.7412 71.7573 46.5821 70.3029 43.8222 68.5886C43.3021 68.2661 42.6652 68.1895 42.0836 68.3778C41.5003 68.5673 41.029 69.0033 40.7998 69.5704C40.3125 70.7684 40.0484 72.0114 40.0484 73.291C40.0484 77.4427 42.7039 81.248 47.1145 84.2334C49.7829 83.4563 52.7642 84.0399 54.9161 86.0487C56.6788 84.3992 59.1361 83.7442 61.4765 84.0276L65.4595 75.4379C64.0841 75.3036 62.7329 75.1243 61.408 74.904L63.9599 68.0942L66.8394 70.3412C67.2161 70.6342 67.6709 70.7847 68.1294 70.7847C68.465 70.7847 68.8011 70.7048 69.1099 70.5409L70.3447 69.8874L62.6741 86.4284C60.5098 85.6039 57.8881 86.0341 56.1938 87.7296C55.5098 88.4116 54.3267 88.4164 53.6345 87.7245C51.2919 85.3861 47.4832 85.3851 45.1405 87.7254C44.4591 88.4085 43.2652 88.4105 42.5791 87.7254C41.7605 86.9066 40.4335 86.9076 39.6141 87.7245C38.795 88.5435 38.795 89.8715 39.6141 90.6904C41.8811 92.9613 45.843 92.9571 48.1059 90.6915C48.814 89.982 49.9649 89.9871 50.6735 90.6945C51.8058 91.828 53.3125 92.4525 54.9161 92.4525C56.5196 92.4525 58.0265 91.8281 59.1649 90.6895C59.8488 90.0057 61.0386 90.0036 61.7263 90.6915C64.0014 92.9633 67.951 92.9593 70.218 90.6915C70.9064 90.0056 72.0975 90.0076 72.7774 90.6873C75.0136 92.9214 78.8752 92.9674 81.1541 90.8064L81.2753 90.6884C81.9589 90.0046 83.1466 90.0005 83.8389 90.6925C86.1074 92.9613 90.0556 92.9644 92.3322 90.6895C93.0162 90.0057 94.2082 90.0036 94.8915 90.6915C97.1627 92.9602 101.122 92.9582 103.385 90.6904C104.205 89.8717 104.205 88.5436 103.386 87.7248Z" fill="#C4A25F"/>
</g>
<path d="M70.6204 1.3006C71.1642 0.984436 71.8358 0.984436 72.3796 1.3006L131.867 35.8878C132.406 36.2011 132.738 36.7773 132.738 37.4006V106.599C132.738 107.223 132.406 107.799 131.867 108.112L72.3796 142.699C71.8358 143.016 71.1642 143.016 70.6204 142.699L11.1326 108.112C10.5937 107.799 10.2622 107.223 10.2622 106.599V37.4006C10.2622 36.7773 10.5937 36.2011 11.1326 35.8878L70.6204 1.3006Z" stroke="#C4A25F" stroke-width="0.5"/>
<defs>
<clipPath id="clip0_1498_2852">
<rect width="65" height="65" fill="white" transform="translate(39 39.5)"/>
</clipPath>
</defs>
</svg>
