<svg width="143" height="144" viewBox="0 0 143 144" fill="none" xmlns="http://www.w3.org/2000/svg">
<g clip-path="url(#clip0_1498_1459)">
<path d="M102.984 98.406H98.9219V95.5348C99.3529 95.4948 99.7794 95.4333 100.191 95.3268C100.675 95.2019 100.996 94.7442 100.948 94.2472L99.2136 76.0148C99.2338 76.0087 99.2525 75.9988 99.2723 75.9915C99.2988 75.9816 99.3241 75.9727 99.3495 75.9607C99.7219 75.8106 99.8994 75.4248 99.9375 75.0465V63.8746H100.953C101.514 63.8746 101.969 63.4198 101.969 62.859V58.7965C101.942 58.449 101.77 58.1394 101.489 57.9336L72.0355 39.6525C71.7073 39.4492 71.2927 39.4492 70.9644 39.6525L41.5113 57.9337C41.2302 58.1396 41.0579 58.4493 41.0312 58.7966V62.8591C41.0312 63.4199 41.486 63.8747 42.0469 63.8747H43.0625V75.0466C43.1015 75.424 43.2785 75.8096 43.6499 75.9602C43.676 75.9725 43.7019 75.9816 43.7292 75.9918C43.7485 75.9989 43.7667 76.0086 43.7865 76.0146L42.0514 94.2473C42.0043 94.7443 42.3252 95.2019 42.8087 95.3269C43.2209 95.4334 43.6473 95.4948 44.0782 95.5349V98.4061H40.0156C39.4548 98.4061 39 98.8609 39 99.4217V103.484C39 104.045 39.4548 104.5 40.0156 104.5H102.984C103.546 104.5 104 104.045 104 103.484V99.4217C104 98.8609 103.546 98.406 102.984 98.406ZM50.1719 98.406V93.6766C50.3921 93.4995 50.6054 93.3149 50.8087 93.1116L50.89 93.0303C51.0944 92.8259 51.2019 92.5448 51.1861 92.2567L51.1576 91.7157L51.801 91.8435C52.0654 91.8991 52.3267 91.9263 52.5994 91.9263C54.0912 91.9263 55.4881 91.06 56.1586 89.7195C56.2558 89.5246 56.288 89.3034 56.2503 89.0892L53.4404 73.1462C56.3265 71.1595 58.5811 68.2653 59.7465 64.7692L59.766 64.7109C60.7776 65.4582 62.0235 65.9059 63.3751 65.9059H65.3476C66.1238 66.5271 67.123 66.8175 68.114 66.6929C68.6709 68.0249 69.9836 68.9528 71.5001 68.9528C73.0166 68.9528 74.3297 68.0249 74.8862 66.6929C75.8819 66.8206 76.8797 66.5285 77.6543 65.9059H79.6251C80.9768 65.9059 82.223 65.4581 83.2346 64.7106L83.2541 64.7692C84.4196 68.2653 86.6741 71.1597 89.5601 73.1464L86.7502 89.0892C86.7115 89.3034 86.7442 89.5246 86.8414 89.7195C87.5119 91.0599 88.9093 91.9263 90.4011 91.9263C90.6739 91.9263 90.9347 91.899 91.1886 91.846L91.8429 91.7158L91.8144 92.2566C91.7986 92.5447 91.9056 92.8264 92.11 93.0302L92.1913 93.1115C92.3954 93.3159 92.6091 93.5007 92.8281 93.6768V98.4058L50.1719 98.406ZM44.9648 93.5496C44.9459 93.5516 44.9266 93.552 44.9077 93.552C44.6583 93.5515 44.4068 93.5416 44.1613 93.5143L45.8323 75.9582C46.6626 75.8702 47.4769 75.7228 48.2706 75.515L49.1318 91.9026C48.9553 92.0609 48.7688 92.2076 48.5639 92.3504C47.5419 93.0839 46.2997 93.5069 44.9648 93.5496ZM51.5754 74.2676L54.1848 89.072C53.746 89.6854 53.0011 90.0212 52.2081 89.8535L51.0473 89.6227L50.2701 74.8566C50.7137 74.6773 51.1505 74.4839 51.5754 74.2676ZM43.0625 61.8435V59.8122H57.2812C57.2812 60.5253 57.4107 61.2071 57.6367 61.8435H43.0625ZM81.6562 58.7966H83.6875V59.8122C83.6875 62.0523 81.8656 63.8747 79.625 63.8747H78.934C79.1759 62.8132 78.9307 61.6925 78.2722 60.8279C78.3512 60.7241 78.4173 60.6129 78.4844 60.5023C79.4841 60.1712 80.3514 59.6039 81.0363 58.8642C81.2408 58.8329 81.4435 58.7966 81.6562 58.7966ZM80.6406 54.7341C80.6406 56.0645 79.9922 57.259 78.9695 58.0071C78.9003 57.5809 78.7639 57.16 78.5359 56.7659C77.9216 55.7012 76.8457 55.0644 75.6967 54.9575C76.4487 54.1778 77.483 53.7185 78.6094 53.7185H80.6406V54.7341ZM73.1375 56.2928C73.1564 56.635 73.3468 56.9444 73.6433 57.1156C73.9408 57.2876 74.3028 57.2971 74.6083 57.1429C75.3938 56.7491 76.344 57.0303 76.7765 57.7811C77.2109 58.5334 76.9778 59.4989 76.2458 59.9785C75.9592 60.166 75.7866 60.4853 75.7866 60.828C75.7866 61.1706 75.9592 61.4901 76.2458 61.6774C76.9778 62.157 77.2109 63.1226 76.7765 63.8754C76.7128 63.9856 76.6351 64.0822 76.5512 64.1716L76.5496 64.1731C76.0625 64.6901 75.276 64.8482 74.6084 64.5131C74.3029 64.3588 73.941 64.3682 73.6434 64.5404C73.3468 64.7115 73.1564 65.0209 73.1376 65.3631C73.088 66.237 72.3695 66.9218 71.5001 66.9218C70.6312 66.9218 69.9122 66.237 69.8631 65.3626C69.8438 65.0205 69.6534 64.7115 69.3568 64.5399C69.2001 64.4496 69.0245 64.404 68.849 64.404C68.6923 64.404 68.5356 64.4401 68.3913 64.5131C67.7249 64.8491 66.937 64.6912 66.4494 64.1724C66.3652 64.0827 66.2871 63.9855 66.2232 63.8748C65.7888 63.1221 66.0219 62.157 66.7543 61.6774C67.0409 61.49 67.2135 61.1706 67.2135 60.828C67.2135 60.4853 67.0409 60.1659 66.7543 59.9785C66.0218 59.4989 65.7887 58.5339 66.2232 57.7811C66.6571 57.0288 67.6097 56.7486 68.3914 57.1429C68.6969 57.2972 69.0599 57.2867 69.3569 57.1161C69.6535 56.9445 69.8439 56.6356 69.8632 56.2933C69.9123 55.4191 70.6313 54.7341 71.5002 54.7341C72.3696 54.7341 73.0879 55.419 73.1375 56.2928ZM64.4635 56.7654C64.236 57.1598 64.0996 57.5808 64.0304 58.0069C63.0076 57.2588 62.3594 56.0645 62.3594 54.7341V53.7185H64.3906C65.5178 53.7185 66.5531 54.1784 67.3051 54.9592C66.1571 55.0671 65.0787 55.7003 64.4635 56.7654ZM61.964 58.8642C62.6488 59.6036 63.5156 60.1707 64.5149 60.5019C64.582 60.6127 64.6483 60.724 64.7274 60.8279C64.0689 61.6925 63.8238 62.8131 64.0657 63.8747H63.375C61.1349 63.8747 59.3125 62.0523 59.3125 59.8122V58.7966H61.3438C61.5568 58.7966 61.7594 58.833 61.964 58.8642ZM97.1686 75.9583L98.8386 93.5143C98.6115 93.5391 98.3824 93.5515 98.1503 93.5515C98.1126 93.551 98.072 93.5535 97.9351 93.5416C96.7003 93.5068 95.4575 93.0838 94.4241 92.3424C94.2277 92.205 94.0432 92.0598 93.8676 91.9025L94.7301 75.5151C95.5238 75.7229 96.3383 75.8703 97.1686 75.9583ZM91.9532 89.6226L90.781 89.856C90.0491 90.0067 89.2536 89.6844 88.8153 89.0714L91.4242 74.2672C91.8491 74.4836 92.2861 74.6772 92.7299 74.8566L91.9532 89.6226ZM94.8595 94.8862C95.5209 95.1713 96.2016 95.3712 96.8907 95.4712V98.406H94.8595V94.8862ZM97.9063 73.0292C96.4488 71.79 94.3999 69.6004 93.824 66.7222C93.715 66.1727 93.1863 65.8161 92.6289 65.9257C92.0794 66.0358 91.7223 66.5709 91.8324 67.1209C92.3929 69.9239 94.0505 72.1278 95.5616 73.6319C90.7641 72.4913 86.7915 68.9586 85.1803 64.1266L85.0963 63.8747H97.9063V73.0292ZM99.9376 61.8434H85.3634C85.5894 61.207 85.7188 60.5252 85.7188 59.8121H99.9376V61.8434ZM71.5 41.7106L97.391 57.781H85.7188C85.7188 57.2202 85.2645 56.7654 84.7031 56.7654H82.3247C82.5496 56.1268 82.6719 55.4428 82.6719 54.7341V52.7029C82.6719 52.142 82.2176 51.6872 81.6562 51.6872H78.6094C76.8223 51.6872 75.1838 52.4487 74.0462 53.7426C73.384 53.1006 72.4873 52.7029 71.5 52.7029C70.5127 52.7029 69.6161 53.1007 68.9539 53.7428C67.8159 52.4488 66.1774 51.6872 64.3906 51.6872H61.3438C60.7829 51.6872 60.3281 52.142 60.3281 52.7029V54.7341C60.3281 55.4428 60.4504 56.1268 60.6754 56.7654H58.2969C57.736 56.7654 57.2812 57.2202 57.2812 57.781H45.609L71.5 41.7106ZM57.9033 63.8747L57.8193 64.1266C56.209 68.9587 52.2363 72.4914 47.4383 73.632C48.9495 72.128 50.6072 69.924 51.1676 67.1209C51.2777 66.5709 50.9211 66.0358 50.3711 65.9257C49.8167 65.8141 49.2856 66.1722 49.176 66.7222C48.603 69.5868 46.5525 71.7804 45.0936 73.0242V63.8746L57.9033 63.8747ZM46.1094 95.4701C46.8112 95.3654 47.4894 95.1639 48.1406 94.8847V98.406H46.1094V95.4701ZM101.969 102.468H41.0312V100.437H101.969V102.468Z" fill="#C4A25F"/>
<path d="M75.5625 76.0625C74.2206 76.0625 72.7487 76.5158 71.5 77.2968C70.2523 76.5158 68.78 76.0625 67.4375 76.0625C64.0772 76.0625 61.3438 78.796 61.3438 82.1562C61.3438 89.9902 70.8742 92.1979 71.2798 92.2882C71.3522 92.3046 71.4261 92.3125 71.5 92.3125C71.5739 92.3125 71.6478 92.3046 71.7202 92.2882C72.1258 92.1979 81.6562 89.9902 81.6562 82.1562C81.6562 78.796 78.9228 76.0625 75.5625 76.0625ZM71.5 90.2491C70.1749 89.892 63.375 87.7814 63.375 82.1562C63.375 79.9162 65.1974 78.0938 67.4375 78.0938C68.5776 78.0938 69.866 78.5584 70.8826 79.337C71.2466 79.6157 71.7524 79.6157 72.1174 79.337C73.1345 78.5584 74.4229 78.0938 75.5625 78.0938C77.8031 78.0938 79.625 79.9162 79.625 82.1562C79.625 87.7814 72.8251 89.892 71.5 90.2491Z" fill="#C4A25F"/>
<path d="M68.4531 60.8281C68.4531 62.5083 69.8199 63.875 71.5 63.875C73.1801 63.875 74.5469 62.5083 74.5469 60.8281C74.5469 59.148 73.1801 57.7812 71.5 57.7812C69.8199 57.7812 68.4531 59.148 68.4531 60.8281ZM72.5156 60.8281C72.5156 61.388 72.0599 61.8438 71.5 61.8438C70.9401 61.8438 70.4844 61.388 70.4844 60.8281C70.4844 60.2682 70.9401 59.8125 71.5 59.8125C72.0599 59.8125 72.5156 60.2682 72.5156 60.8281Z" fill="#C4A25F"/>
</g>
<path d="M70.6204 1.3006C71.1642 0.984436 71.8358 0.984436 72.3796 1.3006L131.867 35.8878C132.406 36.2011 132.738 36.7773 132.738 37.4006V106.599C132.738 107.223 132.406 107.799 131.867 108.112L72.3796 142.699C71.8358 143.016 71.1642 143.016 70.6204 142.699L11.1326 108.112C10.5937 107.799 10.2622 107.223 10.2622 106.599V37.4006C10.2622 36.7773 10.5937 36.2011 11.1326 35.8878L70.6204 1.3006Z" stroke="#C4A25F" stroke-width="0.5"/>
<defs>
<clipPath id="clip0_1498_1459">
<rect width="65" height="65" fill="white" transform="translate(39 39.5)"/>
</clipPath>
</defs>
</svg>
