<svg width="143" height="143" viewBox="0 0 143 143" fill="none" xmlns="http://www.w3.org/2000/svg">
<path d="M93.6 79C91.07 79 88.8 80.33 87.5 82.37C86.21 80.33 83.93 79 81.4 79H79C77.07 79 75.5 80.57 75.5 82.5C75.5 84.43 77.07 86 79 86H96C97.93 86 99.5 84.43 99.5 82.5C99.5 80.57 97.93 79 96 79H93.6ZM79 84C78.17 84 77.5 83.33 77.5 82.5C77.5 81.67 78.17 81 79 81H81.4C83.45 81 85.28 82.21 86.12 84H79ZM97.5 82.5C97.5 83.33 96.83 84 96 84H88.88C89.73 82.21 91.55 81 93.6 81H96C96.83 81 97.5 81.67 97.5 82.5Z" fill="#C4A25F"/>
<path d="M80.5 76C80.5 76.55 80.95 77 81.5 77C82.05 77 82.5 76.55 82.5 76C82.5 73.05 85.08 72 87.5 72C89.92 72 92.5 73.05 92.5 76C92.5 76.55 92.95 77 93.5 77C94.05 77 94.5 76.55 94.5 76C94.5 73.39 93.01 71.41 90.58 70.52C91.14 69.83 91.5 68.96 91.5 68V67C91.5 64.79 89.71 63 87.5 63C85.29 63 83.5 64.79 83.5 67V68C83.5 68.96 83.85 69.83 84.42 70.52C82 71.41 80.5 73.39 80.5 76ZM85.5 67C85.5 65.9 86.4 65 87.5 65C88.6 65 89.5 65.9 89.5 67V68C89.5 69.1 88.6 70 87.5 70C86.4 70 85.5 69.1 85.5 68V67Z" fill="#C4A25F"/>
<path d="M49.5 96H43.5V90H81.5C82.05 90 82.5 89.55 82.5 89C82.5 88.45 82.05 88 81.5 88H42.5C41.95 88 41.5 88.45 41.5 89V97C41.5 97.55 41.95 98 42.5 98H49.5C50.05 98 50.5 97.55 50.5 97C50.5 96.45 50.05 96 49.5 96Z" fill="#C4A25F"/>
<path d="M100.5 88H85.5C84.95 88 84.5 88.45 84.5 89C84.5 89.55 84.95 90 85.5 90H99.5V96H53.5C52.95 96 52.5 96.45 52.5 97C52.5 97.55 52.95 98 53.5 98H100.5C101.05 98 101.5 97.55 101.5 97V89C101.5 88.45 101.05 88 100.5 88Z" fill="#C4A25F"/>
<path d="M55.56 50.6902C55.61 51.2402 56.09 51.6502 56.65 51.5902C57.2 51.5402 57.6 51.0502 57.55 50.5002L57.52 50.2602C57.51 50.1802 57.49 50.0902 57.49 50.0102C57.49 47.8002 59.28 46.0102 61.49 46.0102C63.7 46.0102 65.49 47.8002 65.49 50.0102C65.49 50.1002 65.48 50.1802 65.46 50.2602L65.43 50.5002C65.39 50.9102 65.61 51.3102 65.98 51.4902C66.35 51.6802 66.8 51.6102 67.1 51.3302C68.03 50.4702 69.24 50.0002 70.48 50.0002C73.24 50.0002 75.48 52.2402 75.48 55.0002C75.48 55.7102 75.33 56.4002 75.04 57.0502C74.93 57.3002 74.92 57.5902 75.03 57.8402C75.14 58.0902 75.34 58.3002 75.6 58.3902C77.96 59.2802 79.48 61.4802 79.48 63.9902C79.48 66.9602 77.27 69.5002 74.34 69.9202C73.85 69.9902 73.48 70.4902 73.48 70.9902C73.48 73.6702 71.38 75.8602 68.71 75.9802C68.16 76.0002 67.73 76.4702 67.75 77.0202C67.77 77.5602 68.22 77.9802 68.75 77.9802H68.79C72.26 77.8302 75.04 75.1802 75.43 71.7402C78.93 70.8602 81.48 67.6702 81.48 63.9902C81.48 60.9702 79.83 58.2902 77.21 56.9202C77.39 56.3002 77.48 55.6502 77.48 54.9902C77.48 51.1302 74.34 47.9902 70.48 47.9902C69.38 47.9902 68.31 48.2502 67.35 48.7302C66.77 46.0202 64.36 43.9902 61.48 43.9902C58.17 43.9902 55.48 46.6802 55.48 49.9902C55.48 50.1702 55.5 50.3402 55.52 50.5102L55.54 50.6802L55.56 50.6902Z" fill="#C4A25F"/>
<path d="M47.54 71.7498C47.9 75.1598 50.69 77.8398 54.19 77.9898H54.23C54.76 77.9898 55.2 77.5698 55.23 77.0298C55.25 76.4798 54.83 76.0098 54.27 75.9898C51.59 75.8698 49.5 73.6798 49.5 70.9198C49.5 70.4198 49.13 69.9998 48.64 69.9298C45.71 69.5098 43.5 66.9698 43.5 63.9998C43.5 61.4898 45.02 59.2898 47.38 58.3998C47.64 58.2998 47.85 58.0998 47.95 57.8498C48.05 57.5998 48.05 57.3098 47.94 57.0598C47.65 56.4098 47.5 55.7298 47.5 55.0098C47.5 52.2498 49.74 50.0098 52.5 50.0098C53.05 50.0098 53.5 49.5598 53.5 49.0098C53.5 48.4598 53.05 48.0098 52.5 48.0098C48.64 48.0098 45.5 51.1498 45.5 55.0098C45.5 55.6698 45.59 56.3198 45.77 56.9398C43.15 58.3098 41.5 60.9898 41.5 64.0098C41.5 67.6798 44.04 70.8798 47.54 71.7598V71.7498Z" fill="#C4A25F"/>
<path d="M54.2999 84.5003C54.0199 84.9803 54.1799 85.5903 54.6599 85.8703C55.1399 86.1503 55.7499 85.9903 56.0299 85.5103C62.8399 73.8103 58.6199 66.3803 56.8599 64.0703L57.4999 63.4303L60.7899 66.7203C61.1799 67.1103 61.8099 67.1103 62.1999 66.7203L65.4899 63.4303L66.1299 64.0703C64.3699 66.3803 60.1499 73.8203 66.9599 85.5103C67.1499 85.8303 67.4799 86.0103 67.8299 86.0103C67.9999 86.0103 68.1699 85.9703 68.3299 85.8703C68.8099 85.5903 68.9699 84.9803 68.6899 84.5003C61.3499 71.8903 67.9099 64.9903 68.1899 64.7103C68.5799 64.3203 68.5799 63.6903 68.1899 63.3003L66.1899 61.3003C65.7999 60.9103 65.1699 60.9103 64.7799 61.3003L61.4899 64.5903L58.1999 61.3003C57.8099 60.9103 57.1799 60.9103 56.7899 61.3003L54.7899 63.3003C54.3999 63.6903 54.3999 64.3203 54.7899 64.7103C55.0699 65.0003 61.6299 71.9003 54.2999 84.5003Z" fill="#C4A25F"/>
<path d="M91.5 56C94.81 56 97.5 53.31 97.5 50C97.5 46.69 94.81 44 91.5 44C88.19 44 85.5 46.69 85.5 50C85.5 53.31 88.19 56 91.5 56ZM91.5 46C93.71 46 95.5 47.79 95.5 50C95.5 52.21 93.71 54 91.5 54C89.29 54 87.5 52.21 87.5 50C87.5 47.79 89.29 46 91.5 46Z" fill="#C4A25F"/>
<path d="M70.6204 0.800604C71.1642 0.484436 71.8358 0.484436 72.3796 0.800603L131.867 35.3878C132.406 35.7011 132.738 36.2773 132.738 36.9006V106.099C132.738 106.723 132.406 107.299 131.867 107.612L72.3796 142.199C71.8358 142.516 71.1642 142.516 70.6204 142.199L11.1326 107.612C10.5937 107.299 10.2622 106.723 10.2622 106.099V36.9006C10.2622 36.2773 10.5937 35.7011 11.1326 35.3878L70.6204 0.800604Z" stroke="#C4A25F" stroke-width="0.5"/>
</svg>
