<svg xmlns="http://www.w3.org/2000/svg" version="1.1" xmlns:xlink="http://www.w3.org/1999/xlink" width="120" height="120" x="0" y="0" viewBox="0 0 512 512" style="enable-background:new 0 0 512 512" xml:space="preserve" class=""><circle r="256" cx="256" cy="256" fill="#ffffff" shape="circle"></circle><g transform="matrix(0.7,0,0,0.7,76.79970245361329,76.80000000000001)"><path fill-rule="evenodd" d="M496 241.755a8 8 0 0 0-8 8v116.882c0 13.126-10.679 23.805-23.805 23.805h-19.589a75.47 75.47 0 0 0 6.473-5.747c14.023-14.023 21.746-32.638 21.746-52.415v-89.986c0-10.117-4.531-19.189-11.664-25.314 11.125-7.18 18.512-19.676 18.512-33.873 0-22.219-18.077-40.296-40.295-40.296s-40.295 18.077-40.295 40.296c0 14.21 7.4 26.716 18.542 33.892-7.152 6.125-11.694 15.188-11.694 25.294v3.633l-20.299 13.099h-74.403c-13.413 0-24.325 10.912-24.325 24.324 0 2.92.518 5.722 1.466 8.318h-64.741a24.204 24.204 0 0 0 1.466-8.318c0-13.412-10.912-24.324-24.325-24.324h-74.402l-20.3-13.099v-3.632c0-10.106-4.542-19.17-11.695-25.294 11.142-7.176 18.542-19.682 18.542-33.892 0-22.219-18.077-40.296-40.295-40.296s-40.295 18.077-40.295 40.296c0 14.197 7.387 26.693 18.512 33.873-7.132 6.125-11.663 15.197-11.663 25.314v89.986c0 19.777 7.723 38.393 21.747 52.416a75.747 75.747 0 0 0 6.472 5.746H47.805C34.679 390.441 24 379.763 24 366.637V249.755a8 8 0 0 0-16 0v116.882c0 21.948 17.856 39.805 39.805 39.805h38.117V496a8 8 0 0 0 8 8h21.468a8 8 0 0 0 8-8v-89.559h11.722c1.435 0 4.793 0 7.592 9.523l24.186 82.291a8 8 0 0 0 7.675 5.744h162.868a8 8 0 0 0 7.675-5.744l24.186-82.291c2.799-9.523 6.158-9.523 7.592-9.523h11.722V496a8 8 0 0 0 8 8h21.468a8 8 0 0 0 8-8v-89.559h38.117c21.948 0 39.805-17.856 39.805-39.805V249.755c.002-4.418-3.58-8-7.998-8zm-56.622-82.944c13.396 0 24.295 10.899 24.295 24.296s-10.899 24.295-24.295 24.295-24.295-10.898-24.295-24.295 10.899-24.296 24.295-24.296zM302.905 283.349c0-4.59 3.734-8.324 8.325-8.324h79.117l30.748-19.842c3.848-2.469 8.988-1.348 11.457 2.499 2.469 3.848 1.348 8.987-2.515 11.468l-32.819 21.178a8.407 8.407 0 0 1-4.5 1.33l-47.934.01h-33.689c-4.528-.074-8.19-3.774-8.19-8.319zM218.494 488l-13.73-45.837v-111.26h102.473v111.26L293.506 488zM106.068 303.745l.073.047a24.377 24.377 0 0 0 13.087 3.865l18.762.004c.04 0 .078.006.118.006h1.01v15.235a8 8 0 0 0 8 8h41.645v60.933c-5.477-13.551-11.659-23.922-18.958-31.909-12.531-13.713-28.258-20.379-48.079-20.379h-8.391c-1.915 0-3.732-.764-5.117-2.147-1.387-1.388-2.151-3.206-2.151-5.12v-28.535zm94.703 3.929c.09 0 .179-.006.269-.007h109.922c.09.001.179.007.269.007l33.575-.007h12.075v7.235H155.119v-7.235h12.075zm122.465 23.228h41.645a8 8 0 0 0 8-8v-15.235h1.01c.04 0 .078-.005.118-.006l18.762-.004a24.399 24.399 0 0 0 13.104-3.876l.057-.037v28.535c0 1.914-.764 3.732-2.148 5.117-1.387 1.387-3.205 2.15-5.12 2.15h-8.391c-19.821 0-35.547 6.666-48.079 20.379-7.299 7.987-13.481 18.359-18.958 31.909zm-122.465-55.878c4.59 0 8.325 3.734 8.325 8.324 0 4.545-3.662 8.245-8.188 8.318h-33.689l-47.935-.01a8.39 8.39 0 0 1-4.483-1.319l-32.852-21.199c-3.847-2.47-4.968-7.609-2.499-11.457 2.469-3.846 7.608-4.968 11.441-2.51l30.765 19.853zM72.621 158.811c13.396 0 24.295 10.899 24.295 24.296s-10.899 24.295-24.295 24.295-24.295-10.898-24.295-24.295 10.898-24.296 24.295-24.296zM101.922 488v-81.559h5.468V488zm94.842 0h-16.21l-22.498-76.547c-5.104-17.366-15.293-21.012-22.943-21.012H113.336c-15.503 0-30.1-6.059-41.102-17.061-11.001-11.001-17.06-25.598-17.06-41.102v-89.986c0-9.578 7.792-17.37 17.37-17.37 8.192 0 15.069 5.608 16.979 13.149-9.011-1.144-18.315 2.828-23.539 10.967-7.235 11.272-3.95 26.329 7.305 33.554l16.779 10.827v38.859c0 6.186 2.427 12.021 6.837 16.434 4.409 4.407 10.244 6.834 16.431 6.834h8.391c28.687 0 45.635 17.516 58.498 60.458L201.792 488zm157.181-76.547L331.447 488h-21.238l21.566-71.995c12.863-42.942 29.812-60.458 58.498-60.458h8.391c6.187 0 12.022-2.427 16.434-6.837 4.407-4.409 6.834-10.245 6.834-16.431V293.42l16.763-10.817c11.271-7.235 14.556-22.292 7.321-33.564-5.223-8.137-14.524-12.11-23.54-10.964 1.909-7.543 8.787-13.152 16.98-13.152 9.578 0 17.37 7.792 17.37 17.37v89.986c0 15.504-6.059 30.101-17.059 41.102-11.003 11.002-25.601 17.061-41.103 17.061h-21.776c-7.65-.001-17.84 3.645-22.943 21.011zM410.078 488h-5.468v-81.559h5.468zM111.877 152.093h5.045v23.401a8 8 0 0 0 13.769 5.542l27.805-28.943h66.29c12.911 0 23.416-10.505 23.416-23.416V31.416C248.201 18.505 237.697 8 224.786 8H111.877C98.966 8 88.462 18.505 88.462 31.416v97.261c0 12.911 10.504 23.416 23.415 23.416zm-7.415-120.677c0-4.089 3.326-7.416 7.415-7.416h112.908c4.089 0 7.416 3.327 7.416 7.416v97.261c0 4.089-3.327 7.416-7.416 7.416h-69.698a8 8 0 0 0-5.769 2.458l-16.396 17.068v-11.526a8 8 0 0 0-8-8h-13.045c-4.089 0-7.415-3.327-7.415-7.416zm20.457 18.44a8 8 0 0 1 8-8h70.826a8 8 0 0 1 0 16h-70.826a8 8 0 0 1-8-8zm0 30.19a8 8 0 0 1 8-8h70.826a8 8 0 0 1 0 16h-70.826a8 8 0 0 1-8-8zm0 30.19a8 8 0 0 1 8-8h70.826a8 8 0 0 1 0 16h-70.826a8 8 0 0 1-8-8zm153.82 41.857h66.29l27.805 28.943a7.998 7.998 0 0 0 8.756 1.879 8 8 0 0 0 5.013-7.421v-23.401h5.045c12.911 0 23.416-10.505 23.416-23.416V31.416C415.063 18.505 404.559 8 391.647 8H278.739c-12.911 0-23.416 10.505-23.416 23.416v97.261c.001 12.911 10.505 23.416 23.416 23.416zm-7.415-120.677c0-4.089 3.327-7.416 7.416-7.416h112.908c4.089 0 7.416 3.327 7.416 7.416v97.261c0 4.089-3.327 7.416-7.416 7.416h-13.045a8 8 0 0 0-8 8v11.526l-16.396-17.068a8 8 0 0 0-5.769-2.458H278.74c-4.089 0-7.416-3.327-7.416-7.416zm55.869 56.204V38.793a8 8 0 0 1 16 0V87.62a8 8 0 0 1-16 0zm-1.101 25.237c0-5.013 4.089-9.102 9.102-9.102s9.102 4.088 9.102 9.102-4.089 9.102-9.102 9.102c-5.014 0-9.102-4.089-9.102-9.102z" clip-rule="evenodd" fill="#c8a165" opacity="1" data-original="#000000" class=""></path></g></svg>