<svg xmlns="http://www.w3.org/2000/svg" version="1.1" xmlns:xlink="http://www.w3.org/1999/xlink" width="120" height="120" x="0" y="0" viewBox="0 0 16.933 16.933" style="enable-background:new 0 0 512 512" xml:space="preserve" class=""><circle r="8.4665" cx="8.4665" cy="8.4665" fill="#ffffff" shape="circle"></circle><g transform="matrix(0.7,0,0,0.7,2.5398336946964264,2.5391247868537903)"><path d="M10.583.789v.787l-1.435-1a.264.264 0 0 0-.303 0L3.706 4.154a.265.265 0 0 0-.066.367l.64.922c.084.12.25.15.37.066l.642-.448v3.14c0 .353.53.353.53 0V4.693l3.173-2.21 3.176 2.21v3.508c0 .353.529.353.529 0V5.06l.643.448c.12.083.284.054.367-.066l.643-.922a.265.265 0 0 0-.067-.367L12.7 3.05V.789a.265.265 0 0 0-.266-.264h-1.599a.266.266 0 0 0-.252.264zm.53.263h1.058v1.63l-1.059-.738zm-2.116.065 4.77 3.32-.338.486-4.281-2.98a.264.264 0 0 0-.303 0l-4.281 2.98-.338-.486zM7.673 5.29a.265.265 0 0 0-.264.265v2.645c-.034.384.562.384.527 0V5.82h2.118V8.2c0 .354.53.354.53 0V5.557a.265.265 0 0 0-.265-.265zm7.502 1.905c-.321 0-.642.122-.886.365l-1.551 1.552c-.26.25.124.634.374.374l1.551-1.551a.717.717 0 0 1 1.024 0 .603.603 0 0 1 .186.48c-.007.181-.082.39-.215.578-.506.717-1.639 2.356-2.245 3.234-.465.673-1.028 1-1.771 1H7.144c-.482 0-.807.209-1.053.426L2.567 10.13a.263.263 0 0 0-.373 0L.607 11.718a.265.265 0 0 0 0 .375l4.234 4.233c.103.102.27.102.373 0l1.588-1.588a.265.265 0 0 0 0-.373l-.34-.34a.9.9 0 0 1 .682-.267h4.498c.909 0 1.668-.45 2.206-1.23.606-.877 1.74-2.518 2.242-3.23.182-.258.3-.556.312-.864a1.168 1.168 0 0 0-.341-.873 1.25 1.25 0 0 0-.886-.365zm-9.619 1.8c-.988 0-1.6.452-2.08.914-.257.244.113.629.368.381.45-.433.876-.766 1.712-.766h5.556c.445 0 .794.35.794.793s-.35.794-.794.794h-2.91c-.358-.005-.358.534 0 .53h2.91c.729 0 1.323-.595 1.323-1.324s-.594-1.323-1.323-1.323zm-3.174 1.697 3.86 3.86-1.213 1.212-3.86-3.86z" fill="#c8a165" opacity="1" data-original="#000000" class=""></path></g></svg>